<svg xmlns="http://www.w3.org/2000/svg" xmlns:xlink="http://www.w3.org/1999/xlink" width="100" zoomAndPan="magnify" viewBox="0 0 75 74.999997" height="100" preserveAspectRatio="xMidYMid meet" version="1.0"><defs><g/><clipPath id="b81424e895"><path d="M 21.804688 40 L 47 40 L 47 62.753906 L 21.804688 62.753906 Z M 21.804688 40 " clip-rule="nonzero"/></clipPath><clipPath id="a38931176a"><path d="M 46 29.003906 L 72.054688 29.003906 L 72.054688 52 L 46 52 Z M 46 29.003906 " clip-rule="nonzero"/></clipPath></defs><g clip-path="url(#b81424e895)"><path fill="#0652e9" d="M 38.726562 56.285156 L 38.726562 59.339844 L 24.875 52.914062 L 24.875 50.4375 L 38.726562 44.007812 L 38.726562 47.066406 L 28.25 51.644531 L 28.25 51.703125 Z M 46.953125 40.613281 L 23.789062 40.613281 C 22.695312 40.613281 21.808594 41.5 21.808594 42.59375 L 21.808594 60.757812 C 21.808594 61.847656 22.695312 62.734375 23.789062 62.734375 L 40.523438 62.734375 L 46.953125 40.613281 " fill-opacity="1" fill-rule="nonzero"/></g><g clip-path="url(#a38931176a)"><path fill="#62e1e9" d="M 68.992188 41.402344 L 55.140625 47.742188 L 55.140625 44.6875 L 65.847656 40.105469 L 65.847656 40.046875 L 55.140625 35.464844 L 55.140625 32.410156 L 68.992188 38.75 Z M 53.382812 29.015625 L 46.953125 51.136719 L 70.078125 51.136719 C 71.171875 51.136719 72.058594 50.25 72.058594 49.15625 L 72.058594 30.992188 C 72.058594 29.902344 71.171875 29.015625 70.078125 29.015625 L 53.382812 29.015625 " fill-opacity="1" fill-rule="nonzero"/></g><g fill="#0652e9" fill-opacity="1"><g transform="translate(4.396936, 27.78773)"><g><path d="M 1.21875 0 L 5.3125 0 C 8.722656 0 11.511719 -2.769531 11.511719 -6.199219 C 11.511719 -9.632812 8.722656 -12.402344 5.3125 -12.402344 L 1.21875 -12.402344 Z M 3.949219 -2.417969 L 3.949219 -9.984375 L 5.292969 -9.984375 C 7.253906 -9.984375 8.785156 -8.351562 8.785156 -6.199219 C 8.785156 -4.050781 7.253906 -2.417969 5.292969 -2.417969 Z M 3.949219 -2.417969 "/></g></g></g><g fill="#0652e9" fill-opacity="1"><g transform="translate(17.402073, 27.78773)"><g><path d="M 8.785156 -10.003906 L 8.785156 -12.402344 L 1.324219 -12.402344 L 1.324219 0 L 8.785156 0 L 8.785156 -2.398438 L 4.050781 -2.398438 L 4.050781 -5.003906 L 8.101562 -5.003906 L 8.101562 -7.398438 L 4.050781 -7.398438 L 4.050781 -10.003906 Z M 8.785156 -10.003906 "/></g></g></g><g fill="#0652e9" fill-opacity="1"><g transform="translate(27.761537, 27.78773)"><g><path d="M 8.679688 -12.402344 L 5.726562 -3.535156 L 2.769531 -12.402344 L -0.269531 -12.402344 L 4.195312 0 L 7.253906 0 L 11.71875 -12.402344 Z M 8.679688 -12.402344 "/></g></g></g><g fill="#5271ff" fill-opacity="1"><g transform="translate(4.940142, 37.586271)"><g><path d="M 3.132812 0.0703125 C 4.140625 0.0703125 5.019531 -0.484375 5.484375 -1.296875 L 5 -1.570312 C 4.640625 -0.921875 3.941406 -0.492188 3.132812 -0.492188 C 1.949219 -0.492188 0.992188 -1.4375 0.992188 -2.632812 C 0.992188 -3.824219 1.949219 -4.773438 3.132812 -4.773438 C 3.941406 -4.773438 4.640625 -4.34375 5 -3.695312 L 5.484375 -3.964844 C 5.019531 -4.78125 4.140625 -5.335938 3.132812 -5.335938 C 1.640625 -5.335938 0.429688 -4.125 0.429688 -2.632812 C 0.429688 -1.140625 1.640625 0.0703125 3.132812 0.0703125 Z M 3.132812 0.0703125 "/></g></g></g><g fill="#5271ff" fill-opacity="1"><g transform="translate(13.064605, 37.586271)"><g><path d="M 3.132812 0.0703125 C 4.632812 0.0703125 5.835938 -1.140625 5.835938 -2.632812 C 5.835938 -4.125 4.632812 -5.335938 3.132812 -5.335938 C 1.640625 -5.335938 0.429688 -4.125 0.429688 -2.632812 C 0.429688 -1.140625 1.640625 0.0703125 3.132812 0.0703125 Z M 3.132812 -0.492188 C 1.949219 -0.492188 0.992188 -1.4375 0.992188 -2.632812 C 0.992188 -3.824219 1.949219 -4.773438 3.132812 -4.773438 C 4.324219 -4.773438 5.273438 -3.824219 5.273438 -2.632812 C 5.273438 -1.4375 4.324219 -0.492188 3.132812 -0.492188 Z M 3.132812 -0.492188 "/></g></g></g><g fill="#5271ff" fill-opacity="1"><g transform="translate(21.689117, 37.586271)"><g><path d="M 0.640625 0 L 2.078125 0 C 3.527344 0 4.710938 -1.175781 4.710938 -2.632812 C 4.710938 -4.089844 3.527344 -5.265625 2.078125 -5.265625 L 0.640625 -5.265625 Z M 1.191406 -0.5625 L 1.191406 -4.703125 L 2.070312 -4.703125 C 3.238281 -4.703125 4.148438 -3.816406 4.148438 -2.632812 C 4.148438 -1.449219 3.238281 -0.5625 2.070312 -0.5625 Z M 1.191406 -0.5625 "/></g></g></g><g fill="#5271ff" fill-opacity="1"><g transform="translate(29.181944, 37.586271)"><g><path d="M 0.683594 0 L 1.246094 0 L 1.246094 -5.265625 L 0.683594 -5.265625 Z M 0.683594 0 "/></g></g></g><g fill="#5271ff" fill-opacity="1"><g transform="translate(33.455182, 37.586271)"><g><path d="M 4.421875 -5.265625 L 4.421875 -0.9375 L 1.167969 -5.265625 L 0.640625 -5.265625 L 0.640625 0 L 1.203125 0 L 1.203125 -4.324219 L 4.449219 0 L 4.976562 0 L 4.976562 -5.265625 Z M 4.421875 -5.265625 "/></g></g></g><g fill="#5271ff" fill-opacity="1"><g transform="translate(41.421738, 37.586271)"><g><path d="M 3.148438 -2.789062 L 3.148438 -2.265625 L 5.265625 -2.265625 C 5.097656 -1.246094 4.21875 -0.492188 3.160156 -0.492188 C 1.972656 -0.492188 1.019531 -1.4375 1.019531 -2.632812 C 1.019531 -3.824219 1.972656 -4.773438 3.160156 -4.773438 C 3.957031 -4.773438 4.660156 -4.34375 5.019531 -3.695312 L 5.5 -3.964844 C 5.046875 -4.78125 4.167969 -5.335938 3.160156 -5.335938 C 1.660156 -5.335938 0.457031 -4.125 0.457031 -2.632812 C 0.457031 -1.140625 1.660156 0.0703125 3.160156 0.0703125 C 4.648438 0.0703125 5.859375 -1.140625 5.859375 -2.632812 L 5.859375 -2.789062 Z M 3.148438 -2.789062 "/></g></g></g></svg>