<svg fill="none" height="512" viewBox="0 0 24 24" width="512" xmlns="http://www.w3.org/2000/svg" xmlns:xlink="http://www.w3.org/1999/xlink"><linearGradient id="lg1"><stop offset="0" stop-color="#138bd7"/><stop offset="1" stop-color="#62aafb"/></linearGradient><linearGradient id="paint0_linear_3397_3164" gradientUnits="userSpaceOnUse" x1="8.675" x2="8.675" xlink:href="#lg1" y1="2" y2="22"/><linearGradient id="paint1_linear_3397_3164" gradientUnits="userSpaceOnUse" x1="17.428" x2="17.428" xlink:href="#lg1" y1="8.473" y2="15.65"/><path d="m7.87999 12.07c0-.41.34-.75.75-.75h5.48001v-8.46c-.01-.48-.39-.86-.87-.86-5.89001 0-10.00001 4.11-10.00001 10s4.11 10 10.00001 10c.47 0 .86-.38.86-.86v-8.33h-5.47001c-.42.01-.75-.33-.75-.74z" fill="url(#paint0_linear_3397_3164)"/><path d="m20.5401 11.54-2.84-2.85c-.29-.29-.77-.29-1.06 0s-.29.77 0 1.06l1.56 1.56h-4.1v1.5h4.09l-1.56 1.56c-.29.29-.29.77 0 1.06.15.15.34.22.53.22s.38-.07.53-.22l2.84-2.85c.3-.28.3-.75.01-1.04z" fill="url(#paint1_linear_3397_3164)"/></svg>