<svg id="Layer_1" enable-background="new 0 0 64 64" height="512" viewBox="0 0 64 64" width="512" xmlns="http://www.w3.org/2000/svg" xmlns:xlink="http://www.w3.org/1999/xlink"><linearGradient id="lg1"><stop offset="0" stop-color="#00b6bd"/><stop offset="1" stop-color="#46f8ff"/></linearGradient><linearGradient id="SVGID_1_" gradientUnits="userSpaceOnUse" x1=".586" x2="29.414" xlink:href="#lg1" y1="63.414" y2="34.586"/><linearGradient id="SVGID_2_" gradientUnits="userSpaceOnUse" x1="34.586" x2="63.414" xlink:href="#lg1" y1="29.414" y2=".586"/><linearGradient id="lg2"><stop offset="0" stop-color="#1a6fb0"/><stop offset="1" stop-color="#3d9ae2"/></linearGradient><linearGradient id="SVGID_3_" gradientUnits="userSpaceOnUse" x1=".586" x2="29.414" xlink:href="#lg2" y1="29.414" y2=".586"/><linearGradient id="SVGID_4_" gradientUnits="userSpaceOnUse" x1="34.586" x2="63.414" xlink:href="#lg2" y1="63.414" y2="34.586"/><g><path d="m28 34h-26c-1.105 0-2 .896-2 2v26c0 1.104.895 2 2 2h26c1.104 0 2-.896 2-2v-26c0-1.104-.896-2-2-2z" fill="url(#SVGID_1_)"/><path d="m62 0h-26c-1.105 0-2 .896-2 2v26c0 1.104.895 2 2 2h26c1.104 0 2-.896 2-2v-26c0-1.104-.896-2-2-2z" fill="url(#SVGID_2_)"/></g><g><path d="m28 0h-26c-1.105 0-2 .896-2 2v26c0 1.104.895 2 2 2h26c1.104 0 2-.896 2-2v-26c0-1.104-.896-2-2-2z" fill="url(#SVGID_3_)"/><path d="m62 34h-26c-1.105 0-2 .896-2 2v26c0 1.104.895 2 2 2h26c1.104 0 2-.896 2-2v-26c0-1.104-.896-2-2-2z" fill="url(#SVGID_4_)"/></g></svg>