<svg enable-background="new 0 0 64 64" height="512" viewBox="0 0 64 64" width="512" xmlns="http://www.w3.org/2000/svg"><g id="folder_setting"><g><g><path clip-rule="evenodd" d="m12.1484 34.6082h20.1499l3.1273-5.5667c.4071-.7266.6809-1.5128 1.5127-1.5128h14.0463l1.5092-16.8336-5.6403-5.9985-11.9298-1.0705-18.0265-1.6181c-.9933-.0913-1.8813.6493-1.969 1.6462l-2.0883 23.2568z" fill="#f7fdff" fill-rule="evenodd"/></g><g><path clip-rule="evenodd" d="m4.69 35.0223-.021 14.7663v4.3207c0 1.9585 1.0775 3.4362 4.7593 3.4538v-21.8212c0-.6248.5089-1.1337 1.1337-1.1337h1.5864l.6914-7.6973h-6.8161c-.7475-.0035-1.3337.4282-1.3337 1.2039z" fill="#fac852" fill-rule="evenodd"/></g><g><path clip-rule="evenodd" d="m9.4283 57.6227h28.1243l-.3826-.3825c-.3791-.3791-.3791-1.0003 0-1.3794l.7967-.8003c-.5054-.8494-.8915-1.776-1.1442-2.7588h-1.1267c-.537 0-.9757-.4387-.9757-.9758v-3.2642c0-.537.4387-.9758.9757-.9758h1.1267c.2527-.9828.6388-1.9094 1.1442-2.7623l-.7967-.7967c-.3791-.3791-.3791-1.0003 0-1.3794l2.3095-2.3095c.3791-.3791 1.0003-.3791 1.3794 0l.7967.7967c.8529-.5054 1.7795-.8915 2.7587-1.1442v-1.1267c0-.537.4422-.9758.9792-.9758h3.2641c.537 0 .9757.4387.9757.9758v1.1267c.9828.2527 1.9093.6388 2.7587 1.1442l.7967-.7967c.3826-.3791 1.0038-.3791 1.3829 0l.9406.9407v-.8073-4.2295-6.7004c0-.8319-.6844-1.5128-1.5163-1.5128h-3.0114-14.0462c-.8318 0-1.1056.7862-1.5127 1.5128l-3.1273 5.5667h-20.1499-1.5864c-.6248 0-1.1337.5089-1.1337 1.1337v21.8212z" fill="#ffe366" fill-rule="evenodd"/></g><g><path clip-rule="evenodd" d="m41.5257 49.6938c0 3.0361 2.4604 5.5 5.4999 5.5 3.036 0 5.4999-2.464 5.4999-5.5 0-3.0361-2.4639-5.5001-5.4999-5.5001-3.0395.0001-5.4999 2.464-5.4999 5.5001z" fill="#d6d6d6" fill-rule="evenodd"/></g><g><path clip-rule="evenodd" d="m36.8225 52.3017c.2527.9828.6388 1.9094 1.1442 2.7588l-.7967.8003c-.3791.3791-.3791 1.0003 0 1.3794l.3826.3826 1.9269 1.9269c.3791.3791 1.0003.3791 1.3794 0l.7967-.7968c.8529.5054 1.7795.8915 2.7587 1.1442v1.1267c0 .537.4422.9758.9792.9758h3.2641c.537 0 .9757-.4387.9757-.9758v-1.1267c.9828-.2527 1.9093-.6388 2.7587-1.1442l.7967.7968c.3826.3791 1.0038.3791 1.3829 0l2.3095-2.3095c.3791-.3791.3791-1.0003 0-1.3794l-.7967-.8003c.5019-.8494.8915-1.776 1.1442-2.7588h1.1231c.537 0 .9792-.4387.9792-.9758v-3.2642c0-.537-.4422-.9758-.9792-.9758h-1.1231c-.2527-.9828-.6423-1.9094-1.1442-2.7588l.7967-.8003c.3791-.3791.3791-1.0003 0-1.3794l-1.3688-1.3689-.9406-.9407c-.3791-.3791-1.0003-.3791-1.3829 0l-.7967.7967c-.8494-.5054-1.776-.8915-2.7587-1.1442v-1.1267c0-.537-.4387-.9758-.9757-.9758h-3.2641c-.537 0-.9792.4387-.9792.9758v1.1267c-.9792.2527-1.9058.6388-2.7587 1.1442l-.7967-.7967c-.3791-.3791-1.0003-.3791-1.3794 0l-2.3096 2.3097c-.3791.3791-.3791 1.0003 0 1.3794l.7967.7968c-.5054.8529-.8915 1.7795-1.1442 2.7623h-1.1267c-.537 0-.9757.4387-.9757.9758v3.2642c0 .537.4387.9758.9757.9758h1.1267zm4.7032-2.6079c0-3.0361 2.4604-5.5001 5.4999-5.5001 3.036 0 5.4999 2.464 5.4999 5.5001s-2.4639 5.5-5.4999 5.5c-3.0395.0001-5.4999-2.4639-5.4999-5.5z" fill="#88a0b5" fill-rule="evenodd"/></g><g><path clip-rule="evenodd" d="m44.7266 21.2248c.365 2.0217.6177 4.1312.7406 6.3038h5.5175l1.5092-16.8336-5.2683-.4773c-.4738-.0421-.8283-.4633-.7862-.9372l.4142-4.584-7.8971-.709-2.3516-.2105c2.7868 2.9097 5.0963 6.6724 6.6687 11.5792.5931 1.8533 1.081 3.8153 1.453 5.8686z" fill="#dbf4fc" fill-rule="evenodd"/></g><g><path clip-rule="evenodd" d="m41.4379 27.5287c.0562 1.0284.0877 2.0709.0877 3.1238 0 3.1589-.2703 6.2126-.7722 9.0942.0386.0281.0737.0597.1053.0913l.7967.7967c.8529-.5054 1.7795-.8915 2.7587-1.1442v-1.1267c0-.537.4422-.9758.9792-.9758h3.2641c.537 0 .9757.4387.9757.9758v1.1267c.9828.2527 1.9093.6388 2.7587 1.1442l.7967-.7967c.3826-.3791 1.0038-.3791 1.3829 0l.9406.9407v-.8073-4.2295-6.7004c0-.8319-.6844-1.5128-1.5163-1.5128h-3.0114z" fill="#fac852" fill-rule="evenodd"/></g><g><path clip-rule="evenodd" d="m47.2256 10.2177 5.2683.4773.0913-1.0144c.0351-.3966.0386-.6248-.2457-.9196l-3.5169-3.6468c-.2527-.2597-.2071-.2597-.5651-.2913l-1.4039-.1264-.4142 4.584c-.0421.4739.3124.8951.7862.9372z" fill="#d6d6d6" fill-rule="evenodd"/></g><g><path clip-rule="evenodd" d="m48.6928 49.3148c0 1.9866-.2071 3.9171-.6002 5.7738 2.5271-.4984 4.4329-2.7237 4.4329-5.3948 0-2.6184-1.8286-4.8051-4.275-5.3632.2913 1.6111.4423 3.2783.4423 4.9842z" fill="#b3b3b3" fill-rule="evenodd"/></g><g><path clip-rule="evenodd" d="m48.2505 44.3307c2.4464.5581 4.275 2.7448 4.275 5.3632 0 2.6711-1.9058 4.8963-4.4329 5.3948-.179.8634-.4036 1.7093-.6634 2.5342-.4808 1.5303-1.088 2.994-1.8146 4.3769h3.043c.537 0 .9757-.4387.9757-.9758v-1.1267c.9828-.2527 1.9093-.6388 2.7587-1.1442l.7967.7968c.3826.3791 1.0038.3791 1.3829 0l2.3095-2.3095c.3791-.3791.3791-1.0003 0-1.3794l-.7967-.8003c.5019-.8494.8915-1.776 1.1442-2.7588h1.1231c.537 0 .9792-.4387.9792-.9758v-3.2642c0-.537-.4422-.9758-.9792-.9758h-1.1231c-.2527-.9828-.6423-1.9094-1.1442-2.7588l.7967-.8003c.3791-.3791.3791-1.0003 0-1.3794l-1.3688-1.3689-.9406-.9407c-.3791-.3791-1.0003-.3791-1.3829 0l-.7967.7967c-.8494-.5054-1.776-.8915-2.7587-1.1442v-1.1267c0-.537-.4387-.9758-.9757-.9758h-2.6605c1.0389 2.1516 1.8076 4.4857 2.2533 6.9427z" fill="#748fa6" fill-rule="evenodd"/></g><g><path d="m58.3517 46.0858h-.375c-.1797-.542-.3989-1.0703-.6567-1.582l.2676-.2686c.3726-.373.5781-.8691.5781-1.3984 0-.5283-.2056-1.0244-.5776-1.3965l-1.0757-1.0757v-11.3231c0-1.3857-1.1289-2.5127-2.5161-2.5127h-1.9179l1.5029-16.76c.0376-.4233.0942-1.0625-.522-1.7021l-3.5908-3.7241c-.3662-.3867-.6128-.4712-1.1216-.5156l-1.4008-.1257c-.0009-.0001-.0016-.0007-.0025-.0007-.0009-.0001-.0016.0004-.0025.0003l-29.9526-2.6883c-.7451-.0723-1.4775.1592-2.0561.6426-.5791.4834-.9346 1.1621-1.0005 1.9096l-2.0068 22.3459h-5.897c-.0044 0-.0088 0-.0132 0-.6738 0-1.2793.2334-1.7065.6582-.4048.4033-.6186.9375-.6186 1.5459l-.021 25.9943c0 1.9697.9595 4.2986 5.397 4.4404.113.0443.2341.0732.3627.0732h27.7101l1.6338 1.6338c.7436.7441 2.0488.7432 2.7934 0l.2671-.2676c.5093.2568 1.0376.4766 1.5815.6562v.3789c0 1.0889.8877 1.9756 1.979 1.9756h3.2641c1.0898 0 1.9761-.8867 1.9761-1.9756v-.3789c.5449-.1797 1.0737-.3984 1.5815-.6553l.27.2705c.7744.7656 2.0268.7646 2.7934-.0039l2.3091-2.3086c.3726-.373.5781-.8691.5781-1.3974s-.2056-1.0244-.5757-1.3945l-.27-.2715c.2578-.5127.4775-1.041.6567-1.583h.375c1.0913 0 1.9795-.8867 1.9795-1.9756v-3.2646c0-1.0887-.8882-1.9754-1.9795-1.9754zm-10.5919-40.3032.3479.0312 3.4946 3.625c-.002.0464-.0083.0962-.0132.1523l-.0016.0176-4.14-.3751zm-31.8358-2.0405c.019-.2153.1221-.4111.29-.5518.168-.1401.3804-.2085.5937-.186l28.9598 2.5995-.3244 3.5885c-.0439.4956.1089.9795.4302 1.3618.3203.3818.7695.6157 1.2622.6597l4.2733.3874-1.3387 14.9279h-13.1317c-1.3144 0-1.8633 1.04-2.226 1.7285l-2.9995 5.351h-18.4708zm-7.4955 32v20.7667c-2.7506-.2837-2.7597-1.6855-2.7597-2.3997l.021-25.9943c0-.0366.0039-.1025.0298-.1284.0283-.0288.127-.0601.3042-.0757h5.7217l-.5117 5.6977h-.672c-1.1763 0-2.1333.957-2.1333 2.1337zm2 0c0-.0723.061-.1338.1333-.1338h21.7365c.3613 0 .6948-.1953.8721-.5098l3.1279-5.5683.1831-.3398c.1196-.227.3203-.6074.457-.6616h17.0579c.2798 0 .5161.2349.5161.5127v9.6237c-.6879-.2301-1.4786-.0801-2.0312.4656l-.2661.2666c-.5078-.2568-1.0366-.4756-1.5815-.6553v-.3779c0-1.0898-.8862-1.9765-1.9761-1.9765h-3.2641c-1.0913 0-1.979.8867-1.979 1.9765v.3779c-.5439.1797-1.0723.3994-1.5815.6562l-.2671-.2676c-.77-.7685-2.0224-.7695-2.7934 0l-2.3095 2.3095c-.7705.7705-.7705 2.0234 0 2.7939l.2671.2676c-.2568.5098-.4761 1.039-.6558 1.584h-.3784c-1.0893 0-1.9756.8867-1.9756 1.9756v3.2646c0 1.0889.8862 1.9756 1.9756 1.9756h.3784c.1797.5449.3989 1.0742.6562 1.584l-.2676.2686c-.4034.4032-.5899.939-.5706 1.4687h-25.4637zm46.8002 15.5594c-.4565 0-.855.3086-.9683.751-.2251.874-.5737 1.7148-1.0371 2.5-.2314.3916-.1685.8906.1523 1.2129l.7983.7676-2.2778 2.3095-.7964-.7969c-.3237-.3232-.8257-.3867-1.2192-.1523-.7705.459-1.6108.8076-2.4966 1.0351-.4419.1143-.7505.5127-.7505.9687l.0239 1.1025-3.2431.0244v-1.1269c0-.456-.3086-.8545-.75-.9678-.8828-.2285-1.7236-.5771-2.4985-1.0371-.1587-.0938-.335-.1396-.5098-.1396-.2588 0-.5146.1006-.7075.293l-.7622.7969-2.3076-2.2763.7969-.8008c.3218-.3232.3838-.8242.1504-1.2158-.46-.7734-.8081-1.6133-1.0347-2.497-.1138-.4414-.5122-.751-.9687-.751l-1.1025.0244-.0244-3.2402h1.1269c.4565 0 .855-.3086.9687-.751.2266-.8828.5752-1.7236 1.0356-2.5009.2329-.3926.1699-.8935-.1533-1.2168l-.7969-.7627 2.2749-2.3095.7969.7969c.3228.3223.8242.3867 1.2173.1533.7749-.46 1.6157-.8086 2.4985-1.0371.4414-.1133.75-.5117.75-.9678l-.021-1.1025 3.2402-.0234v1.126c0 .4561.3086.8545.7505.9687.8857.2275 1.7261.5762 2.4966 1.0351.3935.2344.8955.1699 1.2192-.1523l.7646-.7969 2.3081 2.2763-.7964.7998c-.3213.3232-.3843.8223-.1528 1.2139.4629.7842.8115 1.626 1.0371 2.5.1138.4424.5122.751.9683.751l1.1025-.0244.0205 3.2402h-1.1229z"/><path d="m47.0257 43.1942c-3.5839 0-6.4999 2.916-6.4999 6.4999s2.916 6.4999 6.4999 6.4999 6.4999-2.916 6.4999-6.4999-2.916-6.4999-6.4999-6.4999zm0 10.9999c-2.4814 0-4.4999-2.0185-4.4999-4.4999s2.0185-4.4999 4.4999-4.4999 4.4999 2.0185 4.4999 4.4999-2.0185 4.4999-4.4999 4.4999z"/></g><g><path d="m43.2748 16.718c-.0298 0-.0601-.0015-.0903-.0039l-21.4314-1.9238c-.5503-.0493-.956-.5356-.9067-1.0854s.5337-.9536 1.0854-.9067l21.4314 1.9238c.5503.0493.956.5356.9067 1.0854-.0469.5195-.4829.9106-.9951.9106z"/></g><g><path d="m42.7655 22.4073c-.0298 0-.0601-.0015-.0903-.0039l-21.4343-1.9233c-.5503-.0493-.956-.5352-.9067-1.0854.0498-.5498.5308-.9482 1.0854-.9067l21.4343 1.9233c.5503.0493.956.5352.9067 1.0854-.0469.5195-.4829.9106-.9951.9106z"/></g></g></g></svg>