<svg id="Layer_1" height="512" viewBox="0 0 512 512" width="512" xmlns="http://www.w3.org/2000/svg" xmlns:xlink="http://www.w3.org/1999/xlink" data-name="Layer 1"><linearGradient id="Blue_2" gradientUnits="userSpaceOnUse" x1="6" x2="506" y1="256" y2="256"><stop offset="0" stop-color="#2bc4f3"/><stop offset=".5" stop-color="#00aeee"/><stop offset="1" stop-color="#0095da"/></linearGradient><linearGradient id="linear-gradient" gradientUnits="userSpaceOnUse" x1="111.259" x2="414.094" y1="148.612" y2="451.446"><stop offset="0"/><stop offset="1" stop-opacity="0"/></linearGradient><circle cx="256" cy="256" fill="url(#Blue_2)" r="250"/><path d="m497.655 320.232-158.73-158.732c-23.942-23.171-57.821-36.754-97.559-36.754h-106.243v262.5l118.721 118.727c.72.006 1.435.027 2.156.027 115.863 0 213.3-78.824 241.655-185.768z" fill="url(#linear-gradient)" opacity=".49"/><path d="m376.877 255.786c0 76.6-56.251 131.465-135.511 131.465h-106.243v-262.5h106.243c79.477-.003 135.511 54.328 135.511 131.035zm-74.138 0c0-38.944-25.91-64.808-64.782-64.808h-30.195v130.047h30.195c38.872 0 64.782-26.512 64.782-65.239z" fill="#fff"/></svg>