<svg id="Flat" height="512" viewBox="0 0 64 64" width="512" xmlns="http://www.w3.org/2000/svg"><path d="m8 25a24 24 0 0 0 12.571 21.109 7.188 7.188 0 0 1 3.144 3.274l5.448 11.8a3.121 3.121 0 0 0 2.837 1.817 3.121 3.121 0 0 0 2.833-1.813l5.448-11.8a7.188 7.188 0 0 1 3.144-3.274 24 24 0 1 0 -35.425-21.113z" fill="#fa566a"/><path d="m56 25a23.964 23.964 0 0 0 -10.237-19.656 25.442 25.442 0 0 0 -10.763-2.344c-13.255 0-24 9.745-24 23 0 8.1 5.144 15.227 12.615 19.72a8.558 8.558 0 0 1 3.1 3.663l5.448 11.8a3.116 3.116 0 0 0 1.337 1.426 3.116 3.116 0 0 0 1.337-1.422l5.448-11.8a7.188 7.188 0 0 1 3.144-3.274 24 24 0 0 0 12.571-21.113z" fill="#f82347"/><circle cx="32" cy="25" fill="#dcf2ff" r="19"/><path d="m34 8a18.983 18.983 0 0 0 -14.387 31.387 18.983 18.983 0 0 0 26.774-26.774 18.906 18.906 0 0 0 -12.387-4.613z" fill="#f3f6ff"/><path d="m30 10h4v4h-4z" fill="#78baf6"/><path d="m27 14h10v8h-10z" fill="#90c6f8"/><g fill="#78baf6"><path d="m29 16h8v6h-8z"/><path d="m26 35h-4a1 1 0 0 1 0-2h4a1 1 0 0 1 0 2z"/><path d="m34 35h-4a1 1 0 0 1 0-2h4a1 1 0 0 1 0 2z"/><path d="m42 35h-4a1 1 0 0 1 0-2h4a1 1 0 0 1 0 2z"/><path d="m31 39h-4a1 1 0 0 1 0-2h4a1 1 0 0 1 0 2z"/><path d="m39 39h-4a1 1 0 0 1 0-2h4a1 1 0 0 1 0 2z"/></g><path d="m32 18 9 4-3 8h-12l-3-8z" fill="#768098"/><path d="m32 18 9 4-3 8h-6z" fill="#5f6b87"/><path d="m38 30 2.297-6.124-8.297-3.688-6.466 2.874 2.602 6.938z" fill="#5f6b87"/><path d="m38 30 2.297-6.124-8.297-3.688v9.812z" fill="#52617f"/><path d="m44 31h-24a1 1 0 0 1 0-2h24a1 1 0 0 1 0 2z" fill="#78baf6"/></svg>