<svg id="Layer_5" enable-background="new 0 0 64 64" height="512" viewBox="0 0 64 64" width="512" xmlns="http://www.w3.org/2000/svg"><g><g><g><circle cx="32" cy="22" fill="#69d6f4" r="20"/></g><g><path d="m26 57c0-2.76-2.24-5-5-5s-5 2.24-5 5c0 .34.03.68.1 1h-6.1v-10h4 8 4 8 6v10h-14.1c.07-.32.1-.66.1-1z" fill="#ffeaa7"/></g><g><path d="m59 58h-5.1c.07-.32.1-.66.1-1 0-2.76-2.24-5-5-5s-5 2.24-5 5c0 .34.03.67.1.99l-.1.01h-4v-10-7.67-.33c0-3.31 2.69-6 6-6h1.99 6.01c2.96 0 5.55 1.61 6.92 4h-14.92c-1.1 0-2 .9-2 2v6h18v9c0 1.66-1.34 3-3 3z" fill="#fcd770"/></g><g><path d="m54 57c0 .34-.03.68-.1 1-.46 2.28-2.48 4-4.9 4s-4.44-1.72-4.9-4.01c-.07-.32-.1-.65-.1-.99 0-2.76 2.24-5 5-5s5 2.24 5 5z" fill="#969faa"/></g><g><path d="m26 57c0 .34-.03.68-.1 1-.46 2.28-2.48 4-4.9 4s-4.44-1.72-4.9-4c-.07-.32-.1-.66-.1-1 0-2.76 2.24-5 5-5s5 2.24 5 5z" fill="#969faa"/></g><g><path d="m62 42v4h-18v-6c0-1.1.9-2 2-2h14.92c.69 1.17 1.08 2.54 1.08 4z" fill="#4fc1e9"/></g><g><path d="m34 38h-8c-1.1 0-2 .9-2 2v6c0 1.1.9 2 2 2h8c1.1 0 2-.9 2-2v-6c0-1.1-.9-2-2-2z" fill="#d3a06c"/></g><g><path d="m22 38h-8c-1.1 0-2 .9-2 2v6c0 1.1.9 2 2 2h8c1.1 0 2-.9 2-2v-6c0-1.1-.9-2-2-2z" fill="#d3a06c"/></g><g><path d="m28 28h-8c-1.1 0-2 .9-2 2v6c0 1.1.9 2 2 2h8c1.1 0 2-.9 2-2v-6c0-1.1-.9-2-2-2z" fill="#d3a06c"/></g><g><path d="m28 38h4v4h-4z" fill="#b27946"/></g><g><path d="m16 38h4v4h-4z" fill="#b27946"/></g><g><path d="m22 28h4v4h-4z" fill="#b27946"/></g><g><path d="m62 11v.28c0 1.77-.53 3.51-1.51 4.99l-5.94 8.9c-.34.52-.93.83-1.55.83-.5 0-.98-.2-1.32-.56-.09-.08-.16-.17-.23-.27l-5.94-8.9c-.98-1.48-1.51-3.22-1.51-4.99v-.28c0-1.5.37-2.92 1.02-4.16.43-.82.97-1.56 1.62-2.2 1.62-1.63 3.88-2.64 6.36-2.64 4.97 0 9 4.03 9 9z" fill="#ff826e"/></g><g><path d="m20 11v.28c0 1.77-.53 3.51-1.51 4.99l-5.94 8.9c-.07.1-.14.19-.23.27-.34.36-.82.56-1.32.56-.62 0-1.21-.31-1.55-.83l-5.94-8.9c-.98-1.48-1.51-3.22-1.51-4.99v-.28c0-2.48 1.01-4.74 2.64-6.36 1.62-1.63 3.88-2.64 6.36-2.64 3.47 0 6.48 1.96 7.98 4.84.65 1.24 1.02 2.66 1.02 4.16z" fill="#ff826e"/></g><g><circle cx="53" cy="11" fill="#ffeaa7" r="5"/></g><g><circle cx="11" cy="11" fill="#ffeaa7" r="5"/></g></g><g><path d="m53 17c3.309 0 6-2.691 6-6s-2.691-6-6-6-6 2.691-6 6 2.691 6 6 6zm0-10c2.206 0 4 1.794 4 4s-1.794 4-4 4-4-1.794-4-4 1.794-4 4-4z"/><path d="m17 11c0-3.309-2.691-6-6-6s-6 2.691-6 6 2.691 6 6 6 6-2.691 6-6zm-6 4c-2.206 0-4-1.794-4-4s1.794-4 4-4 4 1.794 4 4-1.794 4-4 4z"/><path d="m53 27c.961 0 1.853-.478 2.387-1.277l5.934-8.9c1.099-1.648 1.68-3.566 1.68-5.547v-.276c0-5.514-4.486-10-10-10-3.421 0-6.444 1.729-8.248 4.357-3.661-2.807-8.139-4.357-12.753-4.357s-9.092 1.55-12.752 4.357c-1.804-2.628-4.827-4.357-8.248-4.357-5.514 0-10 4.486-10 10v.275c0 1.98.581 3.898 1.68 5.547l5.934 8.9c.533.8 1.425 1.278 2.386 1.278.209 0 .412-.032.611-.076.895 3.732 2.78 7.113 5.506 9.862.02.072.042.144.067.214h-3.184c-1.654 0-3 1.346-3 3v6c0 .352.072.686.184 1h-2.184v12h6.35c.826 2.327 3.043 4 5.65 4s4.824-1.673 5.65-4h16.7c.826 2.327 3.043 4 5.65 4s4.824-1.673 5.65-4h4.35c2.206 0 4-1.794 4-4v-13c0-4.963-4.037-9-9-9h-4.14c1.154-1.88 2.017-3.936 2.534-6.075.198.043.399.075.606.075zm0-24c4.411 0 8 3.589 8 8v.275c0 1.584-.465 3.118-1.344 4.438l-5.934 8.9c-.322.484-1.123.484-1.445 0l-5.934-8.9c-.878-1.319-1.343-2.854-1.343-4.438v-.275c0-4.411 3.589-8 8-8zm-13.009 18c-.049-2.721-.297-5.458-.734-8h3.909c.238 1.359.74 2.659 1.515 3.822l2.784 4.178zm-.991 26h-2.184c.112-.314.184-.648.184-1v-3.606c.676-.166 1.344-.366 2-.599zm-14-1v-6c0-.552.448-1 1-1h1v4h6v-4h1c.552 0 1 .448 1 1v6c0 .552-.448 1-1 1h-8c-.552 0-1-.448-1-1zm-8-7h2v2h-2zm3.835-26h3.909c-.437 2.542-.686 5.279-.734 8h-7.474l2.785-4.178c.774-1.163 1.277-2.463 1.514-3.822zm-5.633 10h8.825c.023 1.356.094 2.69.21 4h-4.237c-1.654 0-3 1.346-3 3v3.626c-1.801-2.32-3.029-5.01-3.604-7.916zm7.798 6h2v2h-2zm-3 8c-.552 0-1-.448-1-1v-6c0-.552.448-1 1-1h1v4h6v-4h1c.552 0 1 .448 1 1v6c0 .552-.448 1-1 1h-2-4zm9 2h2v2h-2zm6.391-1.642c-.418-.221-.886-.358-1.391-.358h-3.184c.112-.314.184-.648.184-1v-3h5.823c-.391 1.644-.872 3.115-1.432 4.358zm1.849-6.358h-6.24v-1c0-1.654-1.346-3-3-3h-1.758c-.12-1.307-.192-2.643-.216-4h11.963c-.049 2.842-.309 5.56-.749 8zm-11.222-10c.051-2.949.317-5.645.741-8h10.484c.424 2.355.69 5.051.741 8zm5.982-18c1.765 0 3.655 3.022 4.832 8h-9.665c1.178-4.978 3.068-8 4.833-8zm11 8h-4.136c-.69-3.1-1.69-5.777-2.982-7.579 2.868.604 5.572 1.87 7.897 3.714-.501 1.189-.779 2.495-.779 3.865zm-14.882-7.579c-1.292 1.802-2.292 4.479-2.982 7.579h-4.136c0-1.37-.278-2.676-.779-3.866 2.325-1.844 5.029-3.11 7.897-3.713zm-17.841 21.192-5.934-8.9c-.878-1.319-1.343-2.854-1.343-4.438v-.275c0-4.411 3.589-8 8-8s8 3.589 8 8v.275c0 1.584-.465 3.118-1.344 4.438l-5.934 8.9c-.322.485-1.122.485-1.445 0zm2.723 21.387v-6c0-.552.448-1 1-1h1v4h6v-4h1c.552 0 1 .448 1 1v6c0 .552-.448 1-1 1h-8c-.552 0-1-.448-1-1zm8 15c-2.206 0-4-1.794-4-4s1.794-4 4-4 4 1.794 4 4-1.794 4-4 4zm0-10c-3.309 0-6 2.691-6 6h-4v-8h3 8 4 8 5v8h-12c0-3.309-2.691-6-6-6zm28 10c-2.206 0-4-1.794-4-4s1.794-4 4-4 4 1.794 4 4-1.794 4-4 4zm12-16h-16v-5c0-.552.448-1 1-1h14.315c.434.911.685 1.926.685 3zm-2.111-8h-12.889c-1.654 0-3 1.346-3 3v7h18v8c0 1.103-.897 2-2 2h-4c0-3.309-2.691-6-6-6s-6 2.691-6 6h-2v-17c0-2.757 2.243-5 5-5h8c1.902 0 3.626.765 4.889 2zm-12.889-4c-3.736 0-6.79 2.946-6.982 6.635-.66.263-1.333.486-2.018.674v-.309c0-.351-.072-.684-.183-.997 1.897-3.682 3.062-9.573 3.172-16.003h8.809l1.81 2.714c-.519 2.609-1.598 5.109-3.143 7.286z"/></g></g></svg>