<svg id="Capa_1" enable-background="new 0 0 512 512" height="512" viewBox="0 0 512 512" width="512" xmlns="http://www.w3.org/2000/svg"><g><g><path d="m318.689 291.867h-2.26c-.729 0-1.375-.475-1.578-1.172-1.213-4.171-2.879-8.149-4.944-11.879-.352-.636-.233-1.428.283-1.941l12.914-12.858c2.222-2.212 2.222-5.799 0-8.012l-13.411-13.353c-2.222-2.212-5.825-2.212-8.047 0l-12.914 12.857c-.516.513-1.311.632-1.95.281-3.746-2.056-7.742-3.715-11.931-4.922-.7-.202-1.178-.846-1.178-1.571v-18.181c0-3.129-2.547-5.665-5.69-5.665h-18.966c-3.143 0-5.69 2.536-5.69 5.665v18.181c0 .725-.478 1.369-1.177 1.571-4.189 1.208-8.185 2.867-11.931 4.922-.639.351-1.434.232-1.949-.281l-12.914-12.857c-2.222-2.212-5.825-2.212-8.047 0l-13.411 13.353c-2.222 2.212-2.222 5.799 0 8.012l12.914 12.858c.516.513.635 1.305.282 1.941-2.065 3.73-3.731 7.708-4.944 11.879-.203.697-.849 1.172-1.578 1.172h-18.26c-3.142 0-5.69 2.536-5.69 5.665v18.884c0 3.129 2.548 5.665 5.69 5.665h18.26c.729 0 1.375.475 1.578 1.173 1.213 4.171 2.879 8.149 4.944 11.879.352.636.233 1.428-.282 1.941l-12.914 12.857c-2.222 2.212-2.222 5.799 0 8.012l13.411 13.353c2.222 2.212 5.825 2.212 8.047 0l12.914-12.858c.516-.513 1.311-.632 1.949-.281 3.746 2.056 7.742 3.715 11.931 4.922.7.202 1.177.846 1.177 1.571v18.181c0 3.129 2.548 5.665 5.69 5.665h18.966c3.142 0 5.69-2.536 5.69-5.665v-18.181c0-.726.478-1.369 1.178-1.571 4.189-1.208 8.185-2.866 11.931-4.922.639-.35 1.434-.232 1.95.281l12.914 12.858c2.222 2.212 5.825 2.212 8.047 0l13.411-13.353c2.222-2.212 2.222-5.799 0-8.012l-12.914-12.857c-.516-.513-.635-1.305-.283-1.941 2.065-3.73 3.731-7.708 4.944-11.879.203-.697.849-1.173 1.578-1.173h2.26c3.142 0 5.69-2.536 5.69-5.665v-18.884c0-3.129-2.548-5.665-5.69-5.665zm-60.189 42.796c-15.359 0-27.809-12.396-27.809-27.688s12.451-27.688 27.809-27.688c15.359 0 27.809 12.396 27.809 27.688 0 15.291-12.45 27.688-27.809 27.688z" fill="#cdc6c9"/><path d="m334.69 291.868h-18c3.14 0 5.69 2.539 5.69 5.665v18.888c0 3.126-2.55 5.665-5.69 5.665h18c3.14 0 5.69-2.539 5.69-5.665v-18.888c0-3.126-2.55-5.665-5.69-5.665z" fill="#b2a9af"/><path d="m206.597 87.53v82.827c0 4.224 3.439 7.648 7.681 7.648h26.362l26.835-10 18.907 10h9.362c4.242 0 7.681-3.424 7.681-7.648v-100.31l-39.914-29.354z" fill="#f8eff4"/><path d="m320.431 87.53v82.83c0 4.22-3.44 7.64-7.69 7.64h-20c4.25 0 7.69-3.42 7.69-7.64v-99.29z" fill="#e6dfe3"/><path d="m240.64 178.004v-64.415c0-4.224 3.439-7.648 7.681-7.648h30.38c4.242 0 7.681 3.424 7.681 7.648v64.415z" fill="#8b808a"/><path d="m62.081 504.5c-5.783 0-10.471-4.688-10.471-10.471v-98.492c0-5.783 4.688-10.471 10.471-10.471h27.281l30.664 10 13.789-10h10.281c5.783 0 10.471 4.688 10.471 10.471v98.492c0 5.783-4.688 10.471-10.471 10.471z" fill="#e69e75"/><path d="m171.571 395.54v98.49c0 5.78-4.69 10.47-10.48 10.47h-20c5.79 0 10.48-4.69 10.48-10.47v-98.49c0-5.79-4.69-10.48-10.48-10.48h20c5.79 0 10.48 4.69 10.48 10.48z" fill="#df8f68"/><path d="m386.755 420.433v19.529c0 3.337-11.757 6.334-14.479 8.017-.907.561-1.922.976-3.014 1.208l-27.798 7.171c-6.993 1.49-11.989 7.641-11.989 14.761v28.854c0 2.5 2.035 4.527 4.546 4.527h93.825c2.511 0 4.546-2.027 4.546-4.527l18-28.854c0-7.12-4.997-13.272-11.989-14.761l-12.287-5.749-5.517-1.423c-1.041-.222-2.012-.609-2.886-1.13-2.795-1.667-14.607-4.706-14.607-8.095v-19.116z" fill="#71db75"/><path d="m460.391 471.12v28.85c0 2.5-2.03 4.53-4.55 4.53h-30c2.52 0 4.55-2.03 4.55-4.53v-38.85c0-4.04-1.61-7.77-4.28-10.51l22.29 5.75c6.99 1.49 11.99 7.64 11.99 14.76z" fill="#19d07c"/><path d="m417.661 448.02-16.3 16.23c-3.55 3.53-9.31 3.53-12.86 0l-16.29-16.24c2.76-1.67 4.54-4.69 4.54-8.05v-19.53l36.35.42v19.11c0 3.37 1.79 6.39 4.56 8.06z" fill="#f6a96c"/><path d="m89.362 385.065v41.802c0 1.97 2.192 3.156 3.852 2.084l17.017-10.988c.826-.533 1.889-.533 2.715 0l.865.559 6.152.43c1.66 1.072 3.852-.114 3.852-2.084v-21.802l-10.004-10h-24.449z" fill="#f8eff4"/><path d="m133.811 385.06v41.81c0 1.97-2.19 3.15-3.85 2.08l-16.15-10.43v-33.46z" fill="#e6dfe3"/><path d="m394.933 429.021c-5.406 0-10.506.691-15.002-1.626-10.56-5.444-17.78-16.457-17.78-29.156v-15.435c0-12.699 7.221-23.712 17.781-29.156 4.495-2.317 9.595-1.626 15.001-1.626 18.105 0 22.782 12.677 22.782 30.782v15.435c0 18.105-4.677 30.782-22.782 30.782z" fill="#fed2a4"/><path d="m394.933 350.023c-5.407 0-10.504 1.317-15 3.636 10.558 5.445 17.782 16.448 17.782 29.146v15.435c0 12.698-7.224 23.701-17.782 29.146 4.496 2.319 9.593 3.636 15 3.636 18.105 0 32.782-14.677 32.782-32.782v-15.435c0-18.105-14.677-32.782-32.782-32.782z" fill="#ffbd86"/><path d="m317.502 83.592-25.749-11.401-22.009-18.293c-3.609-3-8.856-3-12.465 0l-47.758 39.694c-7.216 5.998-17.949 5.035-23.973-2.149-6.024-7.185-5.057-17.871 2.159-23.869l69.572-57.824c3.609-3 8.856-3 12.465 0l44.244 36.773 15.328 21.051c7.216 5.998 8.183 16.684 2.159 23.869-6.024 7.185-6.757-1.853-13.973-7.851z" fill="#ff607f"/><path d="m339.316 67.574-25.682-21.345c5.772 6.163 6.139 15.658.484 22.232-5.658 6.577-15.357 7.921-22.637 3.504l26.021 21.628c7.216 5.998 17.949 5.035 23.973-2.149 6.024-7.186 5.057-17.873-2.159-23.87z" fill="#ff4358"/></g><g><path d="m182.311 284.367c-7.273 0-13.19 5.906-13.19 13.166v18.884c0 7.259 5.917 13.165 13.19 13.165h14.027c.643 1.758 1.364 3.49 2.157 5.188l-9.891 9.848c-2.498 2.488-3.874 5.798-3.874 9.321 0 3.522 1.376 6.832 3.876 9.321l13.411 13.352c5.136 5.114 13.492 5.115 18.63.001l9.921-9.877c1.721.799 3.476 1.523 5.259 2.171v13.927c0 7.259 5.917 13.165 13.191 13.165h18.966c7.273 0 13.19-5.906 13.19-13.165v-13.927c1.783-.648 3.539-1.373 5.259-2.171l9.921 9.877c5.136 5.113 13.491 5.115 18.631.001l13.411-13.353c2.498-2.488 3.874-5.798 3.874-9.32 0-3.523-1.376-6.833-3.874-9.321l-9.891-9.847c.793-1.698 1.514-3.43 2.158-5.188h14.026c7.272 0 13.189-5.906 13.189-13.165v-18.884c0-7.259-5.917-13.166-13.189-13.166h-14.027c-.645-1.758-1.364-3.49-2.157-5.188l9.891-9.848c2.498-2.488 3.874-5.798 3.874-9.32 0-3.523-1.376-6.833-3.874-9.321l-13.412-13.354c-5.136-5.113-13.494-5.113-18.63.001l-9.921 9.877c-1.72-.798-3.476-1.523-5.259-2.171v-13.927c0-7.259-5.917-13.165-13.19-13.165h-18.966c-7.273 0-13.191 5.906-13.191 13.165v13.927c-1.783.648-3.538 1.373-5.259 2.171l-9.921-9.877c-5.136-5.115-13.492-5.115-18.63-.001l-13.412 13.354c-2.498 2.488-3.874 5.798-3.874 9.32s1.376 6.832 3.874 9.321l9.891 9.847c-.793 1.698-1.514 3.429-2.157 5.188h-14.028zm29.792-12.807-11.6-11.548 10.829-10.781 11.644 11.593c2.857 2.847 7.319 3.481 10.85 1.543 3.291-1.806 6.791-3.25 10.398-4.291 3.888-1.12 6.602-4.729 6.602-8.778v-16.346h15.347v16.346c0 4.049 2.715 7.659 6.6 8.777 3.609 1.042 7.109 2.485 10.399 4.291 3.531 1.939 7.994 1.304 10.851-1.541l11.646-11.595 10.828 10.781-11.601 11.55c-2.877 2.866-3.515 7.344-1.551 10.887 1.812 3.273 3.26 6.753 4.305 10.345 1.128 3.87 4.738 6.573 8.778 6.573h16.45v15.214h-16.45c-4.04 0-7.65 2.703-8.78 6.578-1.043 3.588-2.491 7.067-4.3 10.336-1.968 3.548-1.33 8.027 1.549 10.893l11.6 11.549-10.828 10.781-11.647-11.596c-2.858-2.844-7.321-3.478-10.849-1.54-3.291 1.807-6.79 3.25-10.402 4.292-3.885 1.121-6.598 4.73-6.598 8.777v16.346h-15.347v-16.346c0-4.046-2.713-7.656-6.601-8.778-3.609-1.041-7.108-2.484-10.398-4.291-3.527-1.936-7.99-1.305-10.851 1.541l-11.646 11.594-10.828-10.781 11.599-11.547c2.88-2.867 3.518-7.346 1.553-10.889-1.812-3.274-3.26-6.753-4.305-10.346-1.128-3.87-4.738-6.573-8.778-6.573h-16.45v-15.214h16.45c4.04 0 7.65-2.703 8.779-6.578 1.044-3.587 2.492-7.067 4.303-10.337 1.966-3.545 1.328-8.023-1.55-10.891z"/><path d="m258.5 342.163c19.469 0 35.309-15.785 35.309-35.188s-15.84-35.189-35.309-35.189c-19.47 0-35.31 15.786-35.31 35.189.001 19.403 15.841 35.188 35.31 35.188zm0-55.377c11.198 0 20.309 9.057 20.309 20.189s-9.11 20.188-20.309 20.188c-11.198 0-20.31-9.056-20.31-20.188.001-11.132 9.112-20.189 20.31-20.189z"/><path d="m450.136 449.06-27.665-7.135c-.103-.027-.206-.051-.31-.073-.902-.192-1.557-.987-1.557-1.89v-10.667c8.918-7.381 14.61-18.53 14.61-30.984v-15.578c0-2.426-.228-4.799-.642-7.108.09-.207.192-.406.264-.624 6.111-18.489 9.21-37.829 9.21-57.482 0-38.073-11.578-74.574-33.483-105.557-20.792-29.408-49.314-51.781-82.638-64.865v-42.1c.154.003.308.019.462.019 7.02-.001 13.994-2.981 18.834-8.755 4.203-5.012 6.195-11.356 5.609-17.864-.586-6.512-3.684-12.405-8.721-16.592l-69.572-57.823c-6.391-5.31-15.665-5.31-22.054 0l-69.571 57.824c-5.038 4.187-8.135 10.079-8.721 16.591-.586 6.507 1.406 12.852 5.609 17.864 4.947 5.9 12.121 8.878 19.296 8.744v40.201c-33.327 11.964-62.265 33.197-83.852 61.566-2.508 3.296-1.869 8.002 1.427 10.51 1.357 1.033 2.953 1.532 4.536 1.532 2.262 0 4.498-1.02 5.974-2.959 18.718-24.6 43.461-43.33 71.915-54.591v9.091c0 8.353 6.81 15.148 15.182 15.148h98.466c8.371 0 15.182-6.795 15.182-15.148v-7.004c28.233 12.248 52.449 31.894 70.39 57.269 20.104 28.437 30.731 61.943 30.731 96.897 0 12.921-1.465 25.69-4.351 38.128-7.358-8.06-17.944-13.125-29.692-13.125h-.143c-22.173 0-40.211 18.038-40.211 40.21v15.578c0 12.451 5.689 23.598 14.604 30.979v10.671c0 .903-.654 1.698-1.556 1.89-.103.022-.208.046-.31.073l-27.66 7.135c-10.298 2.278-17.755 11.527-17.755 22.059v3.036c-19.414 7.568-39.909 11.411-60.973 11.411-28.736 0-57.02-7.376-81.935-21.314v-68.715c0-9.909-8.062-17.971-17.971-17.971h-57.085c-7.33-19.145-11.056-39.333-11.056-60.046 0-26.403 5.947-51.673 17.675-75.107 1.854-3.704.354-8.21-3.35-10.064-3.704-1.853-8.209-.354-10.064 3.35-12.781 25.537-19.261 53.065-19.261 81.821 0 20.631 3.393 40.79 10.084 60.046h-25.956c-9.909 0-17.971 8.062-17.971 17.971v45.39c0 4.142 3.358 7.5 7.5 7.5s7.5-3.358 7.5-7.5v-45.39c0-1.638 1.333-2.971 2.971-2.971h19.781v34.302c0 3.656 1.997 7.015 5.21 8.765 1.496.815 3.142 1.22 4.785 1.22 1.891 0 3.778-.537 5.426-1.601l14.306-9.238 14.306 9.237c3.078 1.989 6.99 2.135 10.211.381 3.213-1.75 5.21-5.109 5.21-8.765v-34.302h19.781c1.638 0 2.971 1.333 2.971 2.971v98.493c0 1.638-1.333 2.971-2.971 2.971h-99.016c-1.638 0-2.971-1.333-2.971-2.971v-20.417c0-4.142-3.358-7.5-7.5-7.5s-7.5 3.358-7.5 7.5v20.417c0 9.909 8.062 17.971 17.971 17.971h99.014c9.909 0 17.971-8.062 17.971-17.971v-12.808c25.307 12.67 53.419 19.344 81.935 19.344 20.978 0 41.445-3.498 60.973-10.404v9.812c0 6.631 5.404 12.026 12.047 12.026h29.126c4.143 0 7.5-3.358 7.5-7.5s-3.357-7.5-7.5-7.5h-26.173v-25.875c0-3.556 2.545-6.678 6.052-7.425.104-.022.208-.046.31-.073l26.94-6.949 12.937 12.897c3.23 3.212 7.473 4.818 11.717 4.818s8.489-1.607 11.723-4.822l12.946-12.89 26.931 6.946c.103.027.206.051.311.073 3.507.747 6.052 3.87 6.052 7.426v25.879h-57.059c-4.143 0-7.5 3.358-7.5 7.5s3.357 7.5 7.5 7.5h60.012c6.642 0 12.047-5.395 12.047-12.026v-28.854c-.002-10.532-7.458-19.781-17.757-22.06zm-258.842-362.436c-1.62-1.933-2.389-4.376-2.163-6.881.225-2.51 1.422-4.783 3.369-6.401l69.571-57.824c.833-.692 2.043-.694 2.878 0l69.572 57.824c1.946 1.618 3.142 3.892 3.369 6.401.226 2.504-.543 4.948-2.164 6.882-3.371 4.019-9.395 4.556-13.432 1.2l-47.758-39.693c-3.195-2.655-7.11-3.982-11.026-3.982s-7.833 1.328-11.027 3.982l-47.757 39.693c-4.037 3.355-10.063 2.818-13.432-1.201zm87.588 83.881h-30.742v-56.915c0-.062.062-.148.181-.148h30.38c.118 0 .182.086.182.148v56.915zm33.862 0h-18.861v-56.915c0-8.353-6.811-15.148-15.182-15.148h-30.38c-8.371 0-15.181 6.795-15.181 15.148v56.915h-18.862c-.118 0-.182-.086-.182-.148v-70.824c.072-.059.147-.113.219-.173l47.757-39.693c.833-.693 2.043-.694 2.878 0l47.758 39.693c.071.059.147.107.218.165v70.831c-.001.063-.064.149-.182.149zm-186.43 247.162-9.302-6.007c-3.296-2.127-7.556-2.127-10.851.001l-9.3 6.006v-25.102h29.453zm243.336-34.934c0-13.901 11.31-25.21 25.211-25.21h.143c13.901 0 25.211 11.309 25.211 25.21v15.578c0 13.901-11.31 25.21-25.211 25.21h-.143c-13.901 0-25.211-11.309-25.211-25.21zm26.422 76.199c-.629.626-1.653.626-2.276.007l-11.393-11.358c1.179-2.313 1.852-4.906 1.852-7.619v-2.87c3.381.926 6.935 1.43 10.606 1.43h.143c3.669 0 7.221-.503 10.601-1.428v2.869c0 2.717.675 5.313 1.858 7.629z"/></g></g></svg>