<svg id="Layer_1" height="512" viewBox="0 0 512 512" width="512" xmlns="http://www.w3.org/2000/svg"><g><g><path d="m459.862 236.8c-11.679 0-22.12-7.226-26.279-18.139-1.214-3.186-2.52-6.327-3.915-9.419-4.819-10.689-2.585-23.23 5.706-31.521l.011-.011c10.989-10.989 10.989-28.805 0-39.793l-21.301-21.301c-5.494-5.494-12.696-8.242-19.897-8.241h-40c-7.201 0-14.402 2.747-19.896 8.241l-.012.012c-.525.525-1.067 1.024-1.624 1.5-10.525-4.33-17.456-14.558-17.456-25.988.001-15.542-12.597-28.14-28.137-28.14h-30.124c-1.686 0-3.334.157-4.938.441-1.604-.284-3.252-.441-4.938-.441h-30.124c-15.54 0-28.138 12.598-28.138 28.138 0 11.43-6.931 21.658-17.456 25.988-.557-.476-1.099-.975-1.624-1.5l-.012-.012c-5.494-5.494-12.695-8.241-19.896-8.241h-40c-7.201 0-14.402 2.747-19.897 8.241l-21.301 21.301c-10.989 10.989-10.989 28.805 0 39.793l.011.011c8.291 8.291 10.525 20.832 5.706 31.521-1.395 3.093-2.701 6.233-3.915 9.419-4.159 10.913-14.6 18.139-26.279 18.139-15.539.002-28.137 12.6-28.137 28.14v30.124c0 15.54 12.598 28.138 28.138 28.138 11.679 0 22.12 7.226 26.279 18.139 1.214 3.186 2.52 6.327 3.915 9.419 4.819 10.689 2.585 23.23-5.706 31.521l-.011.011c-10.989 10.989-10.989 28.805 0 39.793l21.301 21.301c5.494 5.494 12.696 8.241 19.897 8.241h40c7.201 0 14.402-2.747 19.896-8.241l.012-.012c.525-.525 1.067-1.024 1.624-1.5 10.525 4.33 17.456 14.558 17.456 25.988 0 15.54 12.598 28.138 28.138 28.138h30.124c1.686 0 3.334-.157 4.938-.441 1.604.284 3.252.441 4.938.441h30.124c15.54 0 28.138-12.598 28.138-28.138 0-11.43 6.931-21.657 17.456-25.988.557.476 1.099.975 1.624 1.5l.012.012c5.494 5.494 12.695 8.241 19.896 8.241h40c7.201 0 14.402-2.747 19.897-8.241l21.301-21.301c10.989-10.989 10.989-28.805 0-39.793l-.011-.011c-8.291-8.291-10.525-20.832-5.706-31.521 1.395-3.093 2.701-6.233 3.915-9.419 4.159-10.913 14.6-18.139 26.279-18.139 15.54 0 28.138-12.598 28.138-28.138v-30.124c-.002-15.54-12.6-28.138-28.14-28.138z" fill="#faa019"/></g><g><g><path d="m448 295.062v-30.124c0-15.54-12.598-28.138-28.138-28.138-11.679 0-22.12-7.226-26.279-18.139-1.214-3.186-2.52-6.327-3.915-9.419-4.819-10.689-2.585-23.23 5.706-31.521l.011-.011c10.989-10.989 10.989-28.805 0-39.793l-21.301-21.301c-10.989-10.989-28.805-10.989-39.793 0l-.012.012c-8.291 8.291-20.832 10.525-31.521 5.706-3.093-1.394-6.233-2.7-9.419-3.915-10.913-4.159-18.139-14.6-18.139-26.279 0-15.542-12.598-28.14-28.138-28.14h-30.124c-15.54 0-28.138 12.598-28.138 28.138 0 11.679-7.226 22.12-18.139 26.279-3.186 1.214-6.327 2.52-9.419 3.915-10.689 4.819-23.23 2.585-31.521-5.706l-.012-.012c-10.989-10.988-28.805-10.988-39.793 0l-21.301 21.301c-10.989 10.989-10.989 28.805 0 39.793l.011.011c8.291 8.291 10.525 20.832 5.706 31.521-1.394 3.093-2.701 6.233-3.915 9.419-4.159 10.913-14.6 18.139-26.279 18.139-15.54.002-28.138 12.6-28.138 28.14v30.124c0 15.54 12.598 28.138 28.138 28.138 11.679 0 22.12 7.226 26.279 18.139 1.214 3.186 2.52 6.327 3.915 9.419 4.819 10.689 2.585 23.23-5.706 31.521l-.011.011c-10.989 10.989-10.989 28.805 0 39.793l21.301 21.301c10.989 10.989 28.805 10.989 39.793 0l.012-.012c8.291-8.291 20.832-10.525 31.521-5.706 3.093 1.394 6.233 2.7 9.419 3.915 10.913 4.159 18.139 14.6 18.139 26.279 0 15.54 12.598 28.138 28.138 28.138h30.124c15.54 0 28.138-12.598 28.138-28.138 0-11.679 7.226-22.12 18.139-26.279 3.186-1.214 6.327-2.52 9.419-3.915 10.689-4.819 23.23-2.585 31.521 5.706l.012.012c10.989 10.988 28.805 10.988 39.793 0l21.301-21.301c10.989-10.989 10.989-28.805 0-39.793l-.011-.011c-8.291-8.291-10.525-20.832-5.706-31.521 1.394-3.093 2.701-6.233 3.915-9.419 4.159-10.913 14.6-18.139 26.279-18.139 15.54 0 28.138-12.598 28.138-28.138z" fill="#ffcd05"/></g></g><g><g><g><circle cx="232" cy="280" fill="#555a6e" r="128"/></g></g><g fill="#faa019"><path d="m322.51 370.51c-24.176 24.176-56.32 37.49-90.51 37.49-70.58 0-128-57.421-128-128h10.204c3.201 0 5.796-2.595 5.796-5.796 0-1.419-.521-2.79-1.464-3.851l-18.098-20.36c-1.127-1.268-2.742-1.993-4.438-1.993s-3.311.725-4.438 1.993l-18.098 20.36c-.943 1.061-1.464 2.431-1.464 3.851 0 3.201 2.595 5.796 5.796 5.796h10.204c0 79.402 64.598 144 144 144 38.464 0 74.626-14.979 101.824-42.177 3.124-3.124 3.124-8.19 0-11.314s-8.188-3.124-11.314.001z"/><path d="m386.204 280h-10.204c0-79.402-64.598-144-144-144-38.463 0-74.625 14.979-101.823 42.177-3.125 3.124-3.125 8.19 0 11.314 3.124 3.125 8.189 3.125 11.313 0 24.177-24.177 56.32-37.491 90.51-37.491 70.579 0 128 57.421 128 128h-10.204c-3.201 0-5.796 2.595-5.796 5.796 0 1.419.521 2.79 1.464 3.851l18.098 20.36c1.127 1.268 2.742 1.993 4.438 1.993s3.311-.725 4.438-1.993l18.098-20.36c.943-1.061 1.464-2.431 1.464-3.851 0-3.201-2.595-5.796-5.796-5.796z"/></g></g><g><g><path d="m123.314 252.686 44.686-44.686v80l-28.686 28.686c-2.122 2.122-4.999 3.314-8 3.314-6.248 0-11.314-5.065-11.314-11.314v-48c0-3 1.192-5.878 3.314-8z" fill="#5ad7ff"/></g><g><path d="m340.686 252.686-44.686-44.686v80l28.686 28.686c2.122 2.122 4.999 3.314 8 3.314 6.248 0 11.314-5.065 11.314-11.314v-48c0-3-1.192-5.878-3.314-8z" fill="#2387c3"/></g><g><path d="m272 320h-80c-13.255 0-24-10.745-24-24v-176.808c0-35.031 15.308-68.313 41.905-91.111l8.021-6.875c3.92-3.359 8.912-5.206 14.074-5.206 5.162 0 10.154 1.847 14.074 5.206l8.021 6.875c26.597 22.798 41.905 56.08 41.905 91.111v176.808c0 13.255-10.745 24-24 24z" fill="#a5c3dc"/></g><g><path d="m192 320h40v-304c-5.162 0-10.154 1.847-14.074 5.206l-8.021 6.875c-26.597 22.798-41.905 56.08-41.905 91.111v176.808c0 13.255 10.745 24 24 24z" fill="#d7e6f0"/></g><g><path d="m232 16v64h-57.41c6.88-19.92 18.96-37.9 35.32-51.92l8.02-6.87c1.96-1.68 4.19-2.98 6.57-3.87 2.38-.88 4.92-1.34 7.5-1.34z" fill="#5ad7ff"/></g><g><path d="m289.41 80h-57.41v-64c2.58 0 5.12.46 7.5 1.34 2.38.89 4.61 2.19 6.57 3.87l8.02 6.87c16.36 14.02 28.44 32 35.32 51.92z" fill="#2387c3"/></g><g><circle cx="232" cy="136" fill="#2387c3" r="40"/></g><g><path d="m232 96c-22.091 0-40 17.909-40 40s17.909 40 40 40z" fill="#5ad7ff"/></g><g><circle cx="232" cy="136" fill="#463c4b" r="24"/></g><g><path d="m248.971 119.029c-9.373-9.373-24.569-9.373-33.941 0s-9.373 24.569 0 33.941z" fill="#555a6e"/></g><g><path d="m192 320h80v16h-80z" fill="#463c4b"/></g><g><path d="m232 320c4.418 0 8-3.582 8-8v-96c0-4.418-3.582-8-8-8-4.418 0-8 3.582-8 8v96c0 4.418 3.582 8 8 8z" fill="#2387c3"/></g><g><path d="m192 336v26.667c0 4.418 3.582 8 8 8 4.418 0 8-3.582 8-8v-2.667c0-4.418 3.582-8 8-8 4.418 0 8 3.582 8 8v39.769c0 4.418 3.582 8 8 8 4.418 0 8-3.582 8-8v-39.769c0-4.418 3.582-8 8-8 4.418 0 8 3.582 8 8v24c0 4.418 3.582 8 8 8 4.418 0 8-3.582 8-8v-48z" fill="#5ad7ff"/></g></g></g></svg>