<svg height="512" viewBox="0 0 96 96" width="512" xmlns="http://www.w3.org/2000/svg"><g><g><path d="m91.6 46.28h-48.63a2.715 2.715 0 0 1 -1.76-.65c-4.819-4.1-5.042-4.141-5.39-4.88-.4-.8-.28-.351-.28-12.76a1.029 1.029 0 0 1 1.03-1.03h2.11a1.038 1.038 0 0 1 .99.75l1.92 6.8a1.191 1.191 0 0 0 1.15.87h41.14a4.738 4.738 0 0 1 2.49.71l6.29 3.9c1.09.688 1.822 1.048 2.18 2.17a3.19 3.19 0 0 1 -3.24 4.12z" fill="#d0d4fd"/><path d="m42.79 42.1a1.827 1.827 0 0 1 -1.82 1.82h-1.77c-2.512-2.129-3.038-2.443-3.38-3.17 5.263-.5 5.05-.48 5.15-.48a1.822 1.822 0 0 1 1.82 1.83z" fill="#9e9de4"/><path d="m93.724 40.688a1.424 1.424 0 0 1 -.842 2.566c-9.356.029-46.663.016-46.912.016a2.725 2.725 0 0 1 -1.76-.64l-4.7-3.99a2.721 2.721 0 0 1 -.97-2.07v-9.61a1.049 1.049 0 0 1 1.13.75l1.92 6.8a1.191 1.191 0 0 0 1.15.87h41.14a4.715 4.715 0 0 1 2.488.709c6.163 3.821 6.932 4.279 7.356 4.599z" fill="#dfe8fd"/><rect fill="#fff" height="3.292" rx="1.646" width="21.249" x="44.752" y="36.458"/><rect fill="#fff" height="3.292" rx="1.646" width="4.073" x="73.958" y="36.458"/><path d="m90.4 38.587h-9.157a1.764 1.764 0 0 1 -1.516-.864l-1.389-2.343h5.549a4.728 4.728 0 0 1 2.485.708z" fill="#53c5fd"/><path d="m69.985 41.578-15.565 1.463a1.62 1.62 0 0 0 -1.469 1.614 1.62 1.62 0 0 0 1.621 1.62h15.633a2.354 2.354 0 1 0 -.22-4.7z" fill="#1c8efd"/><path d="m61.429 42.382-7.009.659a1.62 1.62 0 0 0 -1.469 1.614 1.62 1.62 0 0 0 1.621 1.62h7.04a1.95 1.95 0 0 0 1.95-1.95 1.951 1.951 0 0 0 -2.133-1.943z" fill="#4066da"/><path d="m33.435 41.013a1.544 1.544 0 0 0 1.544 1.544h5.988a1.825 1.825 0 0 0 1.824-1.825 1.824 1.824 0 0 0 -1.991-1.816l-5.962.56a1.543 1.543 0 0 0 -1.403 1.537z" fill="#4066da"/><rect fill="#878eb7" height="5.196" rx="1.992" width="11.227" x="57.629" y="46.275"/><path d="m68.82 47.92h-11.16a1.987 1.987 0 0 1 1.96-1.64c7.437 0 7.722-.118 8.28.3a1.952 1.952 0 0 1 .92 1.34z" fill="#6e70b7"/><path d="m65.272 46.275h1.592a1.992 1.992 0 0 1 1.992 1.992v1.211a1.992 1.992 0 0 1 -1.992 1.992h-1.592a0 0 0 0 1 0 0v-5.2a0 0 0 0 1 0 .005z" fill="#646b99"/><path d="m68.82 47.92h-3.55v-1.64c1.086 0 2.1-.1 2.63.3a1.916 1.916 0 0 1 .92 1.34z" fill="#4b527b"/><g fill="#53c5fd"><path d="m71.123 39.276h-1.529a1 1 0 0 1 0-2h1.529a1 1 0 0 1 0 2z"/><path d="m65.786 39.276h-1.529a1 1 0 0 1 0-2h1.529a1 1 0 0 1 0 2z"/><path d="m60.449 39.276h-1.529a1 1 0 0 1 0-2h1.529a1 1 0 0 1 0 2z"/><path d="m55.112 39.276h-1.529a1 1 0 0 1 0-2h1.529a1 1 0 0 1 0 2z"/><path d="m49.775 39.276h-1.528a1 1 0 0 1 0-2h1.528a1 1 0 0 1 0 2z"/><path d="m87.08 61.24v33.76h-68.58v-26.45z"/></g><g fill="#9ae3fd"><path d="m87.08 61.28v5.48l-28.23 28.24h-5.48z"/><path d="m87.08 71.34v2.74l-20.91 20.92h-2.74z"/><path d="m55.56 64.6-30.39 30.4h-2.74l30.07-30.08z"/><path d="m74.51 62.58-32.41 32.42h-8.36l31.44-31.43c9.441-1.006 8.125-.87 9.33-.99z"/></g><path d="m87.08 61.24v1.83l-68.58 7.32v-1.84c15.214-1.624.373-.042 68.58-7.31z" fill="#4993ee"/><path d="m75.63 79.16v-14.7l-2 .21v14.49l-11.15-.03v-13.27l-2 .22v13.05l-10.78-.03v-11.88l-2 .22v11.66l-11.16-.03v-10.44l-2 .21v10.23l-2.27-.006v-11.984l-13.77 1.47v26.45h18.26c-.314-.726-.22.987-.22-13.93l11.16.03v13.9h2v-13.9l10.78.03v13.87h2v-13.87l11.15.03v13.84h2v-13.84l11.45.03v-2zm-43.36 5.47v-3.566l2.27.006v8.8z" fill="#4993ee"/><path d="m89.97 55.74v5.19c-66.182 7.059-53.193 5.67-71.47 7.62v-5.18c18.387-1.957 4.273-.451 71.47-7.63z" fill="#ffa366"/><path d="m89.97 55.74v2.38c-66.182 7.059-53.193 5.674-71.47 7.62v-2.37c18.387-1.957 4.273-.451 71.47-7.63z" fill="#ffc670"/><path d="m32.31 61.9v5.18l-13.81 1.47v-5.18z" fill="#ff6c66"/><path d="m8.389 84.629h17.631l4.494 10.371h-26.619z" fill="#adb6e4"/><path d="m12.88 84.63-4.49 10.37h-4.49l4.49-10.37z" fill="#8a8ecb"/><path d="m26.709 95h-3.415l-4.5-10.37h3.425z" fill="#c6defd"/><path d="m8.389 32.04h17.631v52.589h-17.631z" fill="#c6defd"/><path d="m18.79 32.04h3.43v52.59h-3.43z" fill="#e4fcfd"/><path d="m8.389 32.04h17.631v2.543h-17.631z" fill="#e4fcfd"/><path d="m8.389 32.04h4.491v52.589h-4.491z" fill="#b2c5f3"/><path d="m6.402 19.595h21.606l-1.988 12.445h-17.631z" fill="#53c5fd"/><path d="m15.19 19.595h10.63l-.978 12.445h-8.674z" fill="#9ae3fd"/><path d="m22.269 29.833.314-10.238h-4.156l.314 10.238z" fill="#fff"/><path d="m12.88 32.04h-4.49l-1.99-12.44h4.49z" fill="#539dfd"/><path d="m5.278 15.447h23.853v4.148h-23.853z" fill="#c6defd"/><path d="m5.278 15.447h6.889v4.148h-6.889z" fill="#b2c5f3"/><path d="m5.278 15.447h23.853v1.803h-23.853z" fill="#b2c5f3"/><path d="m17.205 42.435h8.815v17.563h-8.815z" fill="#9eb6e4"/><path d="m18.79 42.43h3.43v17.57h-3.43z" fill="#c6defd"/><path d="m1 11.298h32.41v4.148h-32.41z" fill="#8f93d5"/><path d="m1 11.298h10.083v4.148h-10.083z" fill="#767aad"/><path d="m19.633 11.298h3.877v4.148h-3.877z" fill="#9eb6e4"/><path d="m25.82 11.298h1.567v4.148h-1.567z" fill="#9eb6e4"/></g><g fill="#302d3d"><path d="m94.042 39.67c-2.033-1.261-5.1-3.169-7.13-4.43a5.744 5.744 0 0 0 -3.01-.86c-43.873 0-41.287.087-41.34-.15l-1.92-6.79a2.034 2.034 0 0 0 -1.95-1.48h-2.11a2.031 2.031 0 0 0 -2.03 2.03v10.52a2.519 2.519 0 0 0 -2.1 2.5 2.546 2.546 0 0 0 2.54 2.55h2.24l3.35 2.83a3.709 3.709 0 0 0 2.4.89h13.83a6.058 6.058 0 0 0 -.17 2.2 2.992 2.992 0 0 0 2.99 2.99h7.24a3 3 0 0 0 3-2.99 5.815 5.815 0 0 0 -.18-2.2h21.92a4.12 4.12 0 0 0 2.43-7.61zm-7.142-2.08h-5.65a.765.765 0 0 1 -.65-.38l-.5-.83c5.173 0 4.488-.237 6.8 1.21zm-51.91 3.97a.546.546 0 0 1 -.54-.55.561.561 0 0 1 .49-.54c2.262-.216.916-.089 5.96-.56a.827.827 0 1 1 .08 1.65zm23.65 7.92v-1.21a.986.986 0 0 1 .99-.99h4.65v3.19h-4.65a.986.986 0 0 1 -.988-.99zm9.23-1.21v1.21a.994.994 0 0 1 -1 .99h-.59v-3.19h.59a.994.994 0 0 1 1.002.99zm-13.29-2.99a.622.622 0 0 1 -.06-1.24l15.57-1.47a1.358 1.358 0 1 1 .13 2.71zm37.03 0h-18.328a3.358 3.358 0 0 0 -3.38-4.7l-15.56 1.47a2.6 2.6 0 0 0 -2.3 3.23h-9.06a1.728 1.728 0 0 1 -1.11-.41l-1.55-1.31h.66a2.834 2.834 0 0 0 1.9-4.92 2.874 2.874 0 0 0 -2.17-.72l-4.16.39.03-10.35 2.14.02 1.91 6.8a2.217 2.217 0 0 0 2.12 1.6h35.03l1.1 1.85a2.754 2.754 0 0 0 2.37 1.36h8.89c2.4 1.488 1.783 1.1 2.84 1.77 1.918 1.24.973 3.92-1.37 3.92z"/><path d="m71.135 37.276h-1.529a1 1 0 0 0 0 2h1.529a1 1 0 0 0 0-2z"/><path d="m65.8 37.276h-1.53a1 1 0 1 0 0 2h1.53a1 1 0 0 0 0-2z"/><path d="m60.461 37.276h-1.528a1 1 0 0 0 0 2h1.528a1 1 0 0 0 0-2z"/><path d="m55.124 37.276h-1.524a1 1 0 0 0 0 2h1.528a1 1 0 0 0 0-2z"/><path d="m49.788 37.276h-1.529a1 1 0 0 0 0 2h1.529a1 1 0 0 0 0-2z"/><path d="m89.872 54.75-62.84 6.7v-29.31l1.84-11.54h.27a1 1 0 0 0 1-1v-3.15h3.28a1 1 0 0 0 1-1v-4.15a1 1 0 0 0 -1-1h-10.365v-1.287h.9a1 1 0 0 0 0-2h-3.8a1 1 0 0 0 0 2h.9v1.287h-5.217v-6.176a1 1 0 1 0 -2 0v6.176h-4.44v-2.287a1 1 0 0 0 -2 0v2.287h-6.388a1 1 0 0 0 -1 1v4.15a1 1 0 0 0 1 1h3.28v3.15a1 1 0 0 0 1 1h.27l1.838 11.54v52.27l-4.408 10.19a1 1 0 0 0 .92 1.4h83.18a1 1 0 0 0 1-1v-32.87l1.99-.21a1 1 0 0 0 .9-.99v-5.19a1 1 0 0 0 -1.11-.99zm-64.84 28.88h-15.632v-50.59h15.63v8.39h-7.82a1 1 0 0 0 -1 1v17.57a1 1 0 0 0 1 1h7.82zm48.61-6.512h-11.15v-12.258l11.15-1.18zm-42.46 16.882-4.15-9.59v-5.292h7.52v14.882zm5.37-14.882h11.16v14.882h-11.16zm13.16 0h10.78v14.882h-10.78zm12.78 0h11.15v14.882h-11.15zm-2-2h-10.78v-10.888c8.162-.876 5.77-.621 10.78-1.15zm-12.78 0h-11.16v-9.478l11.16-1.2zm-13.16 0h-7.52v-8.468l7.52-.8zm-9.52-18.118h-6.82v-15.57h6.82zm-23.02-46.7h30.41v2.15h-30.41zm26.13 4.15v2.15h-21.85v-2.15zm-1.29 4.15-1.67 10.44h-15.93l-1.67-10.44zm-21.42 73.4 3.63-8.37h16.31l3.628 8.37zm70.21 0v-14.882h10.45v14.882zm10.45-16.882h-10.45v-13.658l10.45-1.11zm2.89-17.088c-48.342 5.142-48.582 5.188-61.95 6.61v-3.17c8.709-.938.594-.067 61.95-6.62z"/></g></g></svg>