<svg id="Capa_1" enable-background="new 0 0 510 510" height="512" viewBox="0 0 510 510" width="512" xmlns="http://www.w3.org/2000/svg" xmlns:xlink="http://www.w3.org/1999/xlink"><linearGradient id="SVGID_1_" gradientUnits="userSpaceOnUse" x1="40.877" x2="259.866" y1="94.652" y2="298.642"><stop offset="0" stop-color="#ffdfcf"/><stop offset="1" stop-color="#ffa78f"/></linearGradient><linearGradient id="lg1"><stop offset="0" stop-color="#f89580" stop-opacity="0"/><stop offset=".9972" stop-color="#c5715a"/></linearGradient><linearGradient id="SVGID_00000160192815125948229340000012283605909840381581_" gradientUnits="userSpaceOnUse" x1="292.903" x2="412.897" xlink:href="#lg1" y1="240.796" y2="257.295"/><linearGradient id="SVGID_00000093857398658872358550000007618325823948552627_" gradientUnits="userSpaceOnUse" x1="213.015" x2="213.015" xlink:href="#lg1" y1="435.042" y2="487.539"/><linearGradient id="SVGID_00000178184242526251712450000015590005097444724100_" gradientUnits="userSpaceOnUse" x1="121.446" x2="192.446" xlink:href="#lg1" y1="-65.877" y2="155.123"/><linearGradient id="SVGID_00000106832154868700258970000012789229038510716318_" gradientUnits="userSpaceOnUse" x1="50.851" x2="121.851" xlink:href="#lg1" y1="-43.197" y2="177.803"/><linearGradient id="SVGID_00000078037707932477377560000001014968155391564198_" gradientUnits="userSpaceOnUse" x1="23.783" x2="94.783" xlink:href="#lg1" y1="-34.501" y2="186.499"/><linearGradient id="SVGID_00000049187206332712692510000011066914666842137997_" gradientUnits="userSpaceOnUse" x1="-.255" x2="70.745" xlink:href="#lg1" y1="196.677" y2="417.677"/><linearGradient id="SVGID_00000169517078621269518220000012115335019200616371_" gradientUnits="userSpaceOnUse" x1="393.99" x2="491.485" xlink:href="#lg1" y1="189.956" y2="68.462"/><linearGradient id="lg2"><stop offset="0" stop-color="#fd4755"/><stop offset="1" stop-color="#a72b2b"/></linearGradient><linearGradient id="SVGID_00000023262357898739828360000004936911086583395469_" gradientUnits="userSpaceOnUse" x1="160.232" x2="449.717" xlink:href="#lg2" y1="127.789" y2="400.775"/><linearGradient id="SVGID_00000138566998785802074700000017316824775313403781_" gradientUnits="userSpaceOnUse" x1="82.929" x2="372.414" xlink:href="#lg2" y1="209.764" y2="482.75"/><linearGradient id="lg3"><stop offset="0" stop-color="#5a5a5a"/><stop offset="1" stop-color="#444"/></linearGradient><linearGradient id="SVGID_00000041978232088289514990000015534741836821477040_" gradientUnits="userSpaceOnUse" x1="72.038" x2="72.038" xlink:href="#lg3" y1="220.552" y2="294.186"/><linearGradient id="SVGID_00000151536928652984796420000001810153254333216642_" gradientUnits="userSpaceOnUse" x1="125.237" x2="125.237" xlink:href="#lg3" y1="220.552" y2="294.186"/><linearGradient id="SVGID_00000129179266766595033040000015114746087261323399_" gradientUnits="userSpaceOnUse" x1="182.758" x2="182.758" xlink:href="#lg3" y1="220.552" y2="294.186"/><linearGradient id="SVGID_00000004518954991061767590000017098731055006438318_" gradientUnits="userSpaceOnUse" x1="244.08" x2="244.08" xlink:href="#lg3" y1="220.552" y2="294.186"/><linearGradient id="SVGID_00000101071939741619078280000011405637104539615876_" gradientUnits="userSpaceOnUse" x1="297.184" x2="297.184" xlink:href="#lg3" y1="220.552" y2="294.186"/><linearGradient id="SVGID_00000108274173235697468890000000914512513311520395_" gradientUnits="userSpaceOnUse" x1="352.331" x2="352.331" xlink:href="#lg3" y1="220.552" y2="294.186"/><linearGradient id="lg4"><stop offset="0" stop-color="#9e9797"/><stop offset="1" stop-color="#766e6e"/></linearGradient><linearGradient id="SVGID_00000014627421440036435020000009622597937908868271_" gradientUnits="userSpaceOnUse" x1="233.194" x2="308.19" xlink:href="#lg4" y1="423.549" y2="536.044"/><linearGradient id="lg5"><stop offset="0" stop-color="#766e6e" stop-opacity="0"/><stop offset=".3525" stop-color="#686363" stop-opacity=".353"/><stop offset="1" stop-color="#444"/></linearGradient><linearGradient id="SVGID_00000068653055019455677040000001746529019539454851_" gradientUnits="userSpaceOnUse" x1="268.57" x2="335.07" xlink:href="#lg5" y1="437.877" y2="495.377"/><linearGradient id="lg6"><stop offset="0" stop-color="#766e6e" stop-opacity="0"/><stop offset="1" stop-color="#444"/></linearGradient><linearGradient id="SVGID_00000097465706313345106670000011408606239391625627_" gradientUnits="userSpaceOnUse" x1="279.498" x2="279.498" xlink:href="#lg6" y1="469.131" y2="516.633"/><linearGradient id="SVGID_00000147932226142778573920000000004696542357982887_" gradientUnits="userSpaceOnUse" x1="385.048" x2="412.048" xlink:href="#lg4" y1="444.599" y2="510.099"/><linearGradient id="SVGID_00000094602475078480382970000008915760707682079381_" gradientUnits="userSpaceOnUse" x1="407.421" x2="407.421" xlink:href="#lg6" y1="475.631" y2="509.146"/><linearGradient id="SVGID_00000048483470440939843260000000625052869358340518_" gradientUnits="userSpaceOnUse" x1="253.416" x2="297.684" xlink:href="#lg5" y1="363.381" y2="407.648"/><linearGradient id="SVGID_00000129172909522633685090000004159693604136504479_" gradientUnits="userSpaceOnUse" x1="223.416" x2="267.684" xlink:href="#lg5" y1="460.381" y2="504.648"/><linearGradient id="SVGID_00000160879904548726397570000001523502698063825059_" gradientUnits="userSpaceOnUse" x1="293.969" x2="324.257" xlink:href="#lg5" y1="390.433" y2="420.722"/><linearGradient id="SVGID_00000119105552029047803380000018117841296308139162_" gradientUnits="userSpaceOnUse" x1="175.719" x2="206.007" xlink:href="#lg5" y1="437.183" y2="467.472"/><linearGradient id="SVGID_00000111150762740750459930000001217234931508011686_" gradientUnits="userSpaceOnUse" x1="243.057" x2="264.802" xlink:href="#lg5" y1="416.521" y2="438.267"/><linearGradient id="SVGID_00000076602565751182236090000004588497754238809522_" gradientUnits="userSpaceOnUse" x1="298.557" x2="320.302" xlink:href="#lg5" y1="451.021" y2="472.767"/><linearGradient id="SVGID_00000101784540505946378170000005677149591984403884_" gradientUnits="userSpaceOnUse" x1="413.416" x2="457.684" xlink:href="#lg5" y1="463.881" y2="508.148"/><linearGradient id="SVGID_00000056396396948702940050000006458152737728393647_" gradientUnits="userSpaceOnUse" x1="353.719" x2="384.007" xlink:href="#lg5" y1="467.183" y2="497.472"/><linearGradient id="SVGID_00000074420175722934819210000001117714265538654910_" gradientUnits="userSpaceOnUse" x1="398.807" x2="420.552" xlink:href="#lg5" y1="441.771" y2="463.517"/><linearGradient id="SVGID_00000150803099373452510250000014915793959502402994_" gradientUnits="userSpaceOnUse" x1="461.057" x2="482.802" xlink:href="#lg5" y1="473.521" y2="495.267"/><g><g><path d="m405.31 459.375c-.103-.037-.206-.075-.31-.112-7.065-2.557-10.926-10.198-8.697-17.374 38.081-122.615 38.08-251.164 0-373.777-2.229-7.175 1.632-14.816 8.697-17.374.103-.037.207-.075.31-.112 10.335-3.753 17.236-13.543 17.236-24.538 0-17.593-17.046-30.107-33.849-24.894-48.101 14.923-109.184 23.855-175.682 23.855-66.499 0-127.582-8.932-175.682-23.855-16.803-5.213-33.849 7.3-33.849 24.893 0 10.996 6.901 20.785 17.236 24.538.103.037.206.075.31.112 7.065 2.557 10.926 10.198 8.697 17.374-38.08 122.614-38.082 251.162 0 373.777 2.229 7.176-1.632 14.817-8.697 17.374-.103.037-.207.075-.31.112-10.335 3.753-17.236 13.542-17.236 24.538 0 17.593 17.046 30.107 33.849 24.894 48.101-14.923 109.184-23.855 175.682-23.855s127.581 8.932 175.682 23.855c16.803 5.213 33.849-7.301 33.849-24.894 0-10.995-6.9-20.785-17.236-24.537z" fill="url(#SVGID_1_)"/><path d="m396.303 68.111c-2.229-7.176 1.632-14.816 8.697-17.374.103-.037.207-.075.31-.112 10.335-3.753 17.236-13.543 17.236-24.538 0-17.593-17.046-30.107-33.849-24.894-48.101 14.923-109.184 23.855-175.682 23.855-.334 0-.666-.004-1-.004v459.912c.334 0 .666-.004 1-.004 66.499 0 127.581 8.932 175.682 23.855 16.803 5.213 33.849-7.301 33.849-24.894 0-10.995-6.901-20.785-17.236-24.538-.103-.037-.206-.075-.31-.112-7.065-2.557-10.926-10.198-8.697-17.374 38.082-122.615 38.081-251.164 0-373.778z" fill="url(#SVGID_00000160192815125948229340000012283605909840381581_)"/><path d="m423.313 298.548h-420.596c3.385 48.207 12.373 96.213 27.01 143.34 2.229 7.175-1.632 14.817-8.697 17.374-.103.037-.207.075-.31.112-10.335 3.753-17.236 13.542-17.236 24.538 0 17.593 17.046 30.107 33.849 24.894 48.101-14.923 109.184-23.855 175.682-23.855s127.581 8.932 175.682 23.855c16.803 5.213 33.849-7.301 33.849-24.894 0-10.995-6.901-20.785-17.236-24.538-.103-.037-.206-.075-.31-.112-7.065-2.557-10.926-10.198-8.697-17.374 14.637-47.127 23.625-95.132 27.01-143.34z" fill="url(#SVGID_00000093857398658872358550000007618325823948552627_)"/><g><g><path d="m161.634 98.908c0-4.496 3.645-8.14 8.14-8.14h9.226c4.496 0 8.14 3.644 8.14 8.14s-3.645 8.14-8.14 8.14h-9.226c-4.496 0-8.14-3.644-8.14-8.14z" fill="url(#SVGID_00000178184242526251712450000015590005097444724100_)"/><path d="m141.23 107.048h-89.45c-4.496 0-8.14-3.644-8.14-8.14s3.645-8.14 8.14-8.14h89.45c4.496 0 8.14 3.645 8.14 8.14 0 4.496-3.644 8.14-8.14 8.14z" fill="url(#SVGID_00000106832154868700258970000012789229038510716318_)"/><path d="m100.421 136.487h-48.641c-4.496 0-8.14-3.644-8.14-8.14s3.645-8.14 8.14-8.14h48.641c4.496 0 8.14 3.645 8.14 8.14 0 4.496-3.644 8.14-8.14 8.14z" fill="url(#SVGID_00000078037707932477377560000001014968155391564198_)"/><path d="m100.421 442.487h-48.641c-4.496 0-8.14-3.644-8.14-8.14s3.645-8.14 8.14-8.14h48.641c4.496 0 8.14 3.645 8.14 8.14 0 4.496-3.644 8.14-8.14 8.14z" fill="url(#SVGID_00000049187206332712692510000011066914666842137997_)"/></g></g><path d="m396.303 68.111c-2.016-6.493.963-13.354 6.781-16.497-44.924 16.101-113.376 26.387-190.069 26.387-.334 0-.666-.003-1-.004v406.959c.334 0 .666-.004 1-.004 66.499 0 127.581 8.932 175.682 23.855 16.803 5.213 33.849-7.301 33.849-24.894 0-10.995-6.901-20.785-17.236-24.538-.103-.037-.206-.075-.31-.112-7.065-2.557-10.926-10.198-8.697-17.374 38.082-122.615 38.081-251.164 0-373.778z" fill="url(#SVGID_00000169517078621269518220000012115335019200616371_)"/></g><g><path d="m83.992 189.133h258.046c11.259 0 15.908-14.431 6.767-21.003-81.129-58.337-190.452-58.337-271.581 0-9.14 6.572-4.49 21.003 6.768 21.003z" fill="url(#SVGID_00000023262357898739828360000004936911086583395469_)"/><path d="m342.038 320.867h-258.046c-11.258 0-15.908 14.431-6.767 21.003 81.129 58.337 190.452 58.337 271.581 0 9.14-6.572 4.491-21.003-6.768-21.003z" fill="url(#SVGID_00000138566998785802074700000017316824775313403781_)"/></g><g><path d="m72.085 232.912c8.074 0 8.359 6.08 8.455 8.55.189 3.42 3.42 4.465 7.41 4.465 5.035 0 7.41-1.33 7.41-7.029 0-12.065-10.261-18.905-23.846-18.905-12.445 0-22.801 6.08-22.801 22.42v25.176c0 16.34 10.355 22.42 22.801 22.42 13.585 0 23.846-7.22 23.846-19.855 0-5.7-2.375-7.03-7.506-7.03-3.8 0-7.029.95-7.314 4.466-.285 3.705-.76 9.5-8.36 9.5-5.511 0-8.646-3.04-8.646-9.5v-25.176c.001-6.462 3.135-9.502 8.551-9.502z" fill="url(#SVGID_00000041978232088289514990000015534741836821477040_)"/><path d="m143.145 232.912c2.851 0 4.465-3.04 4.465-6.556 0-3.04-1.33-6.364-4.465-6.364h-33.82c-3.229 0-6.46 1.52-6.46 4.56v60.326c0 3.04 3.23 4.56 6.46 4.56h33.82c3.135 0 4.465-3.325 4.465-6.365 0-3.515-1.614-6.555-4.465-6.555h-25.46v-16.15h14.25c3.135 0 4.465-3.04 4.465-5.604 0-3.04-1.615-5.796-4.465-5.796h-14.25v-16.055h25.46z" fill="url(#SVGID_00000151536928652984796420000001810153254333216642_)"/><path d="m204.039 219.992c-5.32 0-7.6.569-11.495 7.41l-9.785 17.1-9.785-17.1c-3.896-6.841-6.175-7.41-11.495-7.41-3.705 0-7.41 1.995-7.41 7.41v57.476c0 3.04 3.705 4.56 7.41 4.56s7.41-1.52 7.41-4.56v-36.576l9.025 16.53c1.14 2.186 2.945 2.756 4.654 2.756 1.806 0 3.705-.665 4.94-2.756l9.12-15.58v35.626c0 3.04 3.705 4.56 7.41 4.56s7.41-1.52 7.41-4.56v-57.476c.001-5.415-3.609-7.41-7.409-7.41z" fill="url(#SVGID_00000129179266766595033040000015114746087261323399_)"/><path d="m261.988 232.912c2.85 0 4.465-3.04 4.465-6.556 0-3.04-1.33-6.364-4.465-6.364h-33.82c-3.23 0-6.461 1.52-6.461 4.56v60.326c0 3.04 3.23 4.56 6.461 4.56h33.82c3.135 0 4.465-3.325 4.465-6.365 0-3.515-1.615-6.555-4.465-6.555h-25.461v-16.15h14.25c3.136 0 4.466-3.04 4.466-5.604 0-3.04-1.615-5.796-4.466-5.796h-14.25v-16.055h25.461z" fill="url(#SVGID_00000004518954991061767590000017098731055006438318_)"/><path d="m314.046 219.992c-3.705 0-7.41 1.33-7.41 4.465v32.3l-15.391-29.354c-3.609-6.936-5.604-7.41-10.925-7.41-3.705 0-7.41 1.425-7.41 4.56v60.326c0 3.04 3.705 4.56 7.41 4.56s7.41-1.52 7.41-4.56v-32.301l18.05 32.87c1.806 3.325 4.846 3.99 8.266 3.99 3.705 0 7.41-1.52 7.41-4.56v-60.421c.001-3.135-3.705-4.465-7.41-4.465z" fill="url(#SVGID_00000101071939741619078280000011405637104539615876_)"/><path d="m372.851 219.992h-41.041c-3.135 0-4.465 3.42-4.465 6.555 0 3.61 1.615 6.745 4.465 6.745h13.11v51.586c0 3.04 3.704 4.56 7.409 4.56s7.41-1.52 7.41-4.56v-51.586h13.111c2.85 0 4.465-3.135 4.465-6.745.001-3.135-1.329-6.555-4.464-6.555z" fill="url(#SVGID_00000108274173235697468890000000914512513311520395_)"/></g><g><path d="m192.529 391.772-61.108 92.589c-7.255 10.992.628 25.64 13.798 25.64h268.559c13.17 0 21.053-14.648 13.798-25.64l-61.108-92.589c-41.188-62.405-132.752-62.405-173.939 0z" fill="url(#SVGID_00000014627421440036435020000009622597937908868271_)"/><path d="m366.467 391.772c-40.49-61.348-129.662-62.384-171.801-3.113v121.341h219.111c13.17 0 21.053-14.648 13.798-25.64z" fill="url(#SVGID_00000068653055019455677040000001746529019539454851_)"/><path d="m131.42 484.36c-7.255 10.992.628 25.64 13.798 25.64h268.559c13.17 0 21.053-14.648 13.798-25.64l-26.552-40.23h-243.051z" fill="url(#SVGID_00000097465706313345106670000011408606239391625627_)"/><path d="m313.716 483.899-5.85 8.863c-4.877 7.39.422 17.238 9.277 17.238h180.557c8.854 0 14.154-9.848 9.277-17.238l-5.85-8.863c-44.378-67.239-143.034-67.239-187.411 0z" fill="url(#SVGID_00000147932226142778573920000000004696542357982887_)"/><path d="m313.716 483.899-5.85 8.863c-4.877 7.39.422 17.238 9.277 17.238h180.557c8.854 0 14.154-9.848 9.277-17.238l-5.85-8.863c-11.992-18.169-27.95-31.418-45.726-39.768h-95.96c-17.776 8.35-33.734 21.599-45.725 39.768z" fill="url(#SVGID_00000094602475078480382970000008915760707682079381_)"/><g><circle cx="269.416" cy="379.381" fill="url(#SVGID_00000048483470440939843260000000625052869358340518_)" r="14.25"/><circle cx="239.416" cy="476.381" fill="url(#SVGID_00000129172909522633685090000004159693604136504479_)" r="14.25"/><circle cx="304.916" cy="401.381" fill="url(#SVGID_00000160879904548726397570000001523502698063825059_)" r="9.75"/><circle cx="186.666" cy="448.131" fill="url(#SVGID_00000119105552029047803380000018117841296308139162_)" r="9.75"/><circle cx="250.916" cy="424.381" fill="url(#SVGID_00000111150762740750459930000001217234931508011686_)" r="7"/><circle cx="306.416" cy="458.881" fill="url(#SVGID_00000076602565751182236090000004588497754238809522_)" r="7"/></g><g><circle cx="429.416" cy="479.881" fill="url(#SVGID_00000101784540505946378170000005677149591984403884_)" r="14.25"/><circle cx="364.666" cy="478.131" fill="url(#SVGID_00000056396396948702940050000006458152737728393647_)" r="9.75"/><circle cx="406.666" cy="449.631" fill="url(#SVGID_00000074420175722934819210000001117714265538654910_)" r="7"/><circle cx="468.916" cy="481.381" fill="url(#SVGID_00000150803099373452510250000014915793959502402994_)" r="7"/></g></g></g></svg>