<?xml version="1.0" encoding="UTF-8" standalone="no"?>
<!-- Created with Inkscape (http://www.inkscape.org/) -->

<svg
   version="1.1"
   id="svg2019"
   xml:space="preserve"
   width="682.66669"
   height="682.66669"
   viewBox="0 0 682.66669 682.66669"
   xmlns="http://www.w3.org/2000/svg"
   xmlns:svg="http://www.w3.org/2000/svg"><defs
     id="defs2023"><clipPath
       clipPathUnits="userSpaceOnUse"
       id="clipPath2033"><path
         d="M 0,512 H 512 V 0 H 0 Z"
         id="path2031" /></clipPath></defs><g
     id="g2025"
     transform="matrix(1.3333333,0,0,-1.3333333,0,682.66667)"><g
       id="g2027"><g
         id="g2029"
         clip-path="url(#clipPath2033)"><g
           id="g2035"
           transform="translate(3.8057,431.3462)"><path
             d="m 0,0 c 0,44.939 36.754,81.294 81.842,80.645 43.675,-0.628 79.188,-36.446 79.465,-80.124 0.154,-24.46 -10.584,-46.414 -27.646,-61.305 -1.801,-1.571 -1.541,-4.439 0.516,-5.656 l 15.197,-8.992 c 2.457,-1.454 1.426,-5.22 -1.429,-5.22 l -68.818,0.017 C 35.288,-79.82 0,-44.033 0,0"
             style="fill:#7acaa6;fill-opacity:1;fill-rule:nonzero;stroke:none"
             id="path2037" /></g><g
           id="g2039"
           transform="translate(153.1797,355.9141)"><path
             d="m 0,0 -15.197,8.992 c -2.046,1.21 -2.33,4.074 -0.539,5.636 17.257,15.05 28.051,37.322 27.66,62.108 -0.678,42.873 -35.378,78.066 -78.238,79.315 -6.079,0.177 -12.009,-0.32 -17.727,-1.42 37.048,-7.101 65.281,-39.757 65.527,-78.678 C -18.395,57.104 -24.743,39.744 -35.47,25.957 -41.947,17.631 -39.842,5.56 -30.764,0.188 L -30.446,0 c 2.43,-1.437 1.444,-5.132 -1.339,-5.212 L -1.429,-5.22 C 1.426,-5.22 2.457,-1.454 0,0"
             style="fill:#57be92;fill-opacity:1;fill-rule:nonzero;stroke:none"
             id="path2041" /></g><g
           id="g2043"
           transform="translate(396.792,219.2451)"><path
             d="m 0,0 h -182.966 c -45.698,0 -70.705,53.256 -41.518,88.419 l 1.623,1.956 c 12.858,15.492 19.896,34.99 19.896,55.123 v 35.283 c 0,61.842 50.132,111.974 111.974,111.974 61.842,0 111.974,-50.132 111.974,-111.974 v -36.474 c 0,-20.343 7.186,-40.033 20.289,-55.593 C 70.824,53.622 45.878,0 0,0"
             style="fill:#c59191;fill-opacity:1;fill-rule:nonzero;stroke:none"
             id="path2045" /></g><g
           id="g2047"
           transform="translate(492.9697,128.5698)"><path
             d="M 0,0 V -120.96 H -375.319 V -0.91 c 0,27.18 16.289,51.71 41.33,62.25 l 60.59,26.34 20.399,8.87 c 15.48,6.73 25.49,22 25.49,38.88 v 7.83 h 79.691 v -7.43 c 0,-16.95 10.109,-32.28 25.699,-38.96 L -40.17,61.74 C -15.75,50.92 0,26.72 0,0"
             style="fill:#ffffff;fill-opacity:1;fill-rule:nonzero;stroke:none"
             id="path2049" /></g><g
           id="g2051"
           transform="translate(219.5654,187.4102)"><path
             d="m 0,0 c 20.679,-6.179 51.116,-12.769 88.217,-12.12 34.811,0.608 63.387,7.377 83.27,13.727 l 9.88,23.527 -30.087,12.895 c -15.586,6.68 -25.691,22.007 -25.691,38.964 v 7.424 H 45.898 v -7.828 c 0,-16.877 -10.01,-32.147 -25.489,-38.876 L -3.958,27.118 Z"
             style="fill:#ffcebf;fill-opacity:1;fill-rule:nonzero;stroke:none"
             id="path2053" /></g><g
           id="g2055"
           transform="translate(452.7959,190.3145)"><path
             d="m 0,0 -61.731,26.459 -0.011,-0.001 V -182.703 H 40.176 V -61.745 C 40.176,-35.029 24.426,-10.823 0,0"
             style="fill:#8795de;fill-opacity:1;fill-rule:nonzero;stroke:none"
             id="path2057" /></g><g
           id="g2059"
           transform="translate(219.5703,216.25)"><path
             d="m 0,0 v -208.64 h -101.92 v 120.05 c 0,27.18 16.289,51.71 41.33,62.25 z"
             style="fill:#8795de;fill-opacity:1;fill-rule:nonzero;stroke:none"
             id="path2061" /></g><g
           id="g2063"
           transform="translate(332.9326,228.0884)"><path
             d="M 0,0 C 9.168,0 17.904,1.841 25.868,5.163 17.326,13.048 12.222,24.268 12.222,36.315 v 7.424 h -79.691 v -7.828 c 0,-6.097 -1.312,-11.981 -3.711,-17.332 C -59.113,7.076 -42.788,0 -24.801,0 Z"
             style="fill:#ffb09e;fill-opacity:1;fill-rule:nonzero;stroke:none"
             id="path2065" /></g><g
           id="g2067"
           transform="translate(384.957,391.7065)"><path
             d="m 0,0 v -65.925 c 0,-37.139 -30.107,-67.247 -67.247,-67.247 h -24.801 c -37.139,0 -67.247,30.108 -67.247,67.247 V 0 c 0,24.161 19.586,43.748 43.747,43.748 h 71.8 C -19.587,43.748 0,24.161 0,0"
             style="fill:#ffcebf;fill-opacity:1;fill-rule:nonzero;stroke:none"
             id="path2069" /></g><g
           id="g2071"
           transform="translate(384.957,357.4072)"><path
             d="m 0,0 c -0.03,-0.091 -0.066,-0.179 -0.094,-0.272 -2.431,-8.395 -8.81,-24.253 -24.228,-36.142 -7.18,-5.536 -15.368,-9.537 -24.339,-11.891 -4.067,-1.067 -6.497,-5.228 -5.431,-9.294 0.898,-3.418 3.982,-5.681 7.358,-5.681 0.639,0 1.29,0.081 1.936,0.251 10.953,2.874 20.969,7.773 29.772,14.56 6.079,4.687 10.999,9.865 14.981,15.072 0.016,0.59 0.045,1.177 0.045,1.771 z"
             style="fill:#7a6d79;fill-opacity:1;fill-rule:nonzero;stroke:none"
             id="path2073" /></g><g
           id="g2075"
           transform="translate(327.9482,288.0605)"><path
             d="m 0,0 h -17.837 c -8.119,0 -14.701,6.582 -14.701,14.701 0,8.118 6.582,14.7 14.701,14.7 H 0 c 8.119,0 14.701,-6.582 14.701,-14.7 C 14.701,6.582 8.119,0 0,0"
             style="fill:#685e68;fill-opacity:1;fill-rule:nonzero;stroke:none"
             id="path2077" /></g><g
           id="g2079"
           transform="translate(321.2012,452.9028)"><path
             d="m 0,0 c 1.708,21.54 22.33,35.835 42.066,43.239 32.65,-19.564 54.508,-55.285 54.508,-96.116 v -7.698 c -1.805,-0.379 -3.601,-0.711 -5.377,-0.975 -10.873,-1.624 -20.133,-0.922 -26.458,0 C 23.977,-56.12 -2.063,-26.015 0,0"
             style="fill:#b98080;fill-opacity:1;fill-rule:nonzero;stroke:none"
             id="path2081" /></g><g
           id="g2083"
           transform="translate(305.8008,512)"><path
             d="m 0,0 v 0 c 25.288,0 48.616,-8.386 67.36,-22.525 -9.35,-16.271 -30.822,-48.441 -71.086,-72.257 -29.889,-17.681 -58.073,-23.622 -75.43,-25.865 h -32.818 v 8.673 C -111.974,-50.132 -61.842,0 0,0"
             style="fill:#c59191;fill-opacity:1;fill-rule:nonzero;stroke:none"
             id="path2085" /></g><g
           id="g2087"
           transform="translate(430.9717,7.6113)"><path
             d="m 0,0 h -243.655 l -13.439,126.776 c -0.953,8.992 6.096,16.828 15.138,16.828 H -1.699 c 9.042,0 16.092,-7.836 15.137,-16.828 z"
             style="fill:#efedef;fill-opacity:1;fill-rule:nonzero;stroke:none"
             id="path2089" /></g><g
           id="g2091"
           transform="translate(429.2725,151.2148)"><path
             d="m 0,0 h -30.446 c 9.043,0 16.092,-7.836 15.138,-16.828 L -28.747,-143.604 H 1.699 L 15.138,-16.828 C 16.091,-7.836 9.042,0 0,0"
             style="fill:#e5e1e5;fill-opacity:1;fill-rule:nonzero;stroke:none"
             id="path2093" /></g><g
           id="g2095"
           transform="translate(504.5)"><path
             d="m 0,0 h -497 c -4.143,0 -7.5,3.358 -7.5,7.5 0,4.142 3.357,7.5 7.5,7.5 H 0 C 4.143,15 7.5,11.642 7.5,7.5 7.5,3.358 4.143,0 0,0"
             style="fill:#c9bfc8;fill-opacity:1;fill-rule:nonzero;stroke:none"
             id="path2097" /></g><g
           id="g2099"
           transform="translate(330.4561,79.4131)"><path
             d="m 0,0 c 0,-11.771 -9.542,-21.312 -21.312,-21.312 -11.77,0 -21.312,9.541 -21.312,21.312 0,11.771 9.542,21.312 21.312,21.312 C -9.542,21.312 0,11.771 0,0"
             style="fill:#c9bfc8;fill-opacity:1;fill-rule:nonzero;stroke:none"
             id="path2101" /></g><g
           id="g2103"
           transform="translate(61.625,431.3472)"><path
             d="m 0,0 c 0,-4.204 -3.407,-7.611 -7.611,-7.611 -4.204,0 -7.612,3.407 -7.612,7.611 0,4.204 3.408,7.612 7.612,7.612 C -3.407,7.612 0,4.204 0,0"
             style="fill:#ffffff;fill-opacity:1;fill-rule:nonzero;stroke:none"
             id="path2105" /></g><g
           id="g2107"
           transform="translate(92.0713,431.3472)"><path
             d="m 0,0 c 0,-4.204 -3.408,-7.611 -7.611,-7.611 -4.204,0 -7.612,3.407 -7.612,7.611 0,4.204 3.408,7.612 7.612,7.612 C -3.408,7.612 0,4.204 0,0"
             style="fill:#ffffff;fill-opacity:1;fill-rule:nonzero;stroke:none"
             id="path2109" /></g><g
           id="g2111"
           transform="translate(122.5176,431.3472)"><path
             d="m 0,0 c 0,-4.204 -3.408,-7.611 -7.612,-7.611 -4.203,0 -7.612,3.407 -7.612,7.611 0,4.204 3.409,7.612 7.612,7.612 C -3.408,7.612 0,4.204 0,0"
             style="fill:#ffffff;fill-opacity:1;fill-rule:nonzero;stroke:none"
             id="path2113" /></g></g></g></g></svg>
