<svg id="svg4970" height="512" viewBox="0 0 16.933333 16.933334" width="512" xmlns="http://www.w3.org/2000/svg" xmlns:svg="http://www.w3.org/2000/svg"><g id="layer1" transform="translate(0 -280.067)"><g fill="#33b9ef"><path id="path13719" d="m1.8520826 282.97704c0-.52917.529167-1.05834 1.058334-1.05834-.529167 0-1.058334-.52916-1.058334-1.05833 0 .52917-.5291659 1.05833-1.0583329 1.05833.529167 0 1.0583329.52917 1.0583329 1.05834z"/><path id="path13765" d="m14.022918 281.9187c.529166 0 1.058333.52917 1.058333 1.05834 0-.52917.529167-1.05834 1.058333-1.05834-.529166 0-1.058333-.52916-1.058333-1.05833 0 .52917-.529167 1.05833-1.058333 1.05833z"/><path id="path13767" d="m13.493751 294.08954c0 .52916-.529167 1.05833-1.058333 1.05833.529166 0 1.058333.52917 1.058333 1.05833 0-.52916.529167-1.05833 1.058333-1.05833-.529166 0-1.058333-.52917-1.058333-1.05833z"/><path id="path13769" d="m2.3812506 295.14787c.5291671 0 1.058333.52917 1.058333 1.05833 0-.52916.5291669-1.05833 1.0583341-1.05833-.5291672 0-1.0583341-.52917-1.0583341-1.05833 0 .52916-.5291659 1.05833-1.058333 1.05833z"/></g><path id="path19279" d="m6.0854177 286.94579h-4.7624999l7.1437497 8.73125z" fill="#26a2d4"/><path id="path19281" d="m10.847918 286.94579h4.7625l-7.1437505 8.73125z" fill="#26a2d4"/><path id="path19283" d="m8.4666675 283.5062-2.3812498 3.43959h4.7625003z" fill="#33b9ef"/><path id="path19285" d="m3.7041666 283.5062-2.3812499 3.43959h4.7625z" fill="#33b9ef"/><path id="path19287" d="m13.229166 283.5062-2.381249 3.43959h4.762499z" fill="#33b9ef"/><path id="path19289" d="m10.847917 286.94579-2.3812503-3.43959h4.7624993z" fill="#4fc3f1"/><path id="path19291" d="m6.0854167 286.94579-2.3812501-3.43959h4.7625001z" fill="#4fc3f1"/><path id="path21939" d="m6.0854177 286.94579h4.7625003l-2.3812505 8.73125z" fill="#2fa9da"/><path id="path8507-2" d="m1.8520836 280.59579c-.1454068.003-.2657179.11864-.2640669.26406 0 .17639-.09686.38419-.25373.54106-.1568619.15686-.36466298.25424-.54105299.25424-.17874599.005-.26249799.1344-.26303298.26355-.001.12915.08274.25855.26148297.26355.17639001 0 .38419.0974.5410521.25425.1568599.15686.2537319.36467.2537319.54105-.0017.14543.118659.26137.2640659.26407.145407-.003.265766-.11864.264067-.26407 0-.17638.09686-.38419.25373-.54105.156864-.15686.364662-.25425.541052-.25425.178747-.005.263017-.1344.263552-.26355.00111-.12915-.08325-.25855-.262001-.26355-.17639 0-.384189-.0974-.541052-.25424-.156869-.15687-.25373-.36467-.25373-.54106.0017-.14542-.118661-.26136-.264068-.26406zm13.2322684.004c-.145408.003-.265722.11864-.264067.26406 0 .17639-.09687.38419-.253732.54106-.156863.15686-.364662.25424-.54105.25424-.178748.005-.263017.1344-.263552.26355-.0011.12915.08325.25856.262001.26355.17639 0 .384188.0974.541052.25425.156858.15686.25373.36467.25373.54105-.0016.14543.118659.26137.264067.26407.145408-.003.265766-.11864.264067-.26407 0-.17638.09686-.38419.253731-.54105.156864-.15686.364662-.25425.541052-.25425.178747-.005.262498-.1344.263033-.26355.0011-.12915-.08273-.25855-.261483-.26355-.17639 0-.384188-.0974-.541052-.25424-.156868-.15687-.25373-.36467-.25373-.54106.0016-.14542-.11866-.26137-.264067-.26406zm-13.2322684 1.00665c.08686.12841.204269.2217.312643.31264-.129604.0867-.222891.2035-.314193.31264-.08685-.12842-.2047739-.2217-.3131589-.31264.129591-.0867.223391-.2035.3147089-.31264zm13.2322684.004c.08686.12841.204268.2217.312642.31264-.129603.0867-.222891.2035-.314193.31264-.08685-.12841-.204774-.2217-.313158-.31264.129591-.0867.223391-.2035.314709-.31264zm-11.3812193 1.63147c-.0867.00053-.1675871.0437-.2165242.11524l-2.3807318 3.43907c-.06791.0969-.06327.22705.01137.31884l7.1447828 8.73022c.1058862.12998.304424.12998.410311 0l7.1421995-8.73022c.07543-.0912.08113-.2214.01394-.31884l-2.380732-3.43907c-.04946-.0723-.131497-.11547-.219106-.11524zm.505397.52917h3.7537758l-1.8768878 2.71094zm4.7619838 0h3.7548075l-1.877403 2.71145zm-5.2658299.20154 2.13682 3.08611 2.042255 7.4874-6.002219-7.33547h2.880445c.3528639 0 .3528639-.52968 0-.52968h-2.932639zm4.7614679 0 1.8763685 2.70836h-3.7517063zm4.7635315 0 1.875338 2.70836h-3.751708zm-6.7985504 3.23804h8.6216964l-6.0048005 7.33909 1.7668165-6.47609c.119486-.35478-.433343-.50492-.510045-.13849l-1.8376163 6.74015zm-2.9910331 6.61509c-.1454068.003-.2657179.11865-.2640639.26407 0 .17639-.09687.38419-.2537331.54105-.1568609.15686-.3641459.25425-.5405359.25425-.178745.005-.263014.1344-.263549.26355-.0011.12915.08325.25855.261999.26355.176389 0 .38419.0974.541054.25425.156858.15686.253214.36467.253214.54105-.00159.14542.1191741.26137.2645841.26407.1454071-.003.265766-.11865.264064-.26407 0-.17639.09635-.38419.2532139-.54105.1568691-.15686.3646651-.25425.5410549-.25425.1787472-.005.2630141-.1344.2635491-.26355.00111-.12915-.08325-.25855-.2619989-.26355-.176389 0-.383672-.0974-.540535-.25425-.1568691-.15686-.2537331-.36466-.2537331-.54105.00159-.14542-.119177-.26137-.2645841-.26407zm10.0546865 0c-.145408.003-.266237.11865-.264584.26407 0 .17639-.09687.38419-.253734.54105-.156859.15686-.364145.25425-.540535.25425-.178744.005-.263014.1344-.263548.26355-.0011.12915.08325.25855.261997.26355.176391 0 .384192.0974.541056.25425.156858.15686.25373.36466.25373.54105-.0016.14542.118657.26137.264067.26407.145406-.003.265766-.11865.264065-.26407 0-.17639.09635-.38419.253214-.54105.156869-.15686.364665-.25425.541053-.25425.178748-.005.263016-.1344.26355-.26355.0011-.12915-.08325-.25855-.261999-.26355-.176389 0-.383672-.0974-.540535-.25425-.156869-.15686-.253733-.36466-.253733-.54105.0016-.14542-.118658-.26137-.264064-.26407zm-10.0546865 1.01028c.08686.12842.204788.2217.3131611.31264-.129603.0867-.2234089.2035-.314711.31264-.08685-.12841-.204256-.2217-.312642-.31264.1295929-.0867.2228741-.2035.3141919-.31264zm10.0541675 0c.08686.12842.204787.2217.313161.31264-.129604.0867-.223409.2035-.314712.31264-.08685-.12842-.204255-.2217-.312642-.31264.129592-.0867.222875-.2035.314193-.31264z" font-variant-ligatures="normal" font-variant-position="normal" font-variant-caps="normal" font-variant-numeric="normal" font-variant-alternates="normal" font-feature-settings="normal" text-indent="0" text-align="start" text-decoration-line="none" text-decoration-style="solid" text-decoration-color="#000000" text-transform="none" text-orientation="mixed" white-space="normal" shape-padding="0" isolation="auto" mix-blend-mode="normal" solid-color="#000000" solid-opacity="1" vector-effect="none"/></g></svg>