<svg height="512" viewBox="0 0 64 64" width="512" xmlns="http://www.w3.org/2000/svg"><g id="Icons"><g><g><path d="m42.841 56h-38.841v4h42.025c-1.378-1.032-2.485-2.405-3.184-4z" fill="#3cc8b4"/></g><g><path d="m42 52c0-4.092 2.473-7.613 6-9.159v-16.841l-16 12v-12l-16 12h-12v18h38.841c-.538-1.226-.841-2.578-.841-4z" fill="#f0f0f0"/></g><g><path d="m10 12h4v26h-4z" fill="#fa6450"/></g><g><path d="m10 12h2v26h-2z" fill="#dc4632"/></g><g><path d="m10 32h4v2h-4z" fill="#be2814"/></g><g><path d="m10 26h4v2h-4z" fill="#be2814"/></g><g><path d="m10 20h4v2h-4z" fill="#be2814"/></g><g><path d="m10 14h4v2h-4z" fill="#be2814"/></g><g><path d="m32 29v-3l-16 12h4z" fill="#d2d2d2"/></g><g><path d="m48 29v-3l-16 12h4z" fill="#d2d2d2"/></g><g><path d="m4 38h4v18h-4z" fill="#d2d2d2"/></g><g><path d="m28 42h6v4h-6z" fill="#fab400"/></g><g><path d="m18 42h6v4h-6z" fill="#fab400"/></g><g><path d="m8 42h6v4h-6z" fill="#fab400"/></g><g><g><path d="m23 50h6v6h-6z" fill="#505050"/></g></g><g><path d="m42 52c0-4.991 3.678-9.127 8.464-9.869-.301-1.389-.464-2.808-.464-4.236v-17.895h-10v17.895c0 2.709-.55 5.389-1.617 7.878l-4.383 10.227h8.841c-.538-1.226-.841-2.578-.841-4z" fill="#fa6450"/></g><g><path d="m4 56h4v4h-4z" fill="#1eaa96"/></g><g><path d="m44 37.895v-17.895h-4v17.895c0 2.709-.55 5.389-1.617 7.878l-4.383 10.227h4l4.383-10.227c1.067-2.489 1.617-5.17 1.617-7.878z" fill="#dc4632"/></g><g><path d="m50 36h-10v1.895c0 .705-.041 1.407-.115 2.105h10.23c-.074-.698-.115-1.4-.115-2.105z" fill="#be2814"/></g><g><path d="m40 26h10v4h-10z" fill="#be2814"/></g><g><path d="m13.723 5c.171-.295.277-.634.277-1h-4c0 .366.106.705.277 1-.171.295-.277.634-.277 1s.106.705.277 1c-.171.295-.277.634-.277 1s.106.705.277 1c-.171.295-.277.634-.277 1s.106.705.277 1c-.171.295-.277.634-.277 1h4c0-.366-.106-.705-.277-1 .171-.295.277-.634.277-1s-.106-.705-.277-1c.171-.295.277-.634.277-1s-.106-.705-.277-1c.171-.295.277-.634.277-1s-.106-.705-.277-1z" fill="#f0f0f0"/></g><g><path d="m12 10c0-.366.106-.705.277-1-.171-.295-.277-.634-.277-1s.106-.705.277-1c-.171-.295-.277-.634-.277-1s.106-.705.277-1c-.171-.295-.277-.634-.277-1h-2c0 .366.106.705.277 1-.171.295-.277.634-.277 1s.106.705.277 1c-.171.295-.277.634-.277 1s.106.705.277 1c-.171.295-.277.634-.277 1s.106.705.277 1c-.171.295-.277.634-.277 1h2c0-.366.106-.705.277-1-.171-.295-.277-.634-.277-1z" fill="#d2d2d2"/></g><g><path d="m40 4c0 .408.084.795.233 1.148.234.55.234 1.154 0 1.704-.149.353-.233.74-.233 1.148s.084.795.233 1.148c.234.55.234 1.154 0 1.704-.149.353-.233.74-.233 1.148s.084.795.233 1.148c.234.55.234 1.154 0 1.704-.149.353-.233.74-.233 1.148s.084.795.233 1.148c.234.55.234 1.154 0 1.704-.149.353-.233.74-.233 1.148h10c0-.408-.084-.795-.233-1.148-.234-.55-.234-1.154 0-1.704.149-.353.233-.74.233-1.148s-.084-.795-.233-1.148c-.234-.55-.234-1.154 0-1.704.149-.353.233-.74.233-1.148s-.084-.795-.233-1.148c-.234-.55-.234-1.154 0-1.704.149-.353.233-.74.233-1.148s-.084-.795-.233-1.148c-.234-.55-.234-1.154 0-1.704.149-.353.233-.74.233-1.148z" fill="#f0f0f0"/></g><g><path d="m42.233 17.148c-.149-.353-.233-.74-.233-1.148s.084-.795.233-1.148c.234-.55.234-1.154 0-1.704-.149-.353-.233-.74-.233-1.148s.084-.795.233-1.148c.234-.55.234-1.154 0-1.704-.149-.353-.233-.74-.233-1.148s.084-.795.233-1.148c.234-.55.234-1.154 0-1.704-.149-.353-.233-.74-.233-1.148h-2c0 .408.084.795.233 1.148.234.55.234 1.154 0 1.704-.149.353-.233.74-.233 1.148s.084.795.233 1.148c.234.55.234 1.154 0 1.704-.149.353-.233.74-.233 1.148s.084.795.233 1.148c.234.55.234 1.154 0 1.704-.149.353-.233.74-.233 1.148s.084.795.233 1.148c.234.55.234 1.154 0 1.704-.149.353-.233.74-.233 1.148h2c0-.408.084-.795.233-1.148.234-.55.234-1.154 0-1.704z" fill="#d2d2d2"/></g><g><path d="m38.286 46-1.714 4h5.63c.302-1.48.94-2.835 1.817-4z" fill="#be2814"/></g><g><path d="m52 60c-4.418 0-8-3.582-8-8 0-4.418 3.582-8 8-8 4.418 0 8 3.582 8 8 0 4.418-3.582 8-8 8z" fill="#fab400"/></g><g><path d="m46 52c0-4.079 3.055-7.438 7-7.931-.328-.041-.661-.069-1-.069-4.418 0-8 3.582-8 8s3.582 8 8 8c.339 0 .672-.028 1-.069-3.945-.493-7-3.852-7-7.931z" fill="#dc9600"/></g><g><path d="m52 46-3 7h3v5l3-7h-3z" fill="#f0f0f0"/></g></g></g></svg>