<svg id="Capa_1" enable-background="new 0 0 512 512" height="512" viewBox="0 0 512 512" width="512" xmlns="http://www.w3.org/2000/svg"><g><path d="m240.632 512h-239.449c-.653 0-1.183-.53-1.183-1.183v-239.449c0-.654.53-1.184 1.183-1.184h239.449c.654 0 1.183.53 1.183 1.184v239.449c.001.653-.529 1.183-1.183 1.183z" fill="#f1f1f4"/><path d="m240.632 241.816h-239.449c-.654 0-1.183-.53-1.183-1.183v-239.45c0-.653.53-1.183 1.183-1.183h239.449c.654 0 1.183.53 1.183 1.183v239.449c.001.654-.529 1.184-1.183 1.184z" fill="#da387d"/><path d="m510.817 241.816h-239.449c-.654 0-1.184-.53-1.184-1.183v-239.45c0-.654.53-1.183 1.184-1.183h239.449c.653 0 1.183.53 1.183 1.183v239.449c0 .654-.53 1.184-1.183 1.184z" fill="#f1f1f4"/><path d="m510.817 512h-239.449c-.654 0-1.184-.53-1.184-1.183v-239.449c0-.654.53-1.184 1.184-1.184h239.449c.654 0 1.183.53 1.183 1.184v239.449c0 .653-.53 1.183-1.183 1.183z" fill="#7ad0df"/><path d="m240.632 270.184h-40.024v106.189c0 63.525-51.497 115.023-115.023 115.023h-85.585v19.42c0 .654.53 1.184 1.183 1.184h239.449c.654 0 1.183-.53 1.183-1.183v-239.449c.001-.654-.529-1.184-1.183-1.184z" fill="#dfdde2"/><path d="m240.632 0h-40.024v106.189c0 63.525-51.497 115.023-115.023 115.023h-85.585v19.42c0 .654.53 1.183 1.183 1.183h239.449c.654 0 1.183-.53 1.183-1.183v-239.449c.001-.653-.529-1.183-1.183-1.183z" fill="#d80a61"/><path d="m510.817 0h-40.024v106.189c0 63.525-51.497 115.023-115.023 115.023h-85.586v19.42c0 .654.53 1.183 1.183 1.183h239.449c.654 0 1.183-.53 1.183-1.183v-239.449c.001-.653-.529-1.183-1.182-1.183z" fill="#dfdde2"/><path d="m510.817 270.184h-40.024v106.189c0 63.525-51.497 115.023-115.023 115.023h-85.586v19.42c0 .654.53 1.183 1.183 1.183h239.449c.654 0 1.183-.53 1.183-1.183v-239.448c.001-.654-.529-1.184-1.182-1.184z" fill="#70c6da"/><circle cx="67.948" cy="14.987" fill="#f1f1f4" r="14.987"/><circle cx="67.948" cy="120.908" fill="#f1f1f4" r="14.987"/><circle cx="14.987" cy="67.948" fill="#f1f1f4" r="14.987"/><circle cx="67.948" cy="226.828" fill="#f1f1f4" r="14.987"/><path d="m82.935 226.828c0-1.986-.387-3.882-1.088-5.616h-27.799c-.702 1.735-1.088 3.63-1.088 5.616 0 8.277 6.71 14.987 14.987 14.987s14.988-6.709 14.988-14.987z" fill="#dfdde2"/><circle cx="173.868" cy="14.987" fill="#f1f1f4" r="14.987"/><circle cx="173.868" cy="120.908" fill="#f1f1f4" r="14.987"/><circle cx="173.868" cy="226.828" fill="#dfdde2" r="14.987"/><circle cx="14.987" cy="173.868" fill="#f1f1f4" r="14.987"/><circle cx="120.908" cy="67.948" fill="#f1f1f4" r="14.987"/><circle cx="120.908" cy="173.868" fill="#f1f1f4" r="14.987"/><circle cx="226.828" cy="67.948" fill="#dfdde2" r="14.987"/><circle cx="226.828" cy="173.868" fill="#dfdde2" r="14.987"/><path d="m300.033 211.967h26.017v29.849h-26.017z" fill="#f4dd45"/><path d="m300.033 221.212h26.017v20.604h-26.017z" fill="#f1d333"/><g fill="#f4dd45"><path d="m300.033 107.899h26.017v26.017h-26.017z"/><path d="m300.033 159.933h26.017v26.017h-26.017z"/><path d="m300.033 55.866h26.017v26.017h-26.017z"/><path d="m300.033 0h26.017v29.849h-26.017z"/><path d="m352.067 55.866h26.017v26.017h-26.017z"/><path d="m352.067 0h26.017v29.849h-26.017z"/><path d="m352.067 107.899h26.017v26.017h-26.017z"/><path d="m352.067 159.933h26.017v26.017h-26.017z"/><path d="m352.067 211.967h26.017v29.849h-26.017z"/></g><path d="m355.77 221.212h-3.703v20.604h26.017v-22.767c-7.219 1.419-14.68 2.163-22.314 2.163z" fill="#f1d333"/><path d="m404.101 211.967h26.017v29.849h-26.017z" fill="#f1d333"/><path d="m404.101 159.933h26.017v26.017h-26.017z" fill="#f4dd45"/><path d="m404.101 55.866h26.017v26.017h-26.017z" fill="#f4dd45"/><path d="m404.101 107.899h26.017v26.017h-26.017z" fill="#f4dd45"/><path d="m404.101 0h26.017v29.849h-26.017z" fill="#f4dd45"/><path d="m456.134 211.967h26.017v29.849h-26.017z" fill="#f1d333"/><path d="m456.134 55.866h26.017v26.017h-26.017z" fill="#f4dd45"/><path d="m456.134 159.933h26.017v26.017h-26.017z" fill="#f4dd45"/><path d="m456.134 107.899h26.017v26.017h-26.017z" fill="#f4dd45"/><path d="m456.134 0h26.017v29.849h-26.017z" fill="#f4dd45"/><path d="m470.793 0h11.359v29.849h-11.359z" fill="#f1d333"/><path d="m470.793 55.866h11.359v26.017h-11.359z" fill="#f1d333"/><path d="m482.151 133.916v-26.017h-11.371c-.131 8.958-1.285 17.667-3.352 26.017z" fill="#f1d333"/><path d="m270.184 29.849h29.849v26.017h-29.849z" fill="#f4dd45"/><path d="m482.151 29.849h29.849v26.017h-29.849z" fill="#f1d333"/><path d="m378.084 29.849h26.017v26.017h-26.017z" fill="#f4dd45"/><path d="m430.118 29.849h26.017v26.017h-26.017z" fill="#f4dd45"/><path d="m326.05 29.849h26.017v26.017h-26.017z" fill="#f4dd45"/><path d="m300.033 29.849h26.017v26.017h-26.017z" fill="#ecc32e"/><path d="m352.067 29.849h26.017v26.017h-26.017z" fill="#ecc32e"/><path d="m404.101 29.849h26.017v26.017h-26.017z" fill="#ecc32e"/><path d="m456.134 29.849h26.017v26.017h-26.017z" fill="#ecc32e"/><path d="m378.084 81.882h26.017v26.017h-26.017z" fill="#f4dd45"/><path d="m482.151 81.882h29.849v26.017h-29.849z" fill="#f1d333"/><path d="m430.118 81.882h26.017v26.017h-26.017z" fill="#f4dd45"/><path d="m326.05 81.882h26.017v26.017h-26.017z" fill="#f4dd45"/><path d="m270.184 81.882h29.849v26.017h-29.849z" fill="#f4dd45"/><path d="m300.033 81.882h26.017v26.017h-26.017z" fill="#ecc32e"/><path d="m352.067 81.882h26.017v26.017h-26.017z" fill="#ecc32e"/><path d="m404.101 81.882h26.017v26.017h-26.017z" fill="#ecc32e"/><path d="m456.134 81.882h26.017v26.017h-26.017z" fill="#ecc32e"/><path d="m270.184 133.916h29.849v26.017h-29.849z" fill="#f4dd45"/><path d="m326.05 133.916h26.017v26.017h-26.017z" fill="#f4dd45"/><path d="m482.151 133.916h29.849v26.017h-29.849z" fill="#f1d333"/><path d="m378.084 133.916h26.017v26.017h-26.017z" fill="#f4dd45"/><path d="m430.118 133.916h26.017v26.017h-26.017z" fill="#f4dd45"/><path d="m300.033 133.916h26.017v26.017h-26.017z" fill="#ecc32e"/><path d="m352.067 133.916h26.017v26.017h-26.017z" fill="#ecc32e"/><path d="m404.101 133.916h26.017v26.017h-26.017z" fill="#ecc32e"/><path d="m456.134 133.916h26.017v26.017h-26.017z" fill="#ecc32e"/><path d="m378.084 185.95h26.017v26.017h-26.017z" fill="#f4dd45"/><path d="m404.101 211.967v-1.372c-1.017.472-2.043.929-3.076 1.372z" fill="#f1d333"/><path d="m482.151 185.95h29.849v26.017h-29.849z" fill="#f1d333"/><path d="m326.05 185.95h26.017v26.017h-26.017z" fill="#f4dd45"/><path d="m430.118 185.95h26.017v26.017h-26.017z" fill="#f4dd45"/><path d="m456.134 185.95h-17.489c-2.705 2.81-5.552 5.483-8.528 8.007v18.01h26.017z" fill="#f1d333"/><path d="m270.184 185.95h29.849v26.017h-29.849z" fill="#f4dd45"/><path d="m300.033 185.95h26.017v26.017h-26.017z" fill="#ecc32e"/><path d="m352.067 185.95h26.017v26.017h-26.017z" fill="#ecc32e"/><path d="m404.101 185.95h26.017v26.017h-26.017z" fill="#ecc32e"/><path d="m482.151 107.899v-26.017h-11.359v24.307c0 .571-.005 1.141-.013 1.71z" fill="#dab72b"/><path d="m430.118 193.957c-7.84 6.648-16.582 12.264-26.017 16.639v1.372h26.017z" fill="#dab72b"/><path d="m470.793 29.849h11.359v26.017h-11.359z" fill="#dab72b"/><path d="m482.151 159.933v-26.017h-14.723c-2.266 9.154-5.627 17.875-9.938 26.017z" fill="#dab72b"/><path d="m456.134 185.95h26.017v26.017h-26.017z" fill="#ecc32e"/><path d="m40.302 270.184-40.302 40.302v-39.119c0-.654.53-1.183 1.183-1.183zm0 80.604-40.302-40.302v80.604zm80.604 0-40.302-40.302-40.302 40.302 40.302 40.302zm80.604 0-40.302-40.302-40.302 40.302 40.302 40.302zm40.302-40.302-40.302 40.302 40.302 40.302zm-201.51 120.907-40.302-40.302v80.604zm80.604 0-40.302-40.302-40.302 40.302 40.302 40.302zm80.604 0-40.302-40.302-40.302 40.302 40.302 40.302zm40.302-40.302-40.302 40.302 40.302 40.302zm-120.906-120.907h-80.604l40.302 40.302zm80.604 0h-80.604l40.302 40.302zm40.302 1.1c-.043-.614-.555-1.1-1.18-1.1h-39.122l40.302 40.302zm-240.629 240.716h39.115l.003-.003-40.301-40.302v39.122c0 .653.53 1.183 1.183 1.183zm39.119-.003.003.003h80.597l.003-.003-40.302-40.302zm80.604 0 .003.003h80.597l.003-.003-40.302-40.302zm80.608.003h39.119c.625 0 1.137-.485 1.18-1.1v-39.206l-40.302 40.302z" fill="#9373b9"/><path d="m161.208 471.695 40.302 40.302-.003.003h-80.597l-.003-.003zm39.4-120.005.902-.902-.902-.902zm-9.13 69.67c-7.665 18.02-19.796 33.684-35.003 45.601l4.734 4.734 40.302-40.302zm-105.892 70.036h-24.684l-20.6 20.6.003.004h80.597l.003-.003-21.431-21.431c-4.552.548-9.187.83-13.888.83zm-85.586 0v19.42c0 .654.53 1.184 1.183 1.184h39.115l.003-.003-20.6-20.6h-19.701zm240.632-221.212h-39.122l40.302 40.302v-39.202c-.044-.625-.566-1.1-1.18-1.1zm1.18 120.907-40.302 40.302 40.302 40.302zm-1.098 120.906.036-.003c.008-.001.017-.002.025-.003.011-.001.022-.003.033-.004.009-.001.019-.003.028-.005s.019-.003.028-.005c.01-.002.02-.004.03-.007.009-.002.018-.004.027-.006.008-.002.017-.005.025-.007.01-.003.021-.006.031-.009.008-.003.016-.005.025-.008.01-.003.019-.006.029-.01.009-.003.017-.006.026-.01.009-.003.017-.007.026-.01.009-.004.018-.008.027-.012.008-.004.016-.007.024-.011.009-.004.018-.009.027-.013.008-.004.015-.008.023-.012.009-.005.018-.009.026-.014.007-.004.015-.008.022-.013.009-.005.018-.011.027-.017.006-.004.012-.008.018-.012.01-.006.019-.013.029-.019.005-.004.011-.008.016-.012.01-.007.019-.014.028-.021.005-.004.011-.008.016-.013.009-.007.018-.014.026-.022.006-.005.011-.01.017-.014.008-.007.017-.015.025-.022.005-.005.01-.009.015-.014.009-.008.017-.017.026-.025.004-.004.007-.008.011-.012.009-.009.018-.019.027-.029l.008-.009c.141-.161.239-.361.277-.581v-.001c.006-.037.011-.075.013-.113v-39.206l-40.302 40.302.003.003h39.119c.02 0 .04 0 .06-.001.008.001.016 0 .023 0zm-39.204-161.209 40.302 40.302v-80.604zm-.902-79.702.902-.902h-.902z" fill="#845caf"/><path d="m339.275 512h-34.545v-241.816h34.545zm69.09-241.816h-34.545v241.816h34.545zm69.09 0h-34.545v241.816h34.545z" fill="#86f1a7"/><path d="m373.82 489.988v22.012h34.545v-33.306c-10.655 5.488-22.278 9.361-34.545 11.294z" fill="#80e29d"/><path d="m304.729 491.396h34.545v20.604h-34.545z" fill="#80e29d"/><path d="m470.793 270.184v106.189c0 28.694-10.507 54.933-27.883 75.081v60.546h34.545v-241.816z" fill="#80e29d"/></g></svg>