<svg id="_x33_0" enable-background="new 0 0 62 62" height="512" viewBox="0 0 62 62" width="512" xmlns="http://www.w3.org/2000/svg"><g><g><g><path d="m41.14 12.37 2.74 2.75-5.74 5.74c-3.06-2.42-6.93-3.86-11.14-3.86-9.94 0-18 8.06-18 18s8.06 18 18 18c2.87 0 5.59-.67 8-1.87v5.87h-2v4h-12v-2.06c0-1.58-.95-3.01-2.41-3.61-.49-.2-1-.3-1.5-.3-1.03 0-2.03.4-2.78 1.15l-1.45 1.45-8.49-8.49 1.46-1.45c1.12-1.12 1.45-2.81.85-4.27-.3-.73-.82-1.34-1.45-1.76s-1.39-.66-2.18-.66h-2.05v-12h2.05c1.59 0 3.02-.96 3.63-2.42.2-.48.3-.99.3-1.5 0-1.02-.4-2.02-1.15-2.77l-1.46-1.45 8.49-8.49 1.45 1.46c1.12 1.12 2.8 1.45 4.27.85.73-.3 1.34-.82 1.76-1.45s.66-1.39.66-2.18v-2.05h12v2.06c0 1.58.95 3.01 2.41 3.61.49.2 1 .3 1.5.3 1.03 0 2.03-.4 2.78-1.15z" fill="#ffc729"/></g><g><path d="m33 31.59c0 .78.63 1.41 1.41 1.41h.59v18.13c-2.41 1.2-5.13 1.87-8 1.87-9.94 0-18-8.06-18-18s8.06-18 18-18c4.21 0 8.08 1.44 11.14 3.86l-5.14 5.14z" fill="#fcd770"/></g><g><path d="m60.59 30.59c.26.26.41.62.41 1 0 .78-.63 1.41-1.41 1.41h-.59-4-6-4-6-4-.59c-.78 0-1.41-.63-1.41-1.41 0-.38.15-.74.41-1l13.59-13.59z" fill="#cf9e76"/></g><g><path d="m61 26v5.59c0-.38-.15-.74-.41-1l-13.59-13.59-13.59 13.59c-.26.26-.41.62-.41 1v-5.59l5.14-5.14 5.74-5.74 3.12-3.12z" fill="#d3a06c"/></g><g><path d="m61 57v4h-28v-4h2 4 6 4 6 4z" fill="#aab2bd"/></g><g><path d="m55 33h4v24h-4z" fill="#ccd1d9"/></g><g><path d="m47 1h8v6h-8z" fill="#ff826e"/></g><g><path d="m45 33h4v24h-4z" fill="#ccd1d9"/></g><g><circle cx="47" cy="27" fill="#ff826e" r="2"/></g><g><path d="m39 33v24h-4v-5.87-18.13z" fill="#ccd1d9"/></g></g><g><circle cx="27" cy="13" r="1"/><path d="m11.444 20.444c.256 0 .512-.098.707-.293.391-.391.391-1.024 0-1.414-.195-.195-.451-.293-.707-.293s-.512.098-.707.293c-.391.391-.391 1.024 0 1.414.195.195.451.293.707.293z"/><circle cx="5" cy="35" r="1"/><path d="m11.444 49.556c-.256 0-.512.098-.707.293-.391.391-.391 1.024 0 1.414.195.195.451.293.707.293s.512-.098.707-.293c.391-.391.391-1.024 0-1.414-.195-.195-.451-.293-.707-.293z"/><circle cx="27" cy="57" r="1"/><path d="m32 30v-4h-4v-2h-2v2h-4v10h8v6h-6v-2h-2v4h4v2h2v-2h4v-10h-8v-6h6v2z"/><path d="m60 33.958c1.134-.198 2-1.183 2-2.372 0-.636-.258-1.258-.707-1.707l-14.293-14.293-14.293 14.293c-.449.449-.707 1.071-.707 1.707 0 1.189.866 2.174 2 2.372v16.512c-2.203 1-4.551 1.53-7 1.53-9.374 0-17-7.626-17-17s7.626-17 17-17c3.48 0 6.774 1.033 9.604 2.982l-4.311 4.311 1.414 1.414 13.293-13.293 13.293 13.293 1.414-1.414-13.707-13.707v-3.586h8v-8h-10v11.586l-2.115 2.115-2.742-2.742-2.156 2.155c-.841.841-2.092 1.087-3.189.635-1.093-.452-1.798-1.507-1.798-2.689v-3.06h-14v3.051c0 1.188-.709 2.248-1.805 2.702-1.094.451-2.339.203-3.175-.632l-2.163-2.162-9.898 9.898 2.159 2.16c.838.838 1.086 2.086.633 3.18-.453 1.096-1.512 1.803-2.696 1.803h-3.055v14h3.055c1.185 0 2.243.707 2.696 1.803.453 1.095.205 2.343-.633 3.18l-2.159 2.16 9.898 9.898 2.156-2.155c.84-.842 2.093-1.088 3.189-.635 1.093.452 1.798 1.507 1.798 2.689v3.06h42v-6h-2zm-12-31.958h6v4h-6zm8 54v-22h2v22zm-20-22h2v22h-2zm4 0h4v22h-4zm6 0h2v22h-2zm4 0h4v22h-4zm-15.879-2.707 12.879-12.879 12.879 12.879c.077.077.121.184.121.293 0 .228-.186.414-.414.414h-25.172c-.228 0-.414-.186-.414-.414 0-.109.044-.216.121-.293zm-2.121 28.707h-10v-1.06c0-1.994-1.19-3.775-3.032-4.537-1.849-.765-3.955-.346-5.368 1.068l-.742.741-7.07-7.07.745-.746c1.412-1.41 1.831-3.515 1.066-5.359-.764-1.845-2.548-3.037-4.544-3.037h-1.055v-10h1.055c1.996 0 3.78-1.192 4.544-3.037.764-1.844.346-3.947-1.066-5.359l-.745-.746 7.07-7.07.749.748c1.409 1.41 3.51 1.827 5.354 1.065 1.847-.765 3.04-2.551 3.04-4.55v-1.051h10v1.06c0 1.994 1.19 3.775 3.032 4.537 1.851.767 3.956.346 5.368-1.068l.742-.741 1.328 1.328-4.436 4.436c-3.231-2.318-7.022-3.552-11.035-3.552-10.477 0-19 8.523-19 19s8.523 19 19 19c2.432 0 4.778-.455 7-1.339v3.339h-2zm28 0h-26v-2h26z"/><path d="m47 30c1.654 0 3-1.346 3-3s-1.346-3-3-3-3 1.346-3 3 1.346 3 3 3zm0-4c.552 0 1 .448 1 1s-.448 1-1 1-1-.448-1-1 .448-1 1-1z"/></g></g></svg>