<svg height="512" viewBox="0 0 64 64" width="512" xmlns="http://www.w3.org/2000/svg"><g id="Flat"><path d="m55 61h-46a6 6 0 0 1 -6-6 6 6 0 0 1 6-6h46a6 6 0 0 1 6 6 6 6 0 0 1 -6 6z" fill="#1c8cc9"/><path d="m55 59h-46a4 4 0 0 1 -4-4 4 4 0 0 1 4-4h46a4 4 0 0 1 4 4 4 4 0 0 1 -4 4z" fill="#3eabdb"/><path d="m32 21v5" fill="none" stroke="#b3b3b3" stroke-linejoin="round" stroke-width="2"/><path d="m13 33 2-4-4-6-4 6 2 4" fill="none" stroke="#b3b3b3" stroke-linecap="round" stroke-linejoin="round" stroke-width="2"/><path d="m34 36 2-4-4-6-4 6 2 4" fill="none" stroke="#b3b3b3" stroke-linecap="round" stroke-linejoin="round" stroke-width="2"/><path d="m55 33 2-4-4-6-4 6 2 4" fill="none" stroke="#b3b3b3" stroke-linecap="round" stroke-linejoin="round" stroke-width="2"/><path d="m28 41h8v8h-8z" fill="#a67c52"/><path d="m11 14v9" fill="none" stroke="#b3b3b3" stroke-linejoin="round" stroke-width="2"/><path d="m11 14v2" fill="none" stroke="#999" stroke-linejoin="round" stroke-width="2"/><path d="m53 14v9" fill="none" stroke="#b3b3b3" stroke-linejoin="round" stroke-width="2"/><path d="m44 14h15a2 2 0 0 0 2-2 2 2 0 0 0 -2-2h-54a2 2 0 0 0 -2 2 2 2 0 0 0 2 2z" fill="#1c8cc9"/><path d="m41 10-2.601-.65 1.379-2.3-2.828-2.828-2.3 1.379-.65-2.601h-4l-.65 2.601-2.3-1.379-2.828 2.828 1.379 2.3-2.601.65v4l2.601.65-1.379 2.3 2.828 2.828 2.3-1.379.65 2.601h4l.65-2.601 2.3 1.379 2.828-2.828-1.379-2.3 2.601-.65z" fill="#f7931e"/><g fill="#b3b3b3"><circle cx="12" cy="55" r="2"/><circle cx="22" cy="55" r="2"/><circle cx="32" cy="55" r="2"/><circle cx="42" cy="55" r="2"/><circle cx="52" cy="55" r="2"/></g><circle cx="32" cy="12" fill="#e6e6e6" r="3"/><path d="m13 26h-4v-2a2 2 0 0 1 2-2 2 2 0 0 1 2 2z" fill="#f7931e"/><path d="m34 29h-4v-2a2 2 0 0 1 2-2 2 2 0 0 1 2 2z" fill="#f7931e"/><path d="m55 26h-4v-2a2 2 0 0 1 2-2 2 2 0 0 1 2 2z" fill="#f7931e"/><path d="m13 41h8v8h-8z" fill="#a67c52"/><path d="m17 41v3" fill="none" stroke="#c69c6d" stroke-linejoin="round" stroke-width="2"/><path d="m32 41v3" fill="none" stroke="#c69c6d" stroke-linejoin="round" stroke-width="2"/><path d="m42 41h8v8h-8z" fill="#a67c52"/><path d="m46 41v3" fill="none" stroke="#c69c6d" stroke-linejoin="round" stroke-width="2"/><path d="m22 10h1v4h-1z" fill="#137ea3"/><path d="m41 10h1v4h-1z" fill="#137ea3"/><path d="m32 21v2" fill="none" stroke="#999" stroke-linejoin="round" stroke-width="2"/><path d="m53 14v2" fill="none" stroke="#999" stroke-linejoin="round" stroke-width="2"/></g><g id="Outline"><path d="m55 48h-4v-7a1 1 0 0 0 -1-1h-8a1 1 0 0 0 -1 1v7h-4v-7a1 1 0 0 0 -1-1h-8a1 1 0 0 0 -1 1v7h-5v-7a1 1 0 0 0 -1-1h-8a1 1 0 0 0 -1 1v7h-3a7 7 0 0 0 0 14h46a7 7 0 0 0 0-14zm-12-6h2v2h2v-2h2v6h-6zm-14 0h2v2h2v-2h2v6h-6zm-15 0h2v2h2v-2h2v6h-6zm41 18h-46a5 5 0 0 1 0-10h46a5 5 0 0 1 0 10z"/><path d="m12 52a3 3 0 1 0 3 3 3 3 0 0 0 -3-3zm0 4a1 1 0 1 1 1-1 1 1 0 0 1 -1 1z"/><path d="m22 52a3 3 0 1 0 3 3 3 3 0 0 0 -3-3zm0 4a1 1 0 1 1 1-1 1 1 0 0 1 -1 1z"/><path d="m32 52a3 3 0 1 0 3 3 3 3 0 0 0 -3-3zm0 4a1 1 0 1 1 1-1 1 1 0 0 1 -1 1z"/><path d="m42 52a3 3 0 1 0 3 3 3 3 0 0 0 -3-3zm0 4a1 1 0 1 1 1-1 1 1 0 0 1 -1 1z"/><path d="m52 52a3 3 0 1 0 3 3 3 3 0 0 0 -3-3zm0 4a1 1 0 1 1 1-1 1 1 0 0 1 -1 1z"/><path d="m42 14v-4a1 1 0 0 0 -.757-.97l-1.293-.323.686-1.142a1 1 0 0 0 -.151-1.222l-2.828-2.828a1 1 0 0 0 -1.222-.151l-1.142.686-.323-1.292a1 1 0 0 0 -.97-.758h-4a1 1 0 0 0 -.97.758l-.323 1.292-1.142-.686a1 1 0 0 0 -1.222.151l-2.828 2.828a1 1 0 0 0 -.151 1.222l.686 1.142-1.293.323a1 1 0 0 0 -.757.97v4a1 1 0 0 0 .757.97l1.292.323-.685 1.142a1 1 0 0 0 .151 1.221l2.828 2.829a1 1 0 0 0 1.222.151l1.142-.686.323 1.292a1 1 0 0 0 .97.758h1v2.184a3 3 0 0 0 -2 2.816v1.7l-1.832 2.748a1 1 0 0 0 -.063 1l2 4a1 1 0 1 0 1.789-.894l-1.74-3.481 1.381-2.073h2.93l1.381 2.072-1.746 3.481a1 1 0 1 0 1.789.894l2-4a1 1 0 0 0 -.062-1l-1.827-2.747v-1.7a3 3 0 0 0 -2-2.816v-2.184h1a1 1 0 0 0 .97-.758l.323-1.292 1.142.686a1 1 0 0 0 1.222-.151l2.828-2.829a1 1 0 0 0 .151-1.221l-.685-1.142 1.292-.323a1 1 0 0 0 .757-.97zm-9 14h-2v-1a1 1 0 0 1 2 0zm7-14.781-1.844.462a1 1 0 0 0 -.615 1.484l.978 1.629-1.719 1.725-1.63-.978a1 1 0 0 0 -1.485.615l-.466 1.844h-2.438l-.461-1.844a1 1 0 0 0 -1.485-.615l-1.63.978-1.724-1.725.978-1.629a1 1 0 0 0 -.615-1.484l-1.844-.462v-2.438l1.844-.462a1 1 0 0 0 .615-1.484l-.978-1.63 1.724-1.725 1.63.979a1 1 0 0 0 1.485-.615l.461-1.844h2.438l.461 1.844a1 1 0 0 0 1.485.615l1.635-.979 1.724 1.725-.978 1.63a1 1 0 0 0 .615 1.484l1.839.462z"/><path d="m32 8a4 4 0 1 0 4 4 4 4 0 0 0 -4-4zm0 6a2 2 0 1 1 2-2 2 2 0 0 1 -2 2z"/><path d="m5 15h5v6.184a3 3 0 0 0 -2 2.816v1.7l-1.832 2.745a1 1 0 0 0 -.063 1l2 4a1 1 0 1 0 1.789-.894l-1.74-3.481 1.381-2.07h2.93l1.381 2.072-1.741 3.481a1 1 0 1 0 1.789.894l2-4a1 1 0 0 0 -.062-1l-1.832-2.747v-1.7a3 3 0 0 0 -2-2.816v-6.184h7.871v-2h-14.871a1 1 0 0 1 0-2h14.968v-2h-14.968a3 3 0 0 0 0 6zm7 10h-2v-1a1 1 0 0 1 2 0z"/><path d="m59 9h-15.032v2h15.032a1 1 0 0 1 0 2h-15v2h8v6.184a3 3 0 0 0 -2 2.816v1.7l-1.832 2.748a1 1 0 0 0 -.063 1l2 4a1 1 0 1 0 1.789-.894l-1.74-3.481 1.381-2.073h2.93l1.381 2.072-1.741 3.481a1 1 0 1 0 1.789.894l2-4a1 1 0 0 0 -.062-1l-1.832-2.747v-1.7a3 3 0 0 0 -2-2.816v-6.184h5a3 3 0 0 0 0-6zm-5 16h-2v-1a1 1 0 0 1 2 0z"/></g></svg>