<svg id="Layer_5" enable-background="new 0 0 62 61.651" height="512" viewBox="0 0 62 61.651" width="512" xmlns="http://www.w3.org/2000/svg"><g><g><g><path d="m7 50.651v4c0 1.1-.9 2-2 2h-2c-1.1 0-2-.9-2-2v-8c0-1.1.9-2 2-2h2c1.1 0 2 .9 2 2z" fill="#969faa"/></g><g><path d="m31 46.651v8c0 .07 0 .14-.01.2-.1 1.01-.96 1.8-1.99 1.8h-2c-1.1 0-2-.9-2-2v-4-4c0-1.1.9-2 2-2h2c1.1 0 2 .9 2 2z" fill="#969faa"/></g><g><path d="m31 16.651v8c0 .12-.01.24-.03.36-.18.93-.99 1.64-1.97 1.64h-2c-1.1 0-2-.9-2-2v-4-4c0-1.1.9-2 2-2h2c1.1 0 2 .9 2 2z" fill="#969faa"/></g><g><path d="m7 20.651v4c0 1.1-.9 2-2 2h-2c-1.1 0-2-.9-2-2v-8c0-1.1.9-2 2-2h2c1.1 0 2 .9 2 2z" fill="#969faa"/></g><g><path d="m56 56.651c0 1.1-.45 2.1-1.17 2.83-.73.72-1.73 1.17-2.83 1.17h-4v-6-6h-8v6h-2v6h-2c-2.21 0-4-1.79-4-4l.12-1.65c1.45-4.49 2.32-5.76 3.39-6.84 2.17-2.17 5.17-3.51 8.49-3.51s6.32 1.34 8.49 3.51 3.51 5.17 3.51 8.49z" fill="#b4dd7f"/></g><g><path d="m57 26.651h-8.31c-1.08-6.56-4.69-8-4.69-8h5c4.42 0 8 3.58 8 8z" fill="#ff826e"/></g><g><path d="m39 18.651h5s-5 2-5 12h-4-4v-4c0-.55.06-1.09.16-1.61.75-3.65 3.97-6.39 7.84-6.39z" fill="#ff826e"/></g><g><path d="m48.69 26.651h-2.13c-.92 0-1.72.62-1.94 1.51l-.62 2.49h-5c0-10 5-12 5-12s3.61 1.44 4.69 8z" fill="#fc6e51"/></g><g><path d="m59 26.651c1.1 0 2 .9 2 2 0 .55-.22 1.05-.59 1.41-.36.37-.86.59-1.41.59h-6-9l.62-2.49c.22-.89 1.02-1.51 1.94-1.51h2.13 8.31z" fill="#fc6e51"/></g><g><path d="m18 41.651v3h-4v-3c0-.55.45-1 1-1h1 1c.55 0 1 .45 1 1z" fill="#fcd770"/></g><g><path d="m19 20.651v2c0 1.1-.9 2-2 2h-1-1c-1.1 0-2-.9-2-2v-4c0-1.1.9-2 2-2h2c1.1 0 2 .9 2 2z" fill="#ffeaa7"/></g><g><path d="m19 44.651h-6c-1.1 0-2 .9-2 2v8c0 1.1.9 2 2 2h6c1.1 0 2-.9 2-2v-8c0-1.1-.9-2-2-2z" fill="#ffeaa7"/></g><g><path d="m15 48.651v4h-4v-2-2z" fill="#fcd770"/></g><g><path d="m44 57.651c0-1.66-1.34-3-3-3h-1v-6h8v6 6h-7c.83 0 1.58-.34 2.12-.88s.88-1.29.88-2.12z" fill="#e6e9ed"/></g><g><path d="m40 54.651h1c1.66 0 3 1.34 3 3 0 .83-.34 1.58-.88 2.12s-1.29.88-2.12.88h-1-2v-6z" fill="#f0d0b4"/></g><g><path d="m55.83 37.481c-.73.72-1.73 1.17-2.83 1.17h-.25c.16-.64.25-1.31.25-2v-6c2.21 0 4 1.79 4 4 0 1.1-.45 2.1-1.17 2.83z" fill="#f0d0b4"/></g><g><path d="m44 30.651h9v6c0 .69-.09 1.36-.25 2-.89 3.45-4.02 6-7.75 6h-1-1c-3.73 0-6.86-2.55-7.75-6-.16-.64-.25-1.31-.25-2v-6h4z" fill="#f0d0b4"/></g><g><path d="m35.25 38.651h-.25c-1.1 0-2.1-.45-2.83-1.17-.72-.73-1.17-1.73-1.17-2.83 0-2.21 1.79-4 4-4v6c0 .69.09 1.36.25 2z" fill="#f0d0b4"/></g><g><path d="m59 10.651h-8v-8h8v.33z" fill="#e6e9ed"/></g><g><path d="m47 2.981v7.67h-8v-8h8z" fill="#e6e9ed"/></g><g><path d="m35 2.981v7.67h-8v-8h8z" fill="#e6e9ed"/></g></g><g><path d="m59 25.651h-1.055c-.499-4.494-4.32-8-8.945-8h-10c-2.826 0-5.349 1.312-7 3.356v-4.356c0-1.654-1.346-3-3-3h-2c-1.654 0-3 1.346-3 3v3h-4v-1c0-1.654-1.346-3-3-3h-2c-1.654 0-3 1.346-3 3v1h-4v-3c0-1.654-1.346-3-3-3h-2c-1.654 0-3 1.346-3 3v8c0 1.654 1.346 3 3 3h2c1.654 0 3-1.346 3-3v-3h4v1c0 1.654 1.346 3 3 3v14c-1.103 0-2 .897-2 2v2c-1.654 0-3 1.346-3 3v3h-2v-3c0-1.654-1.346-3-3-3h-2c-1.654 0-3 1.346-3 3v8c0 1.654 1.346 3 3 3h2c1.654 0 3-1.346 3-3v-3h2v3c0 1.654 1.346 3 3 3h6c1.654 0 3-1.346 3-3v-3h2v3c0 1.654 1.346 3 3 3h2c.781 0 1.486-.307 2.021-.797.109 2.661 2.292 4.797 4.979 4.797h4 1 7 1 3c2.757 0 5-2.243 5-5 0-5.376-3.28-10-7.944-11.977 2.064-1.048 3.667-2.864 4.437-5.073 2.523-.252 4.507-2.362 4.507-4.95 0-1.13-.391-2.162-1.026-3h2.026c1.654 0 3-1.346 3-3s-1.346-3-3-3zm-53-1c0 .551-.449 1-1 1h-2c-.551 0-1-.449-1-1v-8c0-.551.449-1 1-1h2c.551 0 1 .449 1 1zm0 30c0 .551-.449 1-1 1h-2c-.551 0-1-.449-1-1v-8c0-.551.449-1 1-1h2c.551 0 1 .449 1 1zm49.929-29h-6.416c-.611-2.899-1.703-4.796-2.731-6h2.218c3.521 0 6.442 2.612 6.929 6zm-11.929-5.861c.785.509 2.573 2.048 3.471 5.861h-.91c-1.379 0-2.576.935-2.911 2.272l-.432 1.728h-3.19c.25-6.818 2.954-9.207 3.972-9.861zm-5-.139h2.211c-1.436 1.687-2.997 4.739-3.179 10h-6.032v-3c0-3.86 3.14-7 7-7zm-5 12.184v4.816c0 .28.017.555.042.829-1.183-.403-2.042-1.512-2.042-2.829 0-1.302.839-2.402 2-2.816zm-8-15.184c0-.551.449-1 1-1h2c.551 0 1 .449 1 1v8c0 .551-.449 1-1 1h-2c-.551 0-1-.449-1-1zm-12 6v-4c0-.551.449-1 1-1h2c.551 0 1 .449 1 1v4c0 .551-.449 1-1 1h-2c-.551 0-1-.449-1-1zm1 19h2v2h-2zm-3 8h2v2h-2zm8 5c0 .551-.449 1-1 1h-6c-.551 0-1-.449-1-1v-1h4v-6h-4v-1c0-.551.449-1 1-1h6c.551 0 1 .449 1 1zm10 0c0 .551-.449 1-1 1h-2c-.551 0-1-.449-1-1v-8c0-.551.449-1 1-1h2c.551 0 1 .449 1 1zm2-2.992v-5.008c0-1.654-1.346-3-3-3h-2c-1.654 0-3 1.346-3 3v3h-2v-3c0-1.654-1.346-3-3-3v-2c0-1.103-.897-2-2-2v-14c1.654 0 3-1.346 3-3v-1h4v3c0 1.654 1.346 3 3 3h2c.352 0 .686-.072 1-.184v4.184h1.026c-.635.838-1.026 1.87-1.026 3 0 2.588 1.984 4.698 4.507 4.95.77 2.209 2.374 4.026 4.437 5.073-3.13 1.326-5.634 3.847-6.944 6.985zm8 7.992h-1v-4h2c1.103 0 2 .897 2 2s-.897 2-2 2zm7 0h-2.556c.345-.591.556-1.268.556-2 0-2.206-1.794-4-4-4v-4h6zm8-3c0 1.654-1.346 3-3 3h-3v-4h2.764l1.789.895.895-1.789-1.448-.724v-2.382h-2v2h-2v-6h-10v6h-2v-2h-2v2.586l-1.707 1.707 1.414 1.414 1.707-1.707h.586v4h-1c-1.654 0-3-1.346-3-3 0-6.065 4.935-11 11-11s11 4.934 11 11zm-10-13h-2c-3.86 0-7-3.14-7-7v-5h4 8 4v5c0 3.86-3.14 7-7 7zm8.958-6.171c.025-.274.042-.549.042-.829v-4.816c1.161.414 2 1.514 2 2.816 0 1.317-.859 2.426-2.042 2.829zm5.042-7.829h-13.719l.311-1.242c.111-.446.51-.758.97-.758h12.438c.551 0 1 .449 1 1s-.449 1-1 1z"/><path d="m46 38.415c-.381.763-1.147 1.236-2 1.236s-1.619-.474-2-1.236l-.105-.211-1.789.895.105.211c.722 1.444 2.174 2.342 3.789 2.342s3.067-.897 3.789-2.342l.105-.211-1.789-.895z"/><path d="m45 34.651h2c0-.551.449-1 1-1s1 .449 1 1h2c0-1.654-1.346-3-3-3s-3 1.346-3 3z"/><path d="m37 34.651h2c0-.551.449-1 1-1s1 .449 1 1h2c0-1.654-1.346-3-3-3s-3 1.346-3 3z"/><path d="m36 3.354 1.759-2.052-1.518-1.302-1.415 1.651h-8.826v10h10zm-8 6.297v-6h5.111l-2.168 2.529-1.236-1.236-1.414 1.414 2.764 2.764 2.943-3.434v3.963z"/><path d="m48 3.354 1.759-2.052-1.518-1.302-1.415 1.651h-8.826v10h10zm-8 6.297v-6h5.111l-2.168 2.529-1.236-1.236-1.414 1.414 2.764 2.764 2.943-3.434v3.963z"/><path d="m60 3.354 1.759-2.052-1.518-1.302-1.415 1.651h-8.826v10h10zm-8 6.297v-6h5.111l-2.168 2.529-1.236-1.236-1.414 1.414 2.764 2.764 2.943-3.434v3.963z"/><circle cx="18" cy="52.651" r="1"/><circle cx="18" cy="48.651" r="1"/></g></g></svg>