<svg id="Capa_1" enable-background="new 0 0 520.89 520.89" height="512" viewBox="0 0 520.89 520.89" width="512" xmlns="http://www.w3.org/2000/svg"><g><g><path d="m168.515 259.445h314.875v67h-314.875z" fill="#8ca3b7"/><path d="m348.39 259.445h135v67h-135z" fill="#57758d"/><path d="m138.515 326.383h374.875v33.396h-374.875z" fill="#ffc277"/><path d="m493.39 326.383h20v33.396h-20z" fill="#eb975d"/><path d="m214.684 437.445c12.002 0 21.101 2.336 28.706 5.875v-83.542h-60v84.818c8.12-4.244 17.901-7.151 31.294-7.151z" fill="#8ca3b7"/><path d="m243.39 443.321v-83.542h-20v78.111c7.878.835 14.35 2.802 20 5.431z" fill="#57758d"/><path d="m413.487 437.445c28.296 0 40.484 12.964 54.904 24.131v-101.797h-60v77.819c1.641-.097 3.334-.153 5.096-.153z" fill="#8ca3b7"/><path d="m468.39 461.576v-101.797h-20v86.847c7.352 4.431 13.447 9.875 20 14.95z" fill="#57758d"/><path d="m15.89 437.445c49.699 0 49.699 40 99.398 40 49.698 0 49.698-40 99.396-40 49.699 0 49.699 40 99.399 40 49.702 0 49.702-40 99.404-40s49.702 40 99.404 40v39h-497v-79z" fill="#8ad8f6"/><path d="m436.2 259.445-27.526-178h-45.568l-27.526 178h-32.38l32.474-210h100.432l32.474 210z" fill="#eb975d"/><path d="m315.58 259.445h20l27.526-178h-20z" fill="#d9694b"/><path d="m436.106 49.445h-20l32.474 210h20z" fill="#d9694b"/><path d="m303.2 259.445h-104.685v-66h114.891z" fill="#ffc277"/><path d="m293.406 193.445-10.206 66h20l10.206-66z" fill="#eb975d"/><path d="m288.628 193.445h-75.351l15.238-134.937h44.875z" fill="#eb975d"/><path d="m273.39 58.508h-20l15.238 134.937h20z" fill="#d9694b"/><path d="m15.89 437.445c49.699 0 49.699 40 99.398 40 49.698 0 49.698-40 99.396-40 49.699 0 49.699 40 99.399 40 49.702 0 49.702-40 99.404-40s49.702 40 99.404 40v39h-497v-79z" fill="#8ad8f6"/><path d="m492.89 474.831v41.614h20v-39c-7.749 0-14.29-.973-20-2.614z" fill="#2dc2f1"/></g><g><g><path d="m458.39 300.445h-14.375v-15h14.375zm-29.375 0h-15v-15h15zm-30 0h-15v-15h15z" fill="#fff"/></g><g><path d="m475.89 395.445v-28.167h45v-48.396h-30v-51.938h22.5v-15h-38.38l-19.232-124.364-14.824 2.293 18.877 122.072h-17.202l-27.526-178h-58.427l-27.526 178h-17.202l30.154-195h87.573l8.948 57.865 14.824-2.293-10.914-70.572h-49.143v-37.5h-15v37.5h-49.145l-22.268 144h-11.648l-4.065-36h7.252v-15h-8.946l-3.35-29.667h3.296v-15h-4.99l-4.435-39.271h-58.276l-4.435 39.271h-4.99v15h3.296l-3.35 29.667h-8.946v15h7.252l-3.912 34.642-163.861-131.583-42.869 40.116 142.031 158.825h-3.516v15h22.5v51.938h-30v48.396h44.875v72.951c-5.853 3.524-10.85 7.544-15.607 11.373-12.229 9.843-22.79 18.343-44.996 18.343s-32.768-8.5-44.996-18.343c-12.613-10.151-26.909-21.657-54.401-21.657v15c22.206 0 32.767 8.5 44.996 18.343 12.613 10.151 26.909 21.657 54.401 21.657s41.788-11.506 54.401-21.657c12.229-9.843 22.79-18.343 44.995-18.343 22.207 0 32.768 8.5 44.997 18.343 12.613 10.151 26.909 21.657 54.402 21.657 27.494 0 41.791-11.506 54.404-21.657 12.23-9.843 22.792-18.343 45-18.343s32.77 8.5 45 18.343c12.613 10.151 26.91 21.657 54.404 21.657v-15c-17.305 0-27.538-5.162-37-12.098v-47.465h-15v35.715c-10.752-8.093-23.849-15.591-45-16.121v-62.699h45v28.167zm-55.243-187.5h-27.257v-29.938h22.628zm-6.949-44.937h-20.308v-30.062h15.659zm-35.308 0h-20.308l4.649-30.062h15.659zm0 15v29.938h-27.257l4.63-29.938zm0 44.937v29h-34.061l4.485-29zm97.5 44v51.938h-120v-51.938zm-82.5-15v-29h29.577l4.485 29zm13.34-134h-13.34v-29h8.855zm-28.34-29v29h-13.34l4.485-29zm-143.174-22.937h31.474l2.741 24.271h-36.955zm-4.435 39.27h40.343l3.35 29.667h-47.043zm45.387 44.667 4.065 36h-58.562l4.065-36zm-114.015 102-.783-.876-.299-83.911 23.395 18.787h-12.326v15h18.875v51zm-68.609-127.296 3.919 54.955-28.54-31.915zm-29.167 6.749-9.802-49.757 33.891 27.215zm44.232-6.367 33.467 26.875-29.577 27.678zm37.468 43.674.233 65.523-32.006-35.791zm-107.578-91.069 9.103 46.211-26.645-29.795zm137.516 189.309h57.375v-15h-27.375v-51h98.642l-7.887 51h-47.38v15h91.5v51.938h-30v-34.438h-15v34.438h-29.875v-34.438h-15v34.438h-30.125v-34.438h-15v34.438h-29.875zm-30 85.333v-18.396h172.438v18.396zm180.003 49.603-56.159-34.603h112.135zm74.872-28.649v57.604c-7.272 1.07-13.46 3.041-18.902 5.532l-41.682-25.683zm-142.296 70.33c-2.415-1.686-4.964-3.314-7.703-4.822v-65.532l60.855 37.497zm-67.704-10.167v-66.117h45v65.355c-6.117-1.678-13.082-2.688-21.207-2.688-9.291 0-17.071 1.317-23.793 3.45zm123.193 36.55c-20.873 0-31.458-7.51-42.809-16.586l54.759-33.851 41.457 25.544c-2.953 2.162-5.719 4.387-8.407 6.55-12.23 9.843-22.792 18.343-45 18.343zm19.37-117.667v-18.396h172.437v18.396z"/><path d="m228.515 215.445h55v15h-55z"/></g></g></g></svg>