<svg id="_x33_0" enable-background="new 0 0 62 62" height="512" viewBox="0 0 62 62" width="512" xmlns="http://www.w3.org/2000/svg"><g><g><g><path d="m53 24v4c0 .55-.45 1-1 1h-1-12-1c-.55 0-1-.45-1-1v-4c0-.55.45-1 1-1h14c.55 0 1 .45 1 1z" fill="#ccd1d9"/></g><g><path d="m60.9 49h-.01-8.89-9c0-2.21-1.79-4-4-4s-4 1.79-4 4h-5.89-.01c.21-1.45.72-2.81 1.47-4.03 1.01-1.63 2.46-2.98 4.24-3.87l4.19-2.1v-10h12v10l4.19 2.1c3.11 1.55 5.22 4.52 5.71 7.9z" fill="#e6e9ed"/></g><g><path d="m60.9 49h-.01-31.78-.01c-.06.49-.1.99-.1 1.49 0 5.81 4.7 10.51 10.51 10.51h10.98c2.91 0 5.53-1.18 7.43-3.08s3.08-4.52 3.08-7.43c0-.5-.04-1-.1-1.49z" fill="#69d6f4"/></g><g><circle cx="33" cy="17" fill="#4fc1e9" r="2"/></g><g><circle cx="53" cy="17" fill="#4fc1e9" r="2"/></g><g><circle cx="44" cy="8" fill="#4fc1e9" r="7"/></g><g><path d="m43 49h-8c0-2.21 1.79-4 4-4s4 1.79 4 4z" fill="#4fc1e9"/></g><g><circle cx="52" cy="52" fill="#4fc1e9" r="3"/></g><g><circle cx="37" cy="55" fill="#4fc1e9" r="2"/></g><g><path d="m27 56v4c0 .55-.45 1-1 1h-24c-.55 0-1-.45-1-1v-4c0-.55.45-1 1-1h12 12c.55 0 1 .45 1 1z" fill="#ccd1d9"/></g><g><path d="m21 38v5h-14v-5c0-3.87 3.13-7 7-7 1.94 0 3.68.78 4.95 2.05s2.05 3.01 2.05 4.95z" fill="#b4dd7f"/></g><g><path d="m21 43v5c0 3.87-3.13 7-7 7s-7-3.13-7-7v-5z" fill="#ff826e"/></g><g><path d="m27 8v10c0 1.66-1.34 3-3 3h-7l-.76 3.03c-.14.57-.65.97-1.24.97s-1.1-.4-1.24-.97l-.76-3.03h-7c-1.66 0-3-1.34-3-3v-10c0-1.66 1.34-3 3-3h18c1.66 0 3 1.34 3 3z" fill="#ffeaa7"/></g><g><path d="m19 12v2c0 .55-.45 1-1 1h-1v1c0 .55-.45 1-1 1h-2c-.55 0-1-.45-1-1v-1h-1c-.55 0-1-.45-1-1v-2c0-.55.45-1 1-1h1v-1c0-.55.45-1 1-1h2c.55 0 1 .45 1 1v1h1c.55 0 1 .45 1 1z" fill="#ff826e"/></g></g><g><path d="m55.64 40.201-3.64-1.819v-8.382c1.103 0 2-.897 2-2v-4c0-1.103-.897-2-2-2h-14c-1.103 0-2 .897-2 2v4c0 1.103.897 2 2 2v8.382l-3.64 1.819c-3.922 1.962-6.36 5.906-6.36 10.292 0 6.345 5.162 11.507 11.507 11.507h10.986c6.345 0 11.507-5.162 11.507-11.507 0-4.386-2.437-8.33-6.36-10.292zm-17.64-16.201h14l.001 4h-14.001zm-2.745 17.99 4.745-2.372v-9.618h10v9.618l4.745 2.372c2.474 1.237 4.224 3.431 4.918 6.01h-15.764c-.465-2.279-2.484-4-4.899-4s-4.434 1.721-4.899 4h-3.765c.695-2.579 2.445-4.773 4.919-6.01zm18.745 10.01c0 1.103-.897 2-2 2s-2-.897-2-2 .897-2 2-2 2 .897 2 2zm-12.184-4h-5.631c.414-1.161 1.514-2 2.816-2s2.401.839 2.815 2zm8.677 12h-10.986c-5.242 0-9.507-4.265-9.507-9.507 0-.167.026-.328.034-.493h18.522c-.344.591-.556 1.268-.556 2 0 2.206 1.794 4 4 4s4-1.794 4-4c0-.732-.212-1.409-.556-2h4.522c.008.165.034.326.034.493 0 5.242-4.265 9.507-9.507 9.507z"/><path d="m37 52c-1.654 0-3 1.346-3 3s1.346 3 3 3 3-1.346 3-3-1.346-3-3-3zm0 4c-.552 0-1-.448-1-1s.448-1 1-1 1 .448 1 1-.448 1-1 1z"/><path d="m50 17c0 1.654 1.346 3 3 3s3-1.346 3-3-1.346-3-3-3-3 1.346-3 3zm3-1c.552 0 1 .449 1 1s-.448 1-1 1-1-.449-1-1 .448-1 1-1z"/><path d="m33 20c1.654 0 3-1.346 3-3s-1.346-3-3-3-3 1.346-3 3 1.346 3 3 3zm0-4c.552 0 1 .449 1 1s-.448 1-1 1-1-.449-1-1 .448-1 1-1z"/><path d="m44 16c4.411 0 8-3.589 8-8s-3.589-8-8-8-8 3.589-8 8 3.589 8 8 8zm0-14c3.309 0 6 2.691 6 6s-2.691 6-6 6-6-2.691-6-6 2.691-6 6-6z"/><path d="m46 8h2c0-2.206-1.794-4-4-4v2c1.103 0 2 .897 2 2z"/><path d="m26 54h-6.726c1.667-1.467 2.726-3.61 2.726-6v-10c0-4.411-3.589-8-8-8s-8 3.589-8 8v10c0 2.39 1.059 4.533 2.726 6h-6.726c-1.103 0-2 .897-2 2v4c0 1.103.897 2 2 2h24c1.103 0 2-.897 2-2v-4c0-1.103-.897-2-2-2zm-12-22c3.309 0 6 2.691 6 6v4h-12v-4c0-3.309 2.691-6 6-6zm-6 16v-4h12v4c0 3.309-2.691 6-6 6s-6-2.691-6-6zm-6 12v-4h24l.002 4z"/><path d="m24 34h2v2h-2z"/><path d="m28 34h2v2h-2z"/><path d="m32 34h2v2h-2z"/><path d="m12 16c0 1.103.897 2 2 2h2c1.103 0 2-.897 2-2 1.103 0 2-.897 2-2v-2c0-1.103-.897-2-2-2 0-1.103-.897-2-2-2h-2c-1.103 0-2 .897-2 2-1.103 0-2 .897-2 2v2c0 1.103.897 2 2 2zm0-4h2v-2h2v2h2v2h-2v2h-2v-2h-2z"/><path d="m6 22h6.22l.568 2.272c.254 1.018 1.164 1.728 2.212 1.728s1.958-.71 2.212-1.728l.568-2.272h6.22c2.206 0 4-1.794 4-4v-10c0-2.206-1.794-4-4-4h-18c-2.206 0-4 1.794-4 4v10c0 2.206 1.794 4 4 4zm-2-14c0-1.103.897-2 2-2h18c1.103 0 2 .897 2 2v10c0 1.103-.897 2-2 2h-7.78l-.947 3.787c-.063.251-.482.251-.545 0l-.948-3.787h-7.78c-1.103 0-2-.897-2-2z"/></g></g></svg>