<?xml version="1.0" encoding="UTF-8"?>
<svg xmlns="http://www.w3.org/2000/svg" xmlns:xlink="http://www.w3.org/1999/xlink" version="1.1" id="Capa_1" x="0px" y="0px" viewBox="0 0 512 512" style="enable-background:new 0 0 512 512;" xml:space="preserve" width="512" height="512">
<g>
	<path style="fill:#FF7383;" d="M72.039,124.595H169.8h97.101l44.526-6.293c-4.668-7.186-10.911-14.012-13.266-21.265&#10;&#9;&#9;c-4.101-12.629,1.383-30.261-6.268-40.773c-7.727-10.617-26.242-10.814-36.859-18.541c-10.512-7.65-16.378-25.241-29.008-29.342&#10;&#9;&#9;c-12.185-3.956-27.215,6.698-40.719,6.698s-28.534-10.654-40.72-6.697c-12.629,4.101-18.495,21.691-29.007,29.342&#10;&#9;&#9;c-10.617,7.727-29.132,7.923-36.859,18.541c-7.65,10.512-2.167,28.144-6.268,40.773c-2.355,7.253-8.598,14.079-13.266,21.265&#10;&#9;&#9;L72.039,124.595z"/>
	<path style="fill:#FF546A;" d="M53.567,133.706c0,13.505,14.931,24.485,18.887,36.67c4.101,12.629-1.383,30.26,6.268,40.773&#10;&#9;&#9;c7.727,10.617,26.242,10.814,36.859,18.541c10.512,7.65,16.378,25.241,29.008,29.342c12.185,3.956,27.215-6.697,40.719-6.697&#10;&#9;&#9;c13.505,0,28.534,10.654,40.72,6.697c12.629-4.101,18.495-21.691,29.007-29.342c10.617-7.727,29.132-7.923,36.859-18.541&#10;&#9;&#9;c7.65-10.512,2.167-28.144,6.268-40.773c3.957-12.185,18.887-23.166,18.887-36.67c0-5.466-2.447-10.519-5.621-15.405H59.188&#10;&#9;&#9;C56.013,123.188,53.567,128.24,53.567,133.706z"/>
	<path style="fill:none;stroke:#000000;stroke-width:15;stroke-linecap:round;stroke-linejoin:round;stroke-miterlimit:10;" d="&#10;&#9;&#9;M317.048,133.706c0,13.504-14.931,24.484-18.887,36.67c-4.101,12.629,1.383,30.261-6.268,40.773&#10;&#9;&#9;c-7.727,10.617-26.242,10.814-36.859,18.541c-10.512,7.65-16.378,25.241-29.007,29.342c-12.185,3.957-27.215-6.697-40.72-6.697&#10;&#9;&#9;c-13.504,0-28.534,10.654-40.719,6.698c-12.629-4.101-18.495-21.691-29.008-29.342c-10.617-7.727-29.132-7.923-36.859-18.541&#10;&#9;&#9;c-7.65-10.512-2.167-28.144-6.268-40.773c-3.957-12.186-18.887-23.166-18.887-36.67c0-13.504,14.931-24.484,18.887-36.67&#10;&#9;&#9;c4.101-12.629-1.383-30.261,6.268-40.773c7.727-10.617,26.242-10.814,36.859-18.541c10.512-7.65,16.378-25.241,29.007-29.342&#10;&#9;&#9;c12.185-3.957,27.215,6.697,40.72,6.697c13.504,0,28.534-10.654,40.719-6.697c12.629,4.101,18.495,21.691,29.008,29.342&#10;&#9;&#9;c10.617,7.727,29.132,7.923,36.859,18.541c7.65,10.512,2.167,28.144,6.268,40.773C302.117,109.222,317.048,120.202,317.048,133.706&#10;&#9;&#9;z"/>
	<path style="fill:#FFE270;" d="M122.395,118.301l17.681,8.605h97.431l10.713-8.605c-6.915-28.333-32.451-49.366-62.913-49.366&#10;&#9;&#9;S129.309,89.969,122.395,118.301L122.395,118.301z"/>
	<path style="fill:#FFD250;" d="M120.536,133.706c0,35.772,28.999,64.771,64.771,64.771s64.771-28.999,64.771-64.771&#10;&#9;&#9;c0-5.31-0.653-10.466-1.859-15.405H122.395C121.189,123.24,120.536,128.396,120.536,133.706z"/>
	<path style="fill:none;stroke:#000000;stroke-width:15;stroke-linecap:round;stroke-linejoin:round;stroke-miterlimit:10;" d="&#10;&#9;&#9;M137.679,89.823c-10.639,11.541-17.143,26.95-17.143,43.883c0,35.772,28.999,64.771,64.771,64.771s64.771-28.999,64.771-64.771&#10;&#9;&#9;c0-35.772-28.999-64.771-64.771-64.771c-8.326,0-16.277,1.588-23.589,4.45"/>
	<path style="fill:#FFAB56;" d="M328.123,403.111H41.847c-5.182,0-9.383-4.201-9.383-9.383V146.204c0-5.182,4.201-9.383,9.383-9.383&#10;&#9;&#9;h286.921c5.182,0,9.383,4.201,9.383,9.383v246.879C338.151,398.621,333.661,403.111,328.123,403.111z"/>
	<path style="fill:#FF982A;" d="M328.768,136.82h-26.479c5.182,0,9.383,4.201,9.383,9.383v247.524c0,5.182-4.201,9.383-9.383,9.383&#10;&#9;&#9;h25.834c5.539,0,10.028-4.49,10.028-10.028V146.204C338.151,141.021,333.95,136.82,328.768,136.82z"/>
	<path style="fill:none;stroke:#000000;stroke-width:15;stroke-linecap:round;stroke-linejoin:round;stroke-miterlimit:10;" d="&#10;&#9;&#9;M199.807,403.111h128.315c5.539,0,10.028-4.49,10.028-10.028V146.204c0-5.182-4.201-9.383-9.383-9.383H41.847&#10;&#9;&#9;c-5.182,0-9.384,4.201-9.384,9.383v247.524c0,5.182,4.201,9.383,9.384,9.383h128.96"/>
	<path style="fill:#6C5E69;" d="M201.819,196.73h-33.024c-2.84,0-5.142-2.302-5.142-5.142V136.82h43.308v54.768&#10;&#9;&#9;C206.962,194.428,204.659,196.73,201.819,196.73z"/>
	<path style="fill:none;stroke:#000000;stroke-width:15;stroke-linecap:round;stroke-linejoin:round;stroke-miterlimit:10;" d="&#10;&#9;&#9;M201.819,196.73h-33.024c-2.84,0-5.142-2.302-5.142-5.142V136.82h43.308v54.768C206.962,194.428,204.659,196.73,201.819,196.73z"/>
	
		<line style="fill:none;stroke:#000000;stroke-width:15;stroke-linecap:round;stroke-linejoin:round;stroke-miterlimit:10;" x1="83.366" y1="360.201" x2="158.434" y2="360.201"/>
	<g>
		<path style="fill:#FF7383;" d="M79.7,403.111L46.401,490.71c-1.386,3.645,2.268,7.177,5.864,5.667l36.913-15.495&#10;&#9;&#9;&#9;c1.411-0.592,3.027-0.416,4.277,0.467l31.617,22.331c2.899,2.048,6.91,0.031,6.995-3.517l2.327-97.052H79.7z"/>
		<polygon style="fill:#FF546A;" points="71.622,424.362 133.884,424.362 134.394,403.111 79.7,403.111 &#9;&#9;"/>
		<path style="fill:none;stroke:#000000;stroke-width:15;stroke-linecap:round;stroke-linejoin:round;stroke-miterlimit:10;" d="&#10;&#9;&#9;&#9;M79.7,403.111L46.401,490.71c-1.386,3.645,2.268,7.177,5.864,5.667l36.913-15.495c1.411-0.592,3.027-0.416,4.277,0.467&#10;&#9;&#9;&#9;l31.617,22.331c2.899,2.048,6.91,0.031,6.995-3.517l2.327-97.052H79.7z"/>
	</g>
	<g>
		<path style="fill:#FF7383;" d="M290.915,403.111l33.299,87.599c1.386,3.645-2.268,7.177-5.864,5.667l-36.913-15.495&#10;&#9;&#9;&#9;c-1.411-0.592-3.027-0.416-4.277,0.467l-31.617,22.331c-2.899,2.048-6.91,0.031-6.995-3.517l-2.327-97.052H290.915z"/>
		<polygon style="fill:#FF546A;" points="298.993,424.362 236.731,424.362 236.221,403.111 290.915,403.111 &#9;&#9;"/>
		<path style="fill:none;stroke:#000000;stroke-width:15;stroke-linecap:round;stroke-linejoin:round;stroke-miterlimit:10;" d="&#10;&#9;&#9;&#9;M290.915,403.111l33.299,87.599c1.386,3.645-2.268,7.177-5.864,5.667l-36.913-15.495c-1.411-0.592-3.027-0.416-4.277,0.467&#10;&#9;&#9;&#9;l-31.617,22.331c-2.899,2.048-6.91,0.031-6.995-3.517l-2.327-97.052H290.915z"/>
	</g>
	<path style="fill:#A2DBFF;" d="M355.404,472.908l25.726-4.708l27.188-21.895l41.865-56.06l9.624-70.737l-13.474-33.444&#10;&#9;&#9;l-78.677-25.023l-25.885,1.817l0,0l-71.69,26.163c-5.413,1.975-9.014,7.123-9.014,12.885v16.598&#10;&#9;&#9;c0,61.843,32.993,118.988,86.55,149.909L355.404,472.908L355.404,472.908z"/>
	<path style="fill:#64CAFF;" d="M470.522,289.021l-95.518-34.858c-3.037-1.108-6.368-1.108-9.405,0l-23.828,8.696l88.459,32.282&#10;&#9;&#9;c5.413,1.975,9.014,7.123,9.014,12.885v16.598c0,60.787-31.891,117.017-83.841,148.284l8.04,4.642c4.244,2.45,9.473,2.45,13.716,0&#10;&#9;&#9;l15.826-9.137c53.557-30.921,86.55-88.066,86.55-149.909v-16.598C479.536,296.144,475.935,290.996,470.522,289.021z"/>
	<path style="fill:#FFE270;" d="M361.602,373.034l-15.824-22.376c-2.608-3.687-2.608-8.618,0-12.306l15.824-22.376&#10;&#9;&#9;c4.246-6.004,13.154-6.004,17.401,0l15.824,22.376c2.608,3.687,2.608,8.618,0,12.306l-15.824,22.376&#10;&#9;&#9;C374.757,379.038,365.848,379.038,361.602,373.034z"/>
	<path style="fill:none;stroke:#000000;stroke-width:15;stroke-linecap:round;stroke-linejoin:round;stroke-miterlimit:10;" d="&#10;&#9;&#9;M361.602,373.034l-15.824-22.376c-2.608-3.687-2.608-8.618,0-12.306l15.824-22.376c4.246-6.004,13.154-6.004,17.401,0&#10;&#9;&#9;l15.824,22.376c2.608,3.687,2.608,8.618,0,12.306l-15.824,22.376C374.757,379.038,365.848,379.038,361.602,373.034z"/>
	<path style="fill:none;stroke:#000000;stroke-width:15;stroke-linecap:round;stroke-linejoin:round;stroke-miterlimit:10;" d="&#10;&#9;&#9;M476.785,349.144c1.801-10.015,2.752-20.258,2.752-30.64v-16.598c0-5.762-3.601-10.91-9.014-12.885l-95.518-34.859&#10;&#9;&#9;c-3.037-1.108-6.368-1.108-9.405,0l-95.518,34.859c-5.413,1.975-9.014,7.123-9.014,12.885v16.598&#10;&#9;&#9;c0,61.843,32.993,118.988,86.55,149.909l15.826,9.137c4.244,2.45,9.472,2.45,13.716,0l15.826-9.137&#10;&#9;&#9;c35.964-20.764,62.634-53.362,76.289-91.257"/>
</g>















</svg>
