<svg height="512" viewBox="0 0 58 58" width="512" xmlns="http://www.w3.org/2000/svg"><g id="Page-1" fill="none" fill-rule="evenodd"><g id="076---Real-Estate-Investing"><path id="Path" d="m22 12 2 30h-20c-1.10320187-.0032948-1.9967052-.8967981-2-2v-28z" fill="#7d6599"/><path id="Path" d="m26 42h-4v-40h24v24.5z" fill="#3b97d3"/><rect id="Rectangle" fill="#2980ba" height="4" rx="1" width="28" x="20"/><path id="Path" d="m22 10v4h-21c-.55228475 0-1-.4477153-1-1v-2c0-.5522847.44771525-1 1-1z" fill="#5d4c72"/><path id="Path" d="m9 34h6c.5522847 0 1 .4477153 1 1v7h-8v-7c0-.5522847.44771525-1 1-1z" fill="#5d4c72"/><g fill="#67b9cc"><rect id="Rectangle" height="4" rx="1" width="4" x="6" y="26"/><rect id="Rectangle" height="4" rx="1" width="4" x="14" y="26"/><rect id="Rectangle" height="4" rx="1" width="4" x="6" y="18"/><rect id="Rectangle" height="4" rx="1" width="4" x="14" y="18"/><rect id="Rectangle" height="4" rx="1" width="4" x="27" y="17"/><rect id="Rectangle" height="4" rx="1" width="4" x="37" y="17"/><rect id="Rectangle" height="4" rx="1" width="4" x="27" y="9"/><rect id="Rectangle" height="4" rx="1" width="4" x="37" y="9"/></g><path id="Path" d="m58 42c-.0153651 6.8198259-4.3613137 12.8767466-10.8169733 15.0755463-6.4556597 2.1987997-13.5951743.0538314-17.7700995-5.3387803s-4.4631488-12.8418053-.7173824-18.5408838 10.6981985-8.3892913 17.3044552-6.6958822c7.067204 1.8247432 12.0036796 8.2010243 12 15.5z" fill="#f0c419"/><circle id="Oval" cx="42" cy="42" fill="#f3d55b" r="12"/><path id="Path" d="m42 41c-1.1045695 0-2-.8954305-2-2s.8954305-2 2-2 2 .8954305 2 2c0 .5522847.4477153 1 1 1s1-.4477153 1-1c-.0068148-1.8184116-1.2393149-3.4034067-3-3.858v-1.142c0-.5522847-.4477153-1-1-1s-1 .4477153-1 1v1.142c-1.9482742.5014457-3.2190002 2.3742805-2.9650329 4.3699561.2539674 1.9956755 1.953264 3.4905487 3.9650329 3.4880439 1.1045695 0 2 .8954305 2 2s-.8954305 2-2 2-2-.8954305-2-2c0-.5522847-.4477153-1-1-1s-1 .4477153-1 1c.0068148 1.8184116 1.2393149 3.4034067 3 3.858v1.142c0 .5522847.4477153 1 1 1s1-.4477153 1-1v-1.142c1.9482742-.5014457 3.2190002-2.3742805 2.9650329-4.3699561-.2539674-1.9956755-1.953264-3.4905487-3.9650329-3.4880439z" fill="#b19046"/></g></g></svg>