<?xml version="1.0" encoding="UTF-8" standalone="no"?>
<!-- Created with Inkscape (http://www.inkscape.org/) -->

<svg
   version="1.1"
   id="svg1572"
   xml:space="preserve"
   width="682.66669"
   height="682.66669"
   viewBox="0 0 682.66669 682.66669"
   xmlns="http://www.w3.org/2000/svg"
   xmlns:svg="http://www.w3.org/2000/svg"><defs
     id="defs1576"><clipPath
       clipPathUnits="userSpaceOnUse"
       id="clipPath1586"><path
         d="M 0,512 H 512 V 0 H 0 Z"
         id="path1584" /></clipPath></defs><g
     id="g1578"
     transform="matrix(1.3333333,0,0,-1.3333333,0,682.66667)"><g
       id="g1580"><g
         id="g1582"
         clip-path="url(#clipPath1586)"><g
           id="g1588"
           transform="translate(347.2866,308.1235)"><path
             d="m 0,0 c -221.19,75.589 -72.046,166.142 3.02,201.853 1.025,0.488 0.676,2.023 -0.459,2.023 h -53.55 c -8.47,0 -16.838,-1.959 -24.582,-5.745 C -160.61,156.566 -332.074,55.436 -193.551,-29.378 -34.7,-126.64 -205.001,-253.646 -294.127,-308.124 H 55.351 C 102.087,-241.415 198.924,-67.98 0,0"
             style="fill:#665e68;fill-opacity:1;fill-rule:nonzero;stroke:none"
             id="path1590" /></g><g
           id="g1592"
           transform="translate(53.1597)"><path
             d="m 0,0 h 76.776 c 91.569,63.118 231.714,188.068 82.87,285.188 -124.239,81.065 0.873,176.114 89.349,226.812 h -5.857 c -8.47,0 -16.838,-1.96 -24.582,-5.745 C 133.517,464.689 -37.947,363.56 100.576,278.746 259.427,181.484 89.125,54.478 0,0"
             style="fill:#554e56;fill-opacity:1;fill-rule:nonzero;stroke:none"
             id="path1594" /></g><g
           id="g1596"
           transform="translate(217.8037,440.6611)"><path
             d="m 0,0 c -2.519,0 -4.988,1.229 -6.473,3.493 -2.341,3.571 -1.345,8.364 2.226,10.706 3.418,2.242 5.57,3.471 5.659,3.522 3.71,2.114 8.433,0.82 10.546,-2.891 C 14.071,11.121 12.778,6.401 9.071,4.287 9.02,4.257 7.179,3.199 4.233,1.268 2.926,0.41 1.455,0 0,0"
             style="fill:#dfebfa;fill-opacity:1;fill-rule:nonzero;stroke:none"
             id="path1598" /></g><g
           id="g1600"
           transform="translate(291.4199,70.0649)"><path
             d="m 0,0 c -1.882,0 -3.769,0.683 -5.257,2.064 -3.131,2.904 -3.314,7.797 -0.41,10.927 2.814,3.033 5.56,6.119 8.161,9.173 2.77,3.252 7.65,3.642 10.9,0.872 3.251,-2.769 3.642,-7.649 0.873,-10.9 C 11.524,8.917 8.632,5.666 5.67,2.473 4.147,0.831 2.077,0 0,0"
             style="fill:#dfebfa;fill-opacity:1;fill-rule:nonzero;stroke:none"
             id="path1602" /></g><g
           id="g1604"
           transform="translate(324.1909,113.6103)"><path
             d="m 0,0 c -1.307,0 -2.632,0.333 -3.847,1.03 -3.702,2.129 -4.978,6.855 -2.849,10.557 2.045,3.559 3.93,7.135 5.603,10.631 1.843,3.852 6.459,5.481 10.312,3.638 3.852,-1.843 5.481,-6.46 3.638,-10.313 C 11.017,11.699 8.95,7.774 6.71,3.88 5.28,1.393 2.677,0 0,0"
             style="fill:#dfebfa;fill-opacity:1;fill-rule:nonzero;stroke:none"
             id="path1606" /></g><g
           id="g1608"
           transform="translate(341.5937,164.8872)"><path
             d="m 0,0 c -0.206,0 -0.412,0.008 -0.62,0.024 -4.257,0.338 -7.435,4.063 -7.097,8.32 0.166,2.084 0.249,4.178 0.249,6.224 0.001,1.74 -0.06,3.49 -0.18,5.204 -0.299,4.26 2.913,7.956 7.172,8.254 4.25,0.302 7.956,-2.912 8.254,-7.172 0.146,-2.074 0.22,-4.189 0.219,-6.288 0,-2.45 -0.1,-4.955 -0.298,-7.444 C 7.378,3.073 3.993,0 0,0"
             style="fill:#dfebfa;fill-opacity:1;fill-rule:nonzero;stroke:none"
             id="path1610" /></g><g
           id="g1612"
           transform="translate(328.0859,216.6743)"><path
             d="m 0,0 c -2.509,0 -4.969,1.219 -6.457,3.468 -2.069,3.128 -4.429,6.243 -7.016,9.258 -2.78,3.241 -2.407,8.123 0.834,10.903 3.242,2.781 8.122,2.408 10.904,-0.834 C 1.269,19.294 4.02,15.662 6.442,11.999 8.798,8.437 7.82,3.639 4.258,1.284 2.945,0.415 1.464,0 0,0"
             style="fill:#dfebfa;fill-opacity:1;fill-rule:nonzero;stroke:none"
             id="path1614" /></g><g
           id="g1616"
           transform="translate(288.5644,253.7383)"><path
             d="m 0,0 c -1.436,0 -2.887,0.399 -4.183,1.235 -3.294,2.123 -6.791,4.234 -10.396,6.272 -3.717,2.101 -5.027,6.818 -2.926,10.536 2.101,3.718 6.819,5.027 10.537,2.926 C -3.104,18.784 0.653,16.517 4.198,14.231 7.787,11.917 8.82,7.131 6.506,3.543 5.027,1.25 2.54,0 0,0"
             style="fill:#dfebfa;fill-opacity:1;fill-rule:nonzero;stroke:none"
             id="path1618" /></g><g
           id="g1620"
           transform="translate(240.1553,278.8203)"><path
             d="m 0,0 c -1.176,0 -2.369,0.269 -3.489,0.837 -3.919,1.986 -7.75,4.018 -11.386,6.041 -3.732,2.076 -5.075,6.784 -2.999,10.516 2.076,3.732 6.784,5.077 10.516,2.999 3.464,-1.927 7.117,-3.865 10.86,-5.762 C 7.311,12.7 8.834,8.047 6.903,4.238 5.541,1.549 2.821,0 0,0"
             style="fill:#dfebfa;fill-opacity:1;fill-rule:nonzero;stroke:none"
             id="path1622" /></g><g
           id="g1624"
           transform="translate(194.3364,308.2163)"><path
             d="m 0,0 c -1.774,0 -3.556,0.607 -5.012,1.848 -3.501,2.983 -6.776,6.045 -9.733,9.097 -2.971,3.067 -2.894,7.962 0.174,10.933 3.068,2.972 7.962,2.893 10.933,-0.173 2.617,-2.701 5.529,-5.422 8.657,-8.088 3.251,-2.769 3.64,-7.65 0.87,-10.9 C 4.359,0.922 2.187,0 0,0"
             style="fill:#dfebfa;fill-opacity:1;fill-rule:nonzero;stroke:none"
             id="path1626" /></g><g
           id="g1628"
           transform="translate(164.4018,352.6435)"><path
             d="m 0,0 c -3.578,0 -6.791,2.498 -7.558,6.138 -0.88,4.173 -1.327,8.433 -1.327,12.664 0,0.547 0.008,1.099 0.023,1.651 0.116,4.269 3.683,7.617 7.94,7.518 C 3.347,27.854 6.713,24.299 6.596,20.03 6.585,19.625 6.58,19.218 6.58,18.81 6.58,15.642 6.914,12.455 7.573,9.33 8.455,5.151 5.782,1.05 1.604,0.168 1.065,0.055 0.528,0 0,0"
             style="fill:#dfebfa;fill-opacity:1;fill-rule:nonzero;stroke:none"
             id="path1630" /></g><g
           id="g1632"
           transform="translate(177.8735,403.8379)"><path
             d="m 0,0 c -1.572,0 -3.158,0.478 -4.528,1.47 -3.459,2.504 -4.233,7.339 -1.728,10.798 2.524,3.485 5.371,6.99 8.464,10.417 2.86,3.169 7.75,3.421 10.921,0.559 3.17,-2.862 3.42,-7.751 0.559,-10.921 C 10.965,9.307 8.47,6.236 6.269,3.198 4.757,1.109 2.395,0 0,0"
             style="fill:#dfebfa;fill-opacity:1;fill-rule:nonzero;stroke:none"
             id="path1634" /></g><g
           id="g1636"
           transform="translate(256.0053,37.2133)"><path
             d="m 0,0 c -2.335,0 -4.644,1.054 -6.165,3.059 -2.582,3.402 -1.917,8.252 1.485,10.834 0.014,0.01 1.714,1.304 4.57,3.666 3.291,2.722 8.166,2.259 10.886,-1.031 2.722,-3.29 2.26,-8.164 -1.03,-10.886 C 6.612,3.051 4.747,1.633 4.669,1.573 3.271,0.513 1.629,0 0,0"
             style="fill:#dfebfa;fill-opacity:1;fill-rule:nonzero;stroke:none"
             id="path1638" /></g><g
           id="g1640"
           transform="translate(364.9824,326.6626)"><path
             d="m 0,0 c -210.789,65.146 -89.169,139.331 -11.125,177.542 3.646,1.786 2.485,7.795 -1.503,7.795 h -2.901 C -88.944,151.135 -248.344,58.522 -22.847,-18.539 176.077,-86.519 79.241,-259.954 32.504,-326.663 h 39.609 c 9.916,0 19.026,6.014 23.711,15.66 C 140.728,-218.547 182.635,-56.445 0,0"
             style="fill:#ffd301;fill-opacity:1;fill-rule:nonzero;stroke:none"
             id="path1642" /></g><g
           id="g1644"
           transform="translate(155.7954,278.7456)"><path
             d="m 0,0 c -102.413,62.705 -37.443,134.329 38.827,184.208 -85.326,-47.85 -183.182,-126.492 -68.475,-196.725 134.351,-82.26 -6.581,-185.796 -109.257,-248.736 -7.629,-4.676 -4.608,-17.493 4.118,-17.493 h 34.212 C -11.45,-224.268 158.851,-97.262 0,0"
             style="fill:#ffc20c;fill-opacity:1;fill-rule:nonzero;stroke:none"
             id="path1646" /></g></g></g></g></svg>
