<svg id="Layer_5" enable-background="new 0 0 64 64" height="512" viewBox="0 0 64 64" width="512" xmlns="http://www.w3.org/2000/svg"><g><g><g><path d="m28 4v8h-4c-2.21 0-4 1.79-4 4v4 6h-16c-1.1 0-2-.9-2-2v-20c0-1.1.9-2 2-2h22c1.1 0 2 .9 2 2z" fill="#e6e9ed"/></g><g><path d="m62 40v20c0 1.1-.9 2-2 2h-22c-1.1 0-2-.9-2-2v-8h4c.73 0 1.41-.2 2-.54v5.54l14-7-12-6v-6h16c1.1 0 2 .9 2 2z" fill="#e6e9ed"/></g><g><path d="m20 44v1.53c-1.06-.95-2.46-1.53-4-1.53h-10v12h10 10v-4h4v8c0 1.1-.9 2-2 2h-24c-1.1 0-2-.9-2-2v-20c0-1.1.9-2 2-2h16z" fill="#ffeaa7"/></g><g><path d="m62 4v20c0 1.1-.9 2-2 2h-16v-6h11c1.66 0 3-1.34 3-3 0-1.36-.91-2.49-2.14-2.86.08-.37.14-.75.14-1.14 0-2.76-2.24-5-5-5-2.07 0-3.84 1.25-4.6 3.04-.13-.02-.26-.04-.4-.04-1.46 0-2.67 1.04-2.94 2.42-.74-.87-1.84-1.42-3.06-1.42h-4v-8c0-1.1.9-2 2-2h22c1.1 0 2 .9 2 2z" fill="#ffeaa7"/></g><g><path d="m6 44h10c-3.31 0-6 2.69-6 6s2.69 6 6 6h-10z" fill="#ccd1d9"/></g><g><path d="m26 52v4h-10c2.84 0 5.22-1.98 5.84-4.63.63.4 1.37.63 2.16.63z" fill="#ccd1d9"/></g><g><path d="m20 48c0 1.41.73 2.65 1.84 3.37-.62 2.65-3 4.63-5.84 4.63-3.31 0-6-2.69-6-6s2.69-6 6-6c1.54 0 2.94.58 4 1.53z" fill="#69d6f4"/></g><g><circle cx="16" cy="50" fill="#4fc1e9" r="2"/></g><g><path d="m56 50-14 7v-5.54c1.2-.69 2-1.98 2-3.46v-4z" fill="#ff826e"/></g><g><circle cx="12" cy="20" fill="#ff826e" r="2"/></g><g><path d="m55.86 14.14c1.23.37 2.14 1.5 2.14 2.86 0 1.66-1.34 3-3 3h-11v-4c0-.98-.36-1.88-.94-2.58.27-1.38 1.48-2.42 2.94-2.42.14 0 .27.02.4.04.76-1.79 2.53-3.04 4.6-3.04 2.76 0 5 2.24 5 5 0 .39-.06.77-.14 1.14z" fill="#e6e9ed"/></g><g><path d="m44 16v4h-24v-4c0-2.21 1.79-4 4-4h4 8 4c1.22 0 2.32.55 3.06 1.42.58.7.94 1.6.94 2.58z" fill="#969faa"/></g><g><path d="m44 44v4c0 1.48-.8 2.77-2 3.46-.59.34-1.27.54-2 .54h-4-6-4-2c-.79 0-1.53-.23-2.16-.63-1.11-.72-1.84-1.96-1.84-3.37v-2.47-1.53z" fill="#969faa"/></g><g><path d="m44 38v6h-24v-6-12-6h24v6z" fill="#69d6f4"/></g><g><path d="m24 24h16v16h-16z" fill="#fcd770"/></g></g><g><path d="m31 15h6v2h-6z"/><path d="m27 15h2v2h-2z"/><path d="m28 47h8v2h-8z"/><path d="m41 41v-18h-18v18zm-16-16h14v14h-14z"/><path d="m60 27c1.654 0 3-1.346 3-3v-20c0-1.654-1.346-3-3-3h-22c-1.654 0-3 1.346-3 3v7h-6v-7c0-1.654-1.346-3-3-3h-22c-1.654 0-3 1.346-3 3v20c0 1.654 1.346 3 3 3h15v10h-15c-1.654 0-3 1.346-3 3v20c0 1.654 1.346 3 3 3h24c1.654 0 3-1.346 3-3v-7h4v7c0 1.654 1.346 3 3 3h22c1.654 0 3-1.346 3-3v-20c0-1.654-1.346-3-3-3h-15v-10zm-23-23c0-.552.449-1 1-1h22c.551 0 1 .448 1 1v20c0 .552-.449 1-1 1h-15v-4h10c2.206 0 4-1.794 4-4 0-1.468-.787-2.772-2.027-3.468.018-.18.027-.357.027-.532 0-3.309-2.691-6-6-6-2.166 0-4.137 1.159-5.199 3.005-1.29.064-2.433.755-3.122 1.788-.776-.496-1.692-.793-2.679-.793h-3zm-26 46c0-2.757 2.243-5 5-5 1.093 0 2.136.373 3 1.025v1.975c0 1.48.659 2.797 1.684 3.713-.711 1.958-2.552 3.287-4.684 3.287-2.757 0-5-2.243-5-5zm.111 5h-4.111v-10h4.111c-1.301 1.272-2.111 3.042-2.111 5s.81 3.728 2.111 5zm44.46-39.902c.855.256 1.429 1.02 1.429 1.902 0 1.103-.897 2-2 2h-10v-3c0-1.024-.312-1.977-.843-2.77.306-.731 1.025-1.23 1.843-1.23.065 0 .128.012.269.031l.753.101.298-.699c.63-1.478 2.075-2.433 3.68-2.433 2.206 0 4 1.794 4 4 0 .279-.038.577-.116.912l-.214.916zm-12.571.902v3h-22v-3c0-1.654 1.346-3 3-3h16c1.654 0 3 1.346 3 3zm-20.551 36.729c.491.162 1.006.271 1.551.271h1v2h-4.119c.655-.641 1.202-1.398 1.568-2.271zm1.551-1.729c-1.654 0-3-1.346-3-3v-3h22v3c0 1.654-1.346 3-3 3zm19 .974c1.207-.914 2-2.348 2-3.974v-2.382l8.764 4.382-10.764 5.382zm0-8.974h-22v-22h22zm-39-18c-.551 0-1-.448-1-1v-20c0-.552.449-1 1-1h22c.551 0 1 .448 1 1v7h-3c-2.757 0-5 2.243-5 5v9zm25 35c0 .552-.449 1-1 1h-24c-.551 0-1-.448-1-1v-20c0-.552.449-1 1-1h15v4.678c-.93-.441-1.952-.678-3-.678h-11v14h22v-4h2zm31-21c.551 0 1 .448 1 1v20c0 .552-.449 1-1 1h-22c-.551 0-1-.448-1-1v-7h3c.342 0 .677-.035 1-.101v5.719l17.236-8.618-13.236-6.618v-4.382z"/><path d="m23.11 6.006-10.11-1.123v12.301c-.314-.112-.648-.184-1-.184-1.654 0-3 1.346-3 3s1.346 3 3 3 3-1.346 3-3v-12.883l7.89.877zm-11.11 14.994c-.551 0-1-.448-1-1s.449-1 1-1 1 .448 1 1-.449 1-1 1z"/><path d="m16 47c-1.654 0-3 1.346-3 3s1.346 3 3 3 3-1.346 3-3-1.346-3-3-3zm0 4c-.551 0-1-.448-1-1s.449-1 1-1 1 .448 1 1-.449 1-1 1z"/></g></g></svg>