<svg id="Layer_1" enable-background="new 0 0 512 512" height="512" viewBox="0 0 512 512" width="512" xmlns="http://www.w3.org/2000/svg"><g clip-rule="evenodd" fill-rule="evenodd"><g><g><path d="m159.937 478.042h-143.937v-31.98c106.691-113.937 160.037-170.906 160.037-170.906h143.937v31.98z" fill="#65788e"/><path d="m71.979 446.062v-58.053h-1.617c-16.248 17.35-34.368 36.701-54.362 58.053z" fill="#7789a4"/><path d="m159.937 478.042c0-21.32 0-31.98 0-31.98 106.692-113.937 160.037-170.906 160.037-170.906v31.98c-106.691 113.937-160.037 170.906-160.037 170.906z" fill="#8192a5"/><path d="m263.995 275.156-160.037 170.906h55.979c106.692-113.937 160.037-170.906 160.037-170.906-37.319 0-55.979 0-55.979 0z" fill="#9facba"/><path d="m159.937 388.009h-143.937v-31.979l160.037-170.906 143.937-.671v32.65z" fill="#9facba"/><path d="m319.974 184.453v32.65l-160.037 170.906c0-21.319 0-31.979 0-31.979 106.691-114.385 160.037-171.577 160.037-171.577z" fill="#8192a5"/><g fill="#8d9ca8"><path d="m71.979 384.3h31.979v77.752h-31.979z"/><path d="m16 446.062h143.937v31.979h-143.937z"/><path d="m16 356.03h143.937v31.979h-143.937z"/></g></g><g><path d="m335.962 478.042h-143.936v-31.98c106.691-113.937 160.037-170.906 160.037-170.906h143.937v31.98z" fill="#65788e"/><path d="m248.004 446.062v-58.053h-1.617c-16.247 17.35-34.367 36.701-54.361 58.053z" fill="#7789a4"/><path d="m335.962 478.042c0-21.32 0-31.98 0-31.98 106.692-113.937 160.038-170.906 160.038-170.906v31.98c-106.692 113.937-160.038 170.906-160.038 170.906z" fill="#8192a5"/><path d="m440.021 275.156-160.038 170.906h55.979c106.692-113.937 160.038-170.906 160.038-170.906-37.32 0-55.979 0-55.979 0z" fill="#9facba"/><path d="m335.962 388.009h-143.936v-31.979l160.037-170.906 143.937-.671v32.65z" fill="#9facba"/><path d="m496 184.453v32.65l-160.038 170.906c0-21.319 0-31.979 0-31.979 106.692-114.385 160.038-171.577 160.038-171.577z" fill="#8192a5"/><g fill="#8d9ca8"><path d="m248.004 384.3h31.979v77.752h-31.979z"/><path d="m192.026 446.062h143.937v31.979h-143.937z"/><path d="m192.026 356.03h143.937v31.979h-143.937z"/></g></g><g><path d="m263.301 327.547h-143.937v-31.98c106.691-113.937 160.037-170.906 160.037-170.906h143.937v31.98z" fill="#65788e"/><path d="m175.343 295.568v-58.053h-1.618c-16.247 17.35-34.367 36.701-54.361 58.053z" fill="#7789a4"/><path d="m263.301 327.547c0-21.32 0-31.98 0-31.98 106.691-113.937 160.037-170.906 160.037-170.906v31.98c-106.691 113.937-160.037 170.906-160.037 170.906z" fill="#8192a5"/><path d="m367.359 124.661-160.037 170.906h55.979c106.691-113.937 160.037-170.906 160.037-170.906-37.319 0-55.979 0-55.979 0z" fill="#9facba"/><path d="m263.301 237.514h-143.937v-31.979l160.037-170.905 143.937-.672v32.65z" fill="#9facba"/><path d="m423.338 33.958v32.65l-160.037 170.906c0-21.319 0-31.979 0-31.979 106.691-114.384 160.037-171.577 160.037-171.577z" fill="#8192a5"/><g fill="#8d9ca8"><path d="m175.343 233.806h31.979v77.752h-31.979z"/><path d="m119.364 295.568h143.937v31.979h-143.937z"/><path d="m119.364 205.535h143.937v31.979h-143.937z"/></g></g></g><path d="m343.955 367.762v-8.599l144.059-154.437v9.207zm133.619-84.629h-32.468l-103.311 110.32c-.988 1.054-2.25 1.831-3.681 2.231l-39.688 42.371h34.068c75.39-80.502 123.758-132.15 145.08-154.922zm-133.619 174.682 144.059-153.849v-8.59c-21.929 23.421-69.949 74.698-144.059 153.83zm-15.994 12.237h-127.947v-16.008h127.947zm-87.957-65.849v33.852h-31.682zm-88.071 65.849h-127.951v-16.008h127.952v16.008zm-127.951-106.036h127.952v15.98h-127.952zm258.91-321.409 121.96-.584-145.019 155.511h-122.03zm-11.588 174.658 144.031-153.821v-9.207l-144.031 154.438zm133.591-84.62h-32.464l-103.288 110.32-.009-.01c-1.003 1.069-2.278 1.859-3.733 2.26l-39.646 42.352h34.087zm-133.591 166.072v8.576l144.031-153.821v-8.59zm16.667 97.268h27.954l-27.954 29.841zm-15.989 0v42.07h-15.989v-42.07zm-109.929-.292-39.67 42.362h34.078l39.401-42.07h-3.85c-4.406 0-7.988-3.582-7.988-7.992v-14.036l-18.263 19.496c-.997 1.054-2.268 1.84-3.708 2.24zm-22.179.292-27.931 29.832v-29.832zm75.442-150.493h27.916l-27.916 29.823zm-47.963 42.075h-29.55l29.55-31.559zm15.989 0v-42.075h15.989v42.075zm-55.979 31.969v-15.989h127.952v15.989zm40.56 39.627 22.042-23.638h8.138l-30.18 32.228zm160.038 20.833h-127.947v-15.98h127.947zm-200.598-166.473h127.952v15.985h-127.952zm3.06 31.969-96.002 102.534h122.035l11.65-12.501h-48.745c-4.41 0-7.987-3.582-7.987-8.002v-31.969c0-2.109.819-4.029 2.16-5.46l41.76-44.602zm-50.458 150.493h15.989v42.07h-15.989zm-45.544 42.07 29.55-31.56v31.56zm133.502 19.76 57.881-61.83h-8.04l-49.841 53.221zm309.608-265.299-77.207.377-131.181 140.1-.009-.009c-1.45 1.563-3.521 2.542-5.823 2.542h-41.156l-11.701 12.501h122.03zm26.472 24.58v-32.661h-.019c0-1.078-.202-2.17-.659-3.201-1.271-2.909-4.142-4.787-7.319-4.787-.014 0-.023 0-.042 0l-80.61.386 13.81-14.737c1.379-1.482 2.151-3.441 2.151-5.469v-31.974h-.009c0-1.078-.202-2.156-.64-3.177-1.271-2.918-4.151-4.82-7.343-4.82h-35.918l41.759-44.588c1.379-1.483 2.151-3.431 2.151-5.46v-32.662h-.009c0-1.083-.202-2.17-.664-3.201-1.271-2.909-4.137-4.792-7.319-4.792-.009 0-.019 0-.037 0l-143.913.682c-2.198.009-4.297.918-5.799 2.528l-160.039 170.903c-1.341 1.426-2.16 3.351-2.16 5.46v31.979c0 1.398.372 2.73 1.012 3.878l-102.234 109.171c-1.327 1.431-2.156 3.351-2.156 5.46v31.979c0 4.41 3.577 7.992 7.987 7.992h35.928l-41.759 44.602c-1.327 1.426-2.156 3.347-2.156 5.455v32.002c0 4.42 3.577 8.002 7.987 8.002h143.951c2.297 0 4.368-.979 5.827-2.542v.009l18.263-19.51v14.041c0 4.42 3.582 8.002 7.988 8.002h143.95c2.302 0 4.373-.979 5.832-2.542v.009l160.048-170.93c1.379-1.478 2.16-3.436 2.16-5.46v-31.978h-.019c0-1.068-.202-2.161-.64-3.182-1.271-2.918-4.151-4.81-7.338-4.81h-35.932l41.769-44.597c1.378-1.479 2.16-3.432 2.16-5.46z"/></g></svg>