<svg id="Layer_1" height="512" viewBox="0 0 110 110" width="512" xmlns="http://www.w3.org/2000/svg" data-name="Layer 1"><rect fill="#e4e8eb" height="96" rx="8.58" width="95.11" x="7.45" y="7"/><path d="m102.55 15.58v78.84a8.58 8.58 0 0 1 -8.55 8.58h-8.24a8.58 8.58 0 0 0 8.58-8.58v-78.84a8.59 8.59 0 0 0 -8.58-8.58h8.24a8.58 8.58 0 0 1 8.55 8.58z" fill="#ccd1d9"/><path d="m102.56 26.22v-10.64a8.59 8.59 0 0 0 -8.56-8.58h-78a8.58 8.58 0 0 0 -8.58 8.58v10.64z" fill="#66d4f1"/><path d="m102.55 15.58v10.64h-8.21v-10.64a8.58 8.58 0 0 0 -8.58-8.58h8.24a8.58 8.58 0 0 1 8.55 8.58z" fill="#4fc0e8"/><path d="m94 104h-78a9.59 9.59 0 0 1 -9.58-9.58v-78.84a9.59 9.59 0 0 1 9.58-9.58h78a9.59 9.59 0 0 1 9.58 9.58v78.84a9.59 9.59 0 0 1 -9.58 9.58zm-78-96a7.59 7.59 0 0 0 -7.58 7.58v78.84a7.59 7.59 0 0 0 7.58 7.58h78a7.59 7.59 0 0 0 7.58-7.58v-78.84a7.59 7.59 0 0 0 -7.58-7.58z"/><path d="m102.55 27.22h-95.1a1 1 0 0 1 -1-1v-10.64a9.59 9.59 0 0 1 9.55-9.58h78a9.59 9.59 0 0 1 9.58 9.58v10.64a1 1 0 0 1 -1.03 1zm-94.1-2h93.1v-9.64a7.59 7.59 0 0 0 -7.55-7.58h-78a7.59 7.59 0 0 0 -7.58 7.58z"/><g fill="#fff"><path d="m20.82 16.61a3 3 0 1 1 -3-2.95 3 3 0 0 1 3 2.95z"/><path d="m30.76 16.61a3 3 0 1 1 -3-2.95 3 3 0 0 1 3 2.95z"/><path d="m41.32 16.61a3 3 0 1 1 -3-2.95 3 3 0 0 1 3 2.95z"/></g><path d="m17.86 20.56a4 4 0 1 1 4-3.95 4 4 0 0 1 -4 3.95zm0-5.9a2 2 0 1 0 2 1.95 2 2 0 0 0 -2-1.95z"/><path d="m27.8 20.56a4 4 0 1 1 4-3.95 4 4 0 0 1 -4 3.95zm0-5.9a2 2 0 1 0 2 1.95 2 2 0 0 0 -2-1.95z"/><path d="m38.36 20.56a4 4 0 1 1 4-3.95 4 4 0 0 1 -4 3.95zm0-5.9a2 2 0 1 0 2 1.95 2 2 0 0 0 -2-1.95z"/><path d="m94.22 17.61h-37.31a1 1 0 0 1 0-2h37.31a1 1 0 0 1 0 2z"/><path d="m40.75 36.14h-24.42a1 1 0 1 1 0-2h24.42a1 1 0 0 1 0 2z"/><path d="m32.89 44.12h-2.5a1 1 0 1 1 0-2h2.5a1 1 0 0 1 0 2z"/><path d="m25.27 44.12h-8.94a1 1 0 1 1 0-2h8.94a1 1 0 1 1 0 2z"/><path d="m60.28 80.91-2.93 1a1.74 1.74 0 0 0 -1 2.41l1.39 2.76a1.74 1.74 0 0 1 -.32 2l-2.74 2.74a1.73 1.73 0 0 1 -2 .32l-2.76-1.38a1.73 1.73 0 0 0 -2.41 1l-1 2.93a1.74 1.74 0 0 1 -1.64 1.18h-3.87a1.74 1.74 0 0 1 -1.64-1.18l-1-2.93a1.73 1.73 0 0 0 -2.41-1l-2.76 1.38a1.73 1.73 0 0 1 -2-.32l-2.74-2.74a1.74 1.74 0 0 1 -.32-2l1.47-2.78a1.74 1.74 0 0 0 -1-2.41l-2.94-1a1.71 1.71 0 0 1 -1.17-1.63v-3.86a1.71 1.71 0 0 1 1.17-1.63l2.94-1a1.72 1.72 0 0 0 1-2.4l-1.38-2.76a1.74 1.74 0 0 1 .32-2l2.74-2.74a1.73 1.73 0 0 1 2-.32l2.72 1.45a1.73 1.73 0 0 0 2.41-1l1-2.93a1.73 1.73 0 0 1 1.59-1.21h3.87a1.73 1.73 0 0 1 1.68 1.14l1 2.93a1.73 1.73 0 0 0 2.41 1l2.76-1.38a1.73 1.73 0 0 1 2 .32l2.74 2.74a1.74 1.74 0 0 1 .32 2l-1.38 2.76a1.72 1.72 0 0 0 1 2.4l2.94 1a1.71 1.71 0 0 1 1.17 1.63v3.88a1.71 1.71 0 0 1 -1.23 1.63z" fill="#f76c82"/><g opacity=".1"><path d="m57.41 89.05-2.73 2.74a1.74 1.74 0 0 1 -2 .32l-2.76-1.38a1.73 1.73 0 0 0 -2.41 1l-1 2.93a1.71 1.71 0 0 1 -1.63 1.18h-3.88a1.73 1.73 0 0 1 -1.64-1.18l-1-2.93a1.73 1.73 0 0 0 -2.41-1l-2.76 1.38a1.74 1.74 0 0 1 -2-.32l-2.73-2.74a1.72 1.72 0 0 1 -.33-2l1.38-2.76a1.72 1.72 0 0 0 -1-2.41l-2.93-1a1.71 1.71 0 0 1 -1.18-1.63v-3.85a1.72 1.72 0 0 1 1.17-1.63l1.53-.51a20.65 20.65 0 0 0 30.13 13l.42.84a1.72 1.72 0 0 1 -.24 1.95z"/></g><path d="m51.15 77.34a8.18 8.18 0 1 1 -8.15-8.18 8.17 8.17 0 0 1 8.15 8.18z" fill="#fff"/><path d="m44.91 96.83h-3.91a2.71 2.71 0 0 1 -2.54-1.83l-1-2.93a.74.74 0 0 0 -.41-.44.7.7 0 0 0 -.6 0l-2.74 1.37a2.72 2.72 0 0 1 -3.15-.51l-2.73-2.74a2.71 2.71 0 0 1 -.51-3.14l1.38-2.76a.7.7 0 0 0 0-.6.66.66 0 0 0 -.44-.41l-2.93-1a2.72 2.72 0 0 1 -1.86-2.58v-3.86a2.72 2.72 0 0 1 1.86-2.58l2.93-1a.71.71 0 0 0 .44-.41.78.78 0 0 0 0-.6l-1.38-2.75a2.71 2.71 0 0 1 .51-3.14l2.73-2.74a2.72 2.72 0 0 1 3.15-.52l2.76 1.39a.73.73 0 0 0 1-.42l1-2.93a2.71 2.71 0 0 1 2.53-1.84h3.87a2.74 2.74 0 0 1 2.59 1.86l1 2.93a.73.73 0 0 0 1 .42l2.76-1.39a2.72 2.72 0 0 1 3.15.52l2.73 2.73a2.72 2.72 0 0 1 .51 3.15l-1.38 2.75a.73.73 0 0 0 0 .6.71.71 0 0 0 .44.41l2.93 1a2.72 2.72 0 0 1 1.86 2.58v3.88a2.72 2.72 0 0 1 -1.86 2.58l-2.93 1a.66.66 0 0 0 -.44.41.7.7 0 0 0 0 .6l1.38 2.76a2.71 2.71 0 0 1 -.51 3.14l-2.73 2.74a2.72 2.72 0 0 1 -3.15.51l-2.76-1.38a.7.7 0 0 0 -.6 0 .74.74 0 0 0 -.41.44l-.95 2.9a2.74 2.74 0 0 1 -2.59 1.83zm-8.12-7.29a2.68 2.68 0 0 1 1 .21 2.73 2.73 0 0 1 1.54 1.65l1 2.93a.73.73 0 0 0 .69.5h3.87a.73.73 0 0 0 .69-.5l1-2.93a2.7 2.7 0 0 1 1.54-1.65 2.74 2.74 0 0 1 2.26.08l2.76 1.38a.71.71 0 0 0 .83-.13l2.74-2.74a.72.72 0 0 0 .13-.83l-1.38-2.77a2.74 2.74 0 0 1 -.08-2.26 2.7 2.7 0 0 1 1.62-1.54l3-.94a.71.71 0 0 0 .49-.68v-3.92a.72.72 0 0 0 -.49-.68l-2.93-1a2.72 2.72 0 0 1 -1.58-3.8l1.38-2.76a.71.71 0 0 0 -.13-.83l-2.74-2.72a.72.72 0 0 0 -.83-.14l-2.76 1.39a2.72 2.72 0 0 1 -3.8-1.58l-1-2.93a.73.73 0 0 0 -.69-.49h-3.92a.73.73 0 0 0 -.69.49l-1 2.93a2.72 2.72 0 0 1 -3.8 1.58l-2.76-1.39a.72.72 0 0 0 -.83.14l-2.74 2.74a.71.71 0 0 0 -.13.83l1.38 2.76a2.72 2.72 0 0 1 -1.58 3.8l-2.93 1a.72.72 0 0 0 -.49.68v3.88a.71.71 0 0 0 .57.7l2.94 1a2.72 2.72 0 0 1 1.57 3.8l-1.38 2.77a.71.71 0 0 0 .13.83l2.74 2.68a.71.71 0 0 0 .83.13l2.76-1.38a2.77 2.77 0 0 1 1.2-.29z"/><path d="m43 86.52a9.18 9.18 0 1 1 9.17-9.18 9.19 9.19 0 0 1 -9.17 9.18zm0-16.36a7.18 7.18 0 1 0 7.17 7.18 7.19 7.19 0 0 0 -7.17-7.18z"/><path d="m72.57 65.42-1.85-2.07a1.54 1.54 0 0 0 -2.34 0l-1.78 2.16a1.53 1.53 0 0 1 -1.75.44l-3.23-1.28a1.55 1.55 0 0 1 -1-1.52l.16-2.77a1.55 1.55 0 0 0 -1.68-1.63l-2.74.25a1.54 1.54 0 0 1 -1.55-.93l-1.38-3.19a1.56 1.56 0 0 1 .39-1.77l2.06-1.84a1.54 1.54 0 0 0 0-2.34l-2.12-1.78a1.57 1.57 0 0 1 -.45-1.76l1.29-3.23a1.53 1.53 0 0 1 1.52-1l2.77.16a1.55 1.55 0 0 0 1.63-1.68l-.24-2.77a1.54 1.54 0 0 1 .93-1.55l3.16-1.32a1.54 1.54 0 0 1 1.76.39l1.87 2.03a1.55 1.55 0 0 0 2.34 0l1.78-2.12a1.55 1.55 0 0 1 1.75-.44l3.23 1.28a1.56 1.56 0 0 1 1 1.52l-.16 2.77a1.55 1.55 0 0 0 1.64 1.57l2.76-.24a1.56 1.56 0 0 1 1.55.93l1.38 3.19a1.56 1.56 0 0 1 -.39 1.77l-2.06 1.85a1.53 1.53 0 0 0 0 2.33l2.18 1.81a1.55 1.55 0 0 1 .45 1.75l-1.29 3.23a1.53 1.53 0 0 1 -1.52 1l-2.76-.15a1.55 1.55 0 0 0 -1.63 1.67l.24 2.77a1.56 1.56 0 0 1 -.93 1.55l-3.19 1.38a1.55 1.55 0 0 1 -1.8-.42z" fill="#b3a4ee"/><path d="m71.84 55.66a6.29 6.29 0 1 1 3.29-8.27 6.29 6.29 0 0 1 -3.29 8.27z" fill="#fff"/><path d="m65.42 67.06a2.57 2.57 0 0 1 -.94-.18l-3.23-1.28a2.54 2.54 0 0 1 -1.61-2.51l.16-2.77a.59.59 0 0 0 -.16-.42.54.54 0 0 0 -.43-.15l-2.76.25a2.56 2.56 0 0 1 -2.56-1.53l-1.38-3.19a2.55 2.55 0 0 1 .64-2.91l2.07-1.85a.54.54 0 0 0 .18-.42.52.52 0 0 0 -.2-.4l-2.12-1.8a2.55 2.55 0 0 1 -.73-2.9l1.29-3.23a2.52 2.52 0 0 1 2.51-1.6l2.77.16a.61.61 0 0 0 .42-.17.53.53 0 0 0 .15-.42l-.24-2.74a2.56 2.56 0 0 1 1.53-2.56l3.22-1.44a2.57 2.57 0 0 1 2.91.64l1.85 2.07a.51.51 0 0 0 .41.18.54.54 0 0 0 .41-.19l1.78-2.12a2.56 2.56 0 0 1 2.89-.73l3.23 1.28a2.55 2.55 0 0 1 1.61 2.51l-.16 2.77a.55.55 0 0 0 .16.42.5.5 0 0 0 .43.15l2.76-.23a2.54 2.54 0 0 1 2.56 1.52l1.38 3.2a2.54 2.54 0 0 1 -.64 2.9l-2.07 1.85a.55.55 0 0 0 -.18.42.54.54 0 0 0 .2.41l2.12 1.78a2.56 2.56 0 0 1 .73 2.89l-1.32 3.28a2.51 2.51 0 0 1 -2.51 1.6l-2.76-.15a.52.52 0 0 0 -.42.16.52.52 0 0 0 -.15.43l.23 2.76a2.55 2.55 0 0 1 -1.52 2.56l-3.2 1.38a2.54 2.54 0 0 1 -2.9-.64l-1.83-2.1a.56.56 0 0 0 -.42-.19.57.57 0 0 0 -.41.2l-1.78 2.12a2.56 2.56 0 0 1 -1.97.93zm-6.16-9.31a2.51 2.51 0 0 1 1.77.72 2.54 2.54 0 0 1 .77 2l-.16 2.76a.55.55 0 0 0 .35.54l3.23 1.23a.55.55 0 0 0 .61-.16l1.79-2.12a2.58 2.58 0 0 1 1.91-.91 2.45 2.45 0 0 1 1.94.85l1.85 2.07a.54.54 0 0 0 .62.14l3.19-1.38a.54.54 0 0 0 .33-.55l-.24-2.76a2.55 2.55 0 0 1 2.68-2.76l2.77.15a.53.53 0 0 0 .53-.34l1.29-3.23a.56.56 0 0 0 -.16-.62l-2.12-1.78a2.55 2.55 0 0 1 -.06-3.85l2.07-1.85a.53.53 0 0 0 .13-.62l-1.35-3.17a.55.55 0 0 0 -.55-.33l-2.79.22a2.55 2.55 0 0 1 -2.76-2.68l.16-2.77a.55.55 0 0 0 -.35-.54l-3.23-1.28a.53.53 0 0 0 -.61.16l-1.79 2.11a2.54 2.54 0 0 1 -1.91.9 2.71 2.71 0 0 1 -1.93-.85l-1.85-2.05a.55.55 0 0 0 -.63-.14l-3.19 1.38a.55.55 0 0 0 -.33.55l.24 2.76a2.53 2.53 0 0 1 -2.68 2.76l-2.8-.13a.57.57 0 0 0 -.54.34l-1.29 3.23a.56.56 0 0 0 .16.62l2.12 1.78a2.55 2.55 0 0 1 .1 3.85l-2.07 1.85a.54.54 0 0 0 -.13.62l1.38 3.2a.55.55 0 0 0 .55.32l2.72-.23z"/><path d="m69.35 57.18a7.39 7.39 0 0 1 -2.69-.52 7.24 7.24 0 1 1 2.69.52zm0-12.58a5.32 5.32 0 0 0 -2.09.43 5.29 5.29 0 0 0 4.2 9.71 5.29 5.29 0 0 0 -2.12-10.14z"/><path d="m73.33 84.09a1 1 0 0 1 -.71-.29l-4.86-4.86a1 1 0 0 1 0-1.42 1 1 0 0 1 1.41 0l4.83 4.87a1 1 0 0 1 -.71 1.7z"/><path d="m78.44 76.13h-6.88a1 1 0 0 1 0-2h6.88a1 1 0 0 1 0 2z"/><path d="m65.37 89.21a1 1 0 0 1 -1-1v-6.88a1 1 0 1 1 2 0v6.88a1 1 0 0 1 -1 1z"/><path d="m41.55 52.31a1 1 0 0 1 -.71-.29l-4.84-4.87a1 1 0 0 1 1.41-1.41l4.86 4.86a1 1 0 0 1 -.7 1.71z"/><path d="m38.45 55.41h-6.88a1 1 0 1 1 0-2h6.88a1 1 0 0 1 0 2z"/><path d="m44.64 49.21a1 1 0 0 1 -1-1v-6.88a1 1 0 0 1 2 0v6.88a1 1 0 0 1 -1 1z"/></svg>